<svg viewBox="0 0 157 55" xmlns="http://www.w3.org/2000/svg">
  <g fill="#FFF" fill-rule="evenodd">
    <polyline points="0 13.7027732 13.8626914 13.7027732 13.8626914 17.0388773 3.82227881 17.0388773 3.82227881 22.9237509 13.286052 22.9237509 13.286052 26.1390409 3.82227881 26.1390409 3.82227881 35.1785056 0 35.1785056 0 13.7027732"/>
    <path d="M15.38 20.618h3.487v2.427h.061a5.31 5.31 0 0 1 1.7-2.062c.727-.526 1.576-.79 2.547-.79.141 0 .293.006.455.016.162.01.303.035.425.076v3.336a5.135 5.135 0 0 0-.622-.121 4.365 4.365 0 0 0-.5-.03c-.83 0-1.498.151-2.003.455-.505.303-.9.667-1.182 1.092-.284.425-.476.86-.577 1.304-.102.445-.152.8-.152 1.062v7.796h-3.64v-14.56"/>
    <path d="M35.308 26.443c0-.466-.066-.91-.197-1.335a3.062 3.062 0 0 0-.622-1.123 3.044 3.044 0 0 0-1.077-.773c-.434-.192-.946-.288-1.532-.288-1.092 0-2.017.329-2.775.986-.759.657-1.178 1.501-1.259 2.533h7.462zm3.64 1.637v.486c0 .162-.01.323-.03.485H27.846a3.595 3.595 0 0 0 1.335 2.563c.383.314.819.561 1.304.743.485.182.99.273 1.517.273.91 0 1.678-.167 2.305-.5a4.325 4.325 0 0 0 1.547-1.38l2.427 1.941c-1.436 1.941-3.52 2.912-6.25 2.912-1.132 0-2.173-.177-3.123-.53a7.363 7.363 0 0 1-2.472-1.502c-.699-.647-1.244-1.44-1.639-2.382-.394-.94-.591-2.006-.591-3.2 0-1.172.197-2.24.591-3.2a7.302 7.302 0 0 1 1.623-2.457 7.275 7.275 0 0 1 2.442-1.577 8.171 8.171 0 0 1 3.05-.562c1.01 0 1.945.167 2.804.501.86.334 1.603.83 2.23 1.487.627.657 1.117 1.476 1.471 2.456.354.981.531 2.129.531 3.443z"/>
    <path d="M44.226 27.838c0 .566.085 1.132.258 1.698a4.66 4.66 0 0 0 .773 1.517 4.05 4.05 0 0 0 1.304 1.092c.526.283 1.142.425 1.851.425.667 0 1.264-.137 1.79-.41a4.377 4.377 0 0 0 1.35-1.077 4.72 4.72 0 0 0 .849-1.501 5.127 5.127 0 0 0 .288-1.684c0-.565-.096-1.132-.288-1.698a4.685 4.685 0 0 0-.85-1.517 4.612 4.612 0 0 0-1.35-1.092c-.525-.283-1.122-.424-1.789-.424-.709 0-1.325.136-1.85.409a3.876 3.876 0 0 0-1.305 1.077 4.692 4.692 0 0 0-.773 1.501 5.666 5.666 0 0 0-.258 1.684zm11.982 7.34h-3.459v-2.183h-.06a4.96 4.96 0 0 1-2.108 1.94 6.45 6.45 0 0 1-2.897.668c-1.113 0-2.108-.207-2.988-.622a6.857 6.857 0 0 1-2.245-1.668 7.397 7.397 0 0 1-1.425-2.457 8.953 8.953 0 0 1-.501-3.018c0-1.072.172-2.073.516-3.003a7.338 7.338 0 0 1 1.455-2.427 6.808 6.808 0 0 1 2.245-1.623c.87-.394 1.82-.592 2.852-.592.667 0 1.263.076 1.79.228.525.152.985.34 1.38.562.394.223.732.465 1.015.727.284.264.516.516.699.76h.09v-8.7h3.64v21.41z"/>
    <path d="M61.637 27.838c0 .566.086 1.132.257 1.698.172.567.43 1.073.774 1.517.344.445.778.81 1.305 1.092.525.283 1.142.425 1.85.425.667 0 1.263-.137 1.79-.41a4.364 4.364 0 0 0 1.35-1.077 4.72 4.72 0 0 0 .849-1.501 5.142 5.142 0 0 0 .288-1.684 5.29 5.29 0 0 0-.288-1.698 4.597 4.597 0 0 0-2.2-2.609c-.526-.283-1.122-.424-1.79-.424-.707 0-1.324.136-1.85.409-.526.273-.96.632-1.304 1.077a4.693 4.693 0 0 0-.774 1.501 5.684 5.684 0 0 0-.257 1.684zm11.981 7.34H70.16v-2.183h-.06a4.96 4.96 0 0 1-2.108 1.94 6.45 6.45 0 0 1-2.897.668c-1.113 0-2.108-.207-2.988-.622a6.85 6.85 0 0 1-2.244-1.668 7.409 7.409 0 0 1-1.426-2.457 8.953 8.953 0 0 1-.501-3.018c0-1.072.172-2.073.516-3.003a7.34 7.34 0 0 1 1.455-2.427 6.806 6.806 0 0 1 2.245-1.623c.87-.394 1.82-.592 2.852-.592.667 0 1.263.076 1.79.228.525.152.985.34 1.379.562.395.223.734.465 1.017.727a5.8 5.8 0 0 1 .697.76h.091v-8.7h3.64v21.41z"/>
    <path d="M76.762 35.179h3.64v-14.56h-3.64v14.56zm-.515-19.505c0-.586.217-1.096.652-1.532.434-.435.986-.652 1.653-.652s1.229.208 1.683.622c.455.415.682.935.682 1.562s-.227 1.148-.682 1.562c-.454.415-1.016.622-1.683.622s-1.219-.217-1.653-.652c-.435-.434-.652-.945-.652-1.532z"/>
    <path d="M93.737 26.443c0-.466-.066-.91-.197-1.335a3.07 3.07 0 0 0-.622-1.123 3.044 3.044 0 0 0-1.077-.773c-.435-.192-.946-.288-1.532-.288-1.092 0-2.017.329-2.775.986-.759.657-1.178 1.501-1.259 2.533h7.462zm3.64 1.637v.486c0 .162-.01.323-.03.485H86.274a3.595 3.595 0 0 0 1.335 2.563 4.59 4.59 0 0 0 1.304.743c.486.182.991.273 1.517.273.91 0 1.678-.167 2.305-.5a4.33 4.33 0 0 0 1.547-1.38l2.427 1.941c-1.437 1.941-3.52 2.912-6.249 2.912-1.133 0-2.174-.177-3.124-.53a7.363 7.363 0 0 1-2.472-1.502 6.766 6.766 0 0 1-1.639-2.382c-.394-.94-.59-2.006-.59-3.2 0-1.172.196-2.24.59-3.2a7.302 7.302 0 0 1 1.623-2.457 7.263 7.263 0 0 1 2.442-1.577 8.17 8.17 0 0 1 3.049-.562c1.01 0 1.946.167 2.805.501.86.334 1.603.83 2.23 1.487.627.657 1.117 1.476 1.471 2.456.354.981.531 2.129.531 3.443z"/>
    <polyline points="102.294546 13.7027732 108.270468 13.7027732 113.851848 28.9597881 113.942312 28.9597881 119.463576 13.7027732 125.469264 13.7027732 125.469264 35.1785056 121.677918 35.1785056 121.677918 17.9190112 121.617219 17.9190112 115.095007 35.1785056 112.426007 35.1785056 105.994844 17.9190112 105.934729 17.9190112 105.934729 35.1785056 102.294546 35.1785056 102.294546 13.7027732"/>
    <path d="M137.652 28.535h-.82c-.586 0-1.203.026-1.85.076a8.063 8.063 0 0 0-1.79.334c-.545.172-1 .415-1.364.728-.364.314-.546.743-.546 1.29 0 .343.076.631.227.864.152.233.35.42.592.56.242.142.516.243.818.304.304.06.607.091.911.091 1.253 0 2.204-.334 2.851-1 .647-.669.971-1.578.971-2.731v-.516zm.06 4.793h-.09c-.364.648-.951 1.178-1.76 1.593-.809.414-1.729.622-2.76.622a7.913 7.913 0 0 1-1.835-.228 5.463 5.463 0 0 1-1.76-.758 4.393 4.393 0 0 1-1.334-1.396c-.355-.576-.531-1.289-.531-2.139 0-1.092.308-1.96.925-2.608.617-.647 1.41-1.142 2.38-1.486.972-.344 2.049-.571 3.232-.683 1.182-.11 2.34-.167 3.473-.167v-.364c0-.91-.33-1.582-.986-2.017-.657-.435-1.441-.652-2.351-.652a5.27 5.27 0 0 0-2.214.485c-.708.324-1.295.718-1.76 1.183l-1.88-2.214a8.227 8.227 0 0 1 2.866-1.729 9.772 9.772 0 0 1 3.291-.577c1.294 0 2.361.183 3.2.547.84.364 1.502.839 1.988 1.426a5.107 5.107 0 0 1 1.015 1.971 8.49 8.49 0 0 1 .289 2.184v8.858h-3.398v-1.851z"/>
    <g transform="translate(18.677)">
      <path d="M135.282 24.653c-.283-.405-.708-.743-1.274-1.017a3.947 3.947 0 0 0-1.729-.41c-.667 0-1.254.138-1.76.41a3.825 3.825 0 0 0-1.258 1.077 4.624 4.624 0 0 0-.743 1.502 5.963 5.963 0 0 0-.243 1.683c0 .567.086 1.128.258 1.684.171.556.43 1.057.774 1.501.343.445.773.804 1.288 1.077.516.273 1.118.41 1.806.41.565 0 1.132-.111 1.698-.334.566-.222 1.02-.546 1.365-.97l2.275 2.305c-.607.647-1.38 1.148-2.32 1.501-.94.354-1.957.53-3.049.53a8.974 8.974 0 0 1-3.048-.515 7.22 7.22 0 0 1-2.518-1.516 7.191 7.191 0 0 1-1.699-2.427c-.414-.95-.622-2.032-.622-3.246 0-1.172.208-2.234.622-3.185a7.29 7.29 0 0 1 1.684-2.426 7.517 7.517 0 0 1 2.472-1.547 8.279 8.279 0 0 1 3.018-.547c1.072 0 2.108.203 3.11.607 1 .406 1.794.961 2.38 1.67l-2.487 2.183" mask="url(#b)"/>
      <polyline points="28.7070706 13.7710595 28.7070706 9.23031599 14.5525576 0.0198438662 0.398628253 9.23031599 0.398628253 13.7710595 14.5525576 4.52031599 28.7070706 13.7710595"/>
      <polyline points="24.8246766 5.5370223 24.8246766 0.0198438662 20.9416989 0.0198438662 20.9416989 3.01043123 24.8246766 5.5370223"/>
    </g>
    <polyline points="13.2066766 50.0304721 13.2323569 50.0304721 15.3212156 42.9339554 16.6921933 42.9339554 18.7687955 50.0304721 18.7938922 50.0304721 20.756684 42.9339554 22.0774684 42.9339554 19.4604126 51.842684 18.1647249 51.842684 16.0005762 44.6831338 15.9748959 44.6831338 13.8107472 51.842684 12.5150595 51.842684 9.89800372 42.9339554 11.2444684 42.9339554 13.2066766 50.0304721"/>
    <path d="M26.645 48.332a2.278 2.278 0 0 0-.119-.66 1.519 1.519 0 0 0-.315-.535 1.48 1.48 0 0 0-.516-.36 1.824 1.824 0 0 0-.723-.131 1.91 1.91 0 0 0-1.29.49c-.164.151-.298.33-.402.536a1.681 1.681 0 0 0-.183.66h3.548zm1.208.478v.201c0 .068-.004.135-.013.202h-4.743a1.84 1.84 0 0 0 .591 1.28 1.978 1.978 0 0 0 1.346.519c.403 0 .751-.087 1.045-.264.293-.176.524-.39.692-.642l.83.667a2.979 2.979 0 0 1-1.126.934c-.432.2-.912.3-1.44.3-.454 0-.873-.076-1.259-.227a2.894 2.894 0 0 1-.993-.635 2.956 2.956 0 0 1-.655-.988 3.332 3.332 0 0 1-.239-1.284c0-.461.078-.886.233-1.277a2.93 2.93 0 0 1 .65-1c.277-.277.605-.493.983-.648a3.19 3.19 0 0 1 1.223-.233c.437 0 .834.071 1.192.214.357.143.66.348.908.616.248.269.439.594.573.976.134.38.202.811.202 1.29z"/>
    <path d="M33.887 46.048c.331-.222.724-.333 1.177-.333.402 0 .765.093 1.088.277.323.184.576.49.761.918.201-.385.483-.68.843-.887a2.351 2.351 0 0 1 1.183-.308c.386 0 .717.065.994.195a2.009 2.009 0 0 1 1.1 1.29c.089.293.133.608.133.944v3.699h-1.182v-3.31a3.73 3.73 0 0 0-.063-.691 1.767 1.767 0 0 0-.215-.58 1.167 1.167 0 0 0-.402-.402c-.168-.1-.382-.151-.642-.151-.268 0-.499.057-.692.17-.193.113-.35.26-.472.44a1.86 1.86 0 0 0-.264.61 2.923 2.923 0 0 0-.082.693v3.22H35.97v-3.547c0-.235-.022-.45-.064-.642a1.317 1.317 0 0 0-.213-.498 1.069 1.069 0 0 0-.39-.327 1.325 1.325 0 0 0-.592-.119c-.436 0-.799.179-1.088.535-.29.356-.434.832-.434 1.428v3.17h-1.183v-4.68a18.368 18.368 0 0 0-.05-1.284h1.12a11.245 11.245 0 0 1 .05.981h.038a2.02 2.02 0 0 1 .723-.81"/>
    <path d="M46.275 49c-.294 0-.598.011-.913.037-.314.025-.6.075-.856.15a1.611 1.611 0 0 0-.635.34.773.773 0 0 0-.251.604c0 .177.035.324.107.441a.894.894 0 0 0 .283.29c.117.075.247.127.39.157.142.029.289.044.44.044.554 0 .98-.166 1.277-.497.298-.332.447-.75.447-1.252v-.315h-.29zm.29-1.02c0-.445-.135-.774-.403-.988-.27-.214-.626-.321-1.07-.321-.336 0-.652.065-.95.195-.298.13-.547.296-.749.497l-.629-.755a3.176 3.176 0 0 1 1.076-.654 3.858 3.858 0 0 1 1.365-.239 3.1 3.1 0 0 1 1.114.182c.314.122.572.288.773.497.202.21.352.458.453.743.1.285.15.592.15.918v2.605c0 .202.007.413.02.635.012.223.036.405.069.548h-1.07a3.72 3.72 0 0 1-.1-.856h-.038a2.292 2.292 0 0 1-.824.742c-.331.177-.723.265-1.176.265-.235 0-.48-.032-.736-.095a2.121 2.121 0 0 1-.698-.308 1.749 1.749 0 0 1-.523-.566c-.138-.235-.207-.525-.207-.868 0-.453.121-.812.365-1.076.243-.265.561-.466.956-.604a5.378 5.378 0 0 1 1.334-.27c.495-.042.994-.063 1.497-.063v-.164z"/>
    <polyline points="50.5645056 48.4703941 50.6024424 48.4703941 53.1062714 45.8784349 54.6920297 45.8784349 51.8987138 48.5836208 54.9313234 51.842684 53.2953717 51.842684 50.6024424 48.7476245 50.5645056 48.7476245 50.5645056 51.842684 49.3820446 51.842684 49.3820446 42.3304684 50.5645056 42.3304684 50.5645056 48.4703941"/>
    <path d="M59.813 48.332a2.259 2.259 0 0 0-.12-.66 1.51 1.51 0 0 0-.314-.535 1.478 1.478 0 0 0-.516-.36 1.824 1.824 0 0 0-.723-.131 1.91 1.91 0 0 0-1.29.49c-.164.151-.298.33-.403.536a1.701 1.701 0 0 0-.183.66h3.549zm1.208.478v.201c0 .068-.005.135-.013.202h-4.744a1.809 1.809 0 0 0 .592 1.28 1.976 1.976 0 0 0 1.346.519c.403 0 .751-.087 1.044-.264.294-.176.525-.39.693-.642l.83.667a2.979 2.979 0 0 1-1.126.934c-.432.2-.912.3-1.44.3-.454 0-.873-.076-1.259-.227a2.897 2.897 0 0 1-.994-.635 2.964 2.964 0 0 1-.654-.988 3.332 3.332 0 0 1-.24-1.284c0-.461.078-.886.234-1.277a2.93 2.93 0 0 1 .65-1c.277-.277.605-.493.983-.648a3.19 3.19 0 0 1 1.223-.233c.437 0 .834.071 1.192.214.356.143.66.348.907.616.248.269.44.594.574.976.134.38.202.811.202 1.29z"/>
    <path d="M66.406 46.784c.143-.293.386-.545.73-.754.344-.21.73-.315 1.157-.315.387 0 .718.065.995.195.276.13.507.304.692.522.184.219.32.474.409.768.088.293.132.608.132.944v3.699h-1.182v-3.305c0-.244-.02-.476-.057-.694a1.684 1.684 0 0 0-.208-.58 1.147 1.147 0 0 0-.41-.404c-.171-.1-.396-.151-.672-.151-.47 0-.856.18-1.158.536-.302.358-.453.835-.453 1.431v3.167h-1.183V42.33h1.183v4.454h.025"/>
    <path d="M77.013 48.854c0-.284-.044-.556-.132-.815a2.06 2.06 0 0 0-.385-.684 1.848 1.848 0 0 0-.625-.47 1.98 1.98 0 0 0-.852-.176c-.32 0-.604.059-.852.176a1.848 1.848 0 0 0-.624.47 2.05 2.05 0 0 0-.386.684c-.088.26-.132.53-.132.815 0 .285.044.557.132.816.088.26.217.49.386.69.168.2.376.36.624.476.248.118.532.176.852.176.32 0 .604-.058.852-.176.248-.116.457-.276.625-.476.168-.2.296-.43.385-.69.088-.26.132-.53.132-.816zm1.234-.006c0 .462-.082.885-.246 1.27a3.01 3.01 0 0 1-.68 1.002c-.289.28-.63.498-1.025.653a3.437 3.437 0 0 1-1.27.233c-.454 0-.877-.078-1.272-.233a2.994 2.994 0 0 1-1.019-.653 3.063 3.063 0 0 1-.673-1.001 3.211 3.211 0 0 1-.245-1.271c0-.461.081-.883.245-1.264.164-.382.388-.712.673-.988a3.042 3.042 0 0 1 1.02-.648 3.438 3.438 0 0 1 1.27-.233c.453 0 .877.078 1.271.233.395.155.736.371 1.026.648.29.276.516.606.679.988.164.381.246.803.246 1.264z"/>
    <path d="M81.45 46.048c.33-.222.723-.333 1.176-.333.402 0 .765.093 1.088.277.323.184.576.49.761.918a2.13 2.13 0 0 1 .843-.887 2.35 2.35 0 0 1 1.183-.308c.386 0 .717.065.994.195s.507.304.692.522c.184.219.32.474.409.768.088.293.132.608.132.944v3.699h-1.183v-3.31c0-.243-.02-.473-.063-.691a1.767 1.767 0 0 0-.213-.58 1.168 1.168 0 0 0-.403-.402c-.168-.1-.382-.151-.642-.151a1.343 1.343 0 0 0-1.163.61c-.123.18-.211.384-.265.61a2.923 2.923 0 0 0-.081.693v3.22h-1.183v-3.547c0-.235-.021-.45-.063-.642a1.309 1.309 0 0 0-.215-.498c-.1-.138-.23-.246-.39-.327a1.327 1.327 0 0 0-.59-.119c-.437 0-.8.179-1.09.535-.289.356-.433.832-.433 1.428v3.17h-1.183v-4.68a20.086 20.086 0 0 0-.05-1.284h1.12a10.323 10.323 0 0 1 .05.981h.037c.152-.318.393-.588.724-.81"/>
    <path d="M94.78 48.332a2.259 2.259 0 0 0-.119-.66 1.51 1.51 0 0 0-.315-.535 1.483 1.483 0 0 0-.515-.36 1.829 1.829 0 0 0-.724-.131 1.911 1.911 0 0 0-1.29.49 1.88 1.88 0 0 0-.402.536 1.681 1.681 0 0 0-.183.66h3.548zm1.208.478v.201c0 .068-.004.135-.013.202h-4.743c.008.25.065.485.17.706.105.22.245.413.421.574a1.978 1.978 0 0 0 1.346.519c.404 0 .751-.087 1.045-.264.294-.176.524-.39.692-.642l.83.667a2.972 2.972 0 0 1-1.126.934c-.432.2-.911.3-1.44.3-.454 0-.873-.076-1.258-.227a2.9 2.9 0 0 1-.994-.635 2.965 2.965 0 0 1-.655-.988 3.332 3.332 0 0 1-.239-1.284c0-.461.078-.886.233-1.277a2.93 2.93 0 0 1 .65-1c.277-.277.605-.493.984-.648a3.188 3.188 0 0 1 1.222-.233c.437 0 .834.071 1.192.214.357.143.66.348.908.616.248.269.44.594.573.976.135.38.202.811.202 1.29z"/>
    <path d="M105.249 48.848c0-.277-.041-.545-.126-.805-.084-.26-.21-.49-.377-.692a1.822 1.822 0 0 0-.623-.479 2 2 0 0 0-.862-.176 1.909 1.909 0 0 0-1.46.655 2.201 2.201 0 0 0-.408.692c-.096.26-.145.533-.145.818 0 .285.049.558.145.818.096.26.232.488.408.685a1.908 1.908 0 0 0 1.46.648c.327 0 .615-.06.862-.182s.455-.284.623-.484c.168-.202.293-.432.377-.693.085-.26.126-.528.126-.805zm-3.926 6.014h-1.182v-8.984h1.157v.931h.038c.192-.318.475-.58.847-.786.372-.205.805-.308 1.3-.308.443 0 .846.08 1.21.239.365.16.679.382.942.667a3 3 0 0 1 .608 1c.143.382.214.791.214 1.227 0 .436-.071.847-.214 1.233a3.039 3.039 0 0 1-.602 1.007c-.26.285-.573.51-.941.673a3.03 3.03 0 0 1-1.243.245c-.426 0-.828-.092-1.204-.277a2.182 2.182 0 0 1-.892-.78h-.038v3.913z"/>
    <path d="M112.61 48.854c0-.284-.045-.556-.133-.815a2.06 2.06 0 0 0-.385-.684 1.848 1.848 0 0 0-.624-.47 1.982 1.982 0 0 0-.853-.176c-.32 0-.604.059-.852.176a1.856 1.856 0 0 0-.625.47 2.06 2.06 0 0 0-.385.684c-.088.26-.132.53-.132.815 0 .285.044.557.132.816.088.26.217.49.385.69.169.2.377.36.625.476.248.118.533.176.852.176.32 0 .604-.058.853-.176.248-.116.456-.276.624-.476a2.1 2.1 0 0 0 .385-.69c.088-.26.133-.53.133-.816zm1.233-.006c0 .462-.082.885-.246 1.27-.163.387-.39.72-.679 1.002-.29.28-.631.498-1.025.653a3.44 3.44 0 0 1-1.272.233c-.453 0-.876-.078-1.27-.233a3.002 3.002 0 0 1-1.02-.653 3.072 3.072 0 0 1-.673-1.001 3.221 3.221 0 0 1-.245-1.271c0-.461.082-.883.245-1.264.164-.382.388-.712.673-.988a3.05 3.05 0 0 1 1.02-.648 3.437 3.437 0 0 1 1.27-.233c.453 0 .877.078 1.272.233.394.155.736.371 1.025.648.29.276.516.606.68.988.163.381.245.803.245 1.264z"/>
    <path d="M118.385 47.389a1.62 1.62 0 0 0-1.384-.743 1.93 1.93 0 0 0-.403.044c-.134.03-.253.076-.358.138a.767.767 0 0 0-.252.24.645.645 0 0 0-.095.358c0 .252.114.439.34.56.227.122.566.233 1.02.334.285.067.549.146.792.239.243.092.455.207.635.346.181.138.321.304.422.496.1.194.15.42.15.68 0 .353-.066.65-.2.894a1.751 1.751 0 0 1-.535.597 2.194 2.194 0 0 1-.761.334c-.286.067-.58.1-.881.1-.453 0-.895-.088-1.328-.264a2.597 2.597 0 0 1-1.075-.805l.843-.718c.159.236.379.432.66.592.281.16.59.24.925.24.15 0 .296-.015.434-.045.139-.03.265-.078.378-.144a.777.777 0 0 0 .27-.265.787.787 0 0 0 .101-.415c0-.277-.132-.482-.396-.617-.264-.134-.653-.26-1.164-.377a7.206 7.206 0 0 1-.61-.183 2.036 2.036 0 0 1-.56-.295 1.475 1.475 0 0 1-.41-.472 1.413 1.413 0 0 1-.157-.699c0-.318.065-.593.195-.824.13-.23.3-.42.51-.566.21-.146.449-.256.717-.327a3.25 3.25 0 0 1 .83-.107c.428 0 .841.083 1.24.252.398.168.706.411.925.73l-.818.692"/>
    <path d="M123.657 47.389a1.618 1.618 0 0 0-1.384-.743 1.93 1.93 0 0 0-.403.044c-.134.03-.253.076-.358.138a.767.767 0 0 0-.252.24.645.645 0 0 0-.095.358c0 .252.114.439.34.56.227.122.566.233 1.02.334.285.067.549.146.792.239a2.5 2.5 0 0 1 .635.346c.18.138.321.304.422.496.1.194.15.42.15.68 0 .353-.066.65-.2.894a1.757 1.757 0 0 1-.535.597 2.192 2.192 0 0 1-.762.334 3.83 3.83 0 0 1-.88.1c-.453 0-.896-.088-1.328-.264a2.603 2.603 0 0 1-1.076-.805l.844-.718c.159.236.379.432.66.592.282.16.59.24.925.24.15 0 .296-.015.434-.045s.264-.078.378-.144a.772.772 0 0 0 .27-.265.781.781 0 0 0 .1-.415c0-.277-.131-.482-.396-.617-.264-.134-.651-.26-1.163-.377a7.206 7.206 0 0 1-.61-.183 2.028 2.028 0 0 1-.56-.295 1.484 1.484 0 0 1-.41-.472 1.42 1.42 0 0 1-.157-.699c0-.318.065-.593.195-.824.13-.23.3-.42.51-.566.21-.146.449-.256.717-.327a3.25 3.25 0 0 1 .83-.107c.428 0 .841.083 1.24.252.398.168.706.411.925.73l-.818.692"/>
    <path d="M125.72 51.843h1.184v-5.965h-1.184v5.965zm1.372-8.116a.707.707 0 0 1-.23.541.79.79 0 0 1-.556.214.753.753 0 0 1-.549-.22.72.72 0 0 1-.225-.535c0-.218.074-.4.225-.547a.755.755 0 0 1 .549-.22c.216 0 .401.073.555.22a.725.725 0 0 1 .231.547z"/>
    <path d="M133.786 48.854c0-.276-.042-.543-.126-.803a2.05 2.05 0 0 0-.378-.69c-.168-.2-.375-.36-.622-.476a2.003 2.003 0 0 0-.862-.176 1.907 1.907 0 0 0-1.46.652 2.198 2.198 0 0 0-.409.69c-.096.26-.144.531-.144.816 0 .285.048.556.144.816.096.259.233.486.409.683.176.197.388.354.636.47.247.118.521.176.824.176.327 0 .614-.06.862-.182a1.86 1.86 0 0 0 .622-.483c.168-.2.294-.43.378-.69.084-.26.126-.527.126-.803zm-3.963 2.045v.944h-1.146V42.33h1.183v4.441h.038a2.5 2.5 0 0 1 .841-.748c.359-.205.786-.308 1.28-.308.443 0 .847.08 1.211.239.364.16.678.382.941.667.264.285.467.618.61 1 .142.382.212.791.212 1.227 0 .436-.07.847-.213 1.233a3.049 3.049 0 0 1-.602 1.007c-.26.285-.573.51-.942.673a3.033 3.033 0 0 1-1.242.245c-.427 0-.833-.094-1.218-.283a2.282 2.282 0 0 1-.928-.824h-.025z"/>
    <polygon points="136.238647 51.842684 137.421108 51.842684 137.421108 42.3304684 136.238647 42.3304684"/>
    <path d="M143.41 48.332a2.24 2.24 0 0 0-.119-.66 1.51 1.51 0 0 0-.314-.535 1.478 1.478 0 0 0-.516-.36 1.826 1.826 0 0 0-.723-.131 1.914 1.914 0 0 0-1.29.49c-.164.151-.298.33-.403.536a1.701 1.701 0 0 0-.183.66h3.548zm1.21.478v.201c0 .068-.005.135-.014.202h-4.744c.009.25.065.485.17.706.105.22.245.413.422.574a1.974 1.974 0 0 0 1.346.519c.403 0 .75-.087 1.044-.264.294-.176.525-.39.693-.642l.83.667a2.979 2.979 0 0 1-1.126.934c-.432.2-.912.3-1.44.3a3.42 3.42 0 0 1-1.26-.227 2.9 2.9 0 0 1-.993-.635 2.955 2.955 0 0 1-.654-.988 3.332 3.332 0 0 1-.24-1.284c0-.461.078-.886.234-1.277a2.93 2.93 0 0 1 .649-1c.278-.277.606-.493.984-.648a3.188 3.188 0 0 1 1.223-.233c.437 0 .834.071 1.191.214.358.143.66.348.909.616.247.269.438.594.573.976.134.38.202.811.202 1.29z"/>
    <path d="M147.405 45.563h.355c.299 0 .573-.015.573-.36 0-.29-.25-.334-.479-.334h-.449v.694zm-.34-.969h.844c.519 0 .764.205.764.624 0 .394-.25.559-.574.594l.623.963h-.364l-.594-.939h-.359v.939h-.34v-2.18zm.73 2.685c.862 0 1.531-.689 1.531-1.602 0-.893-.669-1.582-1.531-1.582-.874 0-1.542.69-1.542 1.582 0 .913.668 1.602 1.542 1.602zm0-3.458c1.017 0 1.87.803 1.87 1.856a1.86 1.86 0 0 1-1.87 1.876 1.866 1.866 0 0 1-1.881-1.876c0-1.053.858-1.856 1.88-1.856z"/>
  </g>
</svg>