<svg height="18x" width="18" xmlns="http://www.w3.org/2000/svg" x="0px" y="0px" viewBox="0 0 100 100" fill="#00a6e2"><path d="M43.749,64.299c-1.132,0-2.264-0.432-3.127-1.295L24.229,46.61c-1.728-1.728-1.728-4.527,0-6.255 c1.725-1.726,4.528-1.726,6.254,0l13.267,13.267L87.451,9.921c1.725-1.726,4.528-1.726,6.254,0c1.728,1.728,1.728,4.527,0,6.255 L46.876,63.004C46.014,63.867,44.881,64.299,43.749,64.299z"/><path d="M81.29,91.374H9.423C6.98,91.374,5,89.394,5,86.951V15.084c0-2.442,1.98-4.423,4.423-4.423h49.544 c2.442,0,4.423,1.98,4.423,4.423s-1.98,4.423-4.423,4.423H13.845v63.022h63.022V51.018c0-2.442,1.98-4.423,4.423-4.423 s4.423,1.98,4.423,4.423v35.933C85.712,89.394,83.732,91.374,81.29,91.374z"/></svg>