<?xml version="1.0" encoding="UTF-8"?>
<svg width="185px" height="185px" viewBox="0 0 185 185" version="1.1" xmlns="http://www.w3.org/2000/svg" xmlns:xlink="http://www.w3.org/1999/xlink">
    <!-- Generator: sketchtool 51.2 (57519) - http://www.bohemiancoding.com/sketch -->
    <title>F93BFED0-BB66-448A-8BEF-566124B809BE</title>
    <desc>Created with sketchtool.</desc>
    <defs></defs>
    <g id="Landing" stroke="none" stroke-width="1" fill="none" fill-rule="evenodd">
        <g id="SF-DTS---Home" transform="translate(-626.000000, -921.000000)">
            <g id="Intro-and-3-markets" transform="translate(0.000000, 707.000000)">
                <g id="Our-Markets" transform="translate(130.000000, 50.000000)">
                    <g id="card2" transform="translate(400.000000, 157.000000)">
                        <g id="D2S_RuralHousing-v2" transform="translate(96.000000, 7.000000)">
                            <circle id="Oval-2" fill="#FFFFFF" cx="92.5" cy="92.5" r="92.5"></circle>
                            <path d="M104.509722,102.462741 L120.678432,102.462741 L120.678432,93.3244345 L104.509722,93.3244345 L104.509722,102.462741 Z M119.459991,101.2443 L113.623659,101.2443 L113.623659,94.5428753 L119.459991,94.5428753 L119.459991,101.2443 Z M105.728163,94.5428753 L112.405219,94.5428753 L112.405219,101.2443 L105.728163,101.2443 L105.728163,94.5428753 Z" id="Shape" fill="#95BB4D" fill-rule="nonzero"></path>
                            <polygon id="Shape" fill="#95BB4D" fill-rule="nonzero" points="94.9327764 75.9129144 111.942211 83.2235596 112.417403 82.1147784 94.9327764 74.5848138 77.4481499 82.1147784 77.9233418 83.2235596"></polygon>
                            <path d="M69.4795466,93.3244345 L69.4795466,102.462741 L85.648257,102.462741 L85.648257,93.3244345 L69.4795466,93.3244345 Z M70.6979875,94.5428753 L77.3750434,94.5428753 L77.3750434,101.2443 L70.6979875,101.2443 L70.6979875,94.5428753 Z M84.4298161,101.2443 L78.5934843,101.2443 L78.5934843,94.5428753 L84.4298161,94.5428753 L84.4298161,101.2443 Z" id="Shape" fill="#95BB4D" fill-rule="nonzero"></path>
                            <circle id="Oval" fill="#95BB4D" fill-rule="nonzero" cx="97.8326657" cy="102.206868" r="1"></circle>
                            <rect id="Rectangle-path" fill="#95BB4D" fill-rule="nonzero" x="67.8468358" y="87.5855779" width="54.9029457" height="1.21844087"></rect>
                            <path d="M66.3116003,68.2976589 C66.3116003,69.7646383 67.5008221,70.95386 68.9678014,70.95386 C70.4347808,70.95386 71.6240025,69.7646383 71.6240025,68.2976589 C71.6240025,66.8306796 70.4347808,65.6414578 68.9678014,65.6414578 C67.5008221,65.6414578 66.3116003,66.8306796 66.3116003,68.2976589 Z M68.9678014,66.8598987 C69.7618545,66.8598987 70.4055617,67.5036059 70.4055617,68.2976589 C70.4055617,69.091712 69.7618545,69.7354192 68.9678014,69.7354192 C68.1737484,69.7354192 67.5300412,69.091712 67.5300412,68.2976589 C67.5263413,67.9066663 67.6834021,67.5313169 67.9644571,67.2594769 C68.2455121,66.9876368 68.6258869,66.8431714 69.0165391,66.8598987 L68.9678014,66.8598987 Z" id="Shape" fill="#95BB4D" fill-rule="nonzero"></path>
                            <path d="M65.8120396,65.4952449 C66.6372346,65.5001716 67.383693,65.0062244 67.7017615,64.244776 C68.01983,63.4833277 67.8465174,62.6051781 67.2630059,62.0216667 C66.6794945,61.4381553 65.801345,61.2648426 65.0398966,61.5829112 C64.2784483,61.9009797 63.784501,62.647438 63.7894277,63.4726331 C63.7960804,64.5869235 64.6977491,65.4885923 65.8120396,65.4952449 Z M65.8120396,62.6562777 C66.1432885,62.6513331 66.4446804,62.8470661 66.5748847,63.1516923 C66.705089,63.4563185 66.6382847,63.8094271 66.4057982,64.0454362 C66.1733116,64.2814452 65.8212475,64.3535515 65.5146979,64.2279425 C65.2081483,64.1023335 65.0079055,63.8039189 65.0078686,63.4726331 C65.0078189,63.0264882 65.3659444,62.6629366 65.8120396,62.6562777 Z" id="Shape" fill="#95BB4D" fill-rule="nonzero"></path>
                            <path d="M92.2643909,15.1370837 C49.6764708,15.1370842 15.1515118,49.6602256 15.1492692,92.2481457 C15.1470265,134.836066 49.6683494,169.362843 92.2562692,169.367329 C134.844189,169.371815 169.372785,134.85231 169.379514,92.2643909 C169.339223,49.6896118 134.839163,15.1841012 92.2643909,15.1370837 Z M92.2643909,16.3555246 C115.831884,16.3516219 138.063495,27.2979188 152.430543,45.979854 C166.797591,64.6617892 171.669122,88.9585817 165.614531,111.735076 L153.222988,111.735076 L153.222988,103.81521 L155.988849,101.04935 L155.123755,100.184257 L153.222988,102.097209 L153.222988,97.3452893 L152.004547,97.3452893 L152.004547,100.561973 L150.700815,99.2704259 L149.847907,100.123335 L152.004547,102.279975 L152.004547,111.74726 L139.064705,111.74726 L139.064705,81.7005085 L148.105536,72.6596773 L147.240443,71.7945842 L139.064705,79.9703225 L139.064705,58.9156642 L137.846264,58.9156642 L137.846264,72.5256488 L131.571293,66.3116003 L130.718385,67.1645089 L137.846264,74.3045724 L137.846264,111.74726 L133.228373,111.74726 C134.251515,110.777421 134.60027,109.292211 134.115733,107.968341 C133.631197,106.64447 132.406096,105.735292 130.998626,105.655056 C130.531488,103.920174 129.109863,102.607541 127.343304,102.279975 L127.343304,84.2104967 L95.0911737,70.3690084 L75.2184031,78.9833854 L75.2184031,72.891181 L67.0914025,72.891181 L67.0914025,82.5168639 L63.1314696,84.2348656 L63.1314696,102.011918 C61.9580856,100.554348 60.1383275,99.7734406 58.2734705,99.927218 C56.4086135,100.080996 54.7413548,101.149445 53.8225814,102.779536 C53.5735183,102.732238 53.3206587,102.707768 53.067148,102.706429 C50.9135876,102.70588 48.9912805,104.056768 48.2621178,106.083131 C47.532955,108.109493 48.1537675,110.375493 49.8139109,111.74726 L44.9401474,111.74726 L44.9401474,90.509836 L52.2507927,83.1991908 L51.397884,82.3340978 L44.9888851,88.77965 L44.9888851,74.5117074 L43.7704442,74.5117074 L43.7704442,84.8806392 L38.8966807,80.0068757 L38.0437721,80.9328908 L43.7704442,86.6595629 L43.7704442,111.74726 L39.6886673,111.74726 L33.2918527,111.74726 L33.2918527,103.218174 L36.2648484,100.232994 L35.4119398,99.3800856 L33.2918527,101.475804 L33.2918527,96.2730614 L32.0734118,96.2730614 L32.0734118,99.8309087 L30.6112828,98.3687797 L29.7583742,99.2095039 L32.0734118,101.536726 L32.0734118,111.735076 L26.3101865,111.735076 L18.9995413,111.735076 C12.9487878,88.97306 17.8101057,64.6917731 32.1575249,46.0136428 C46.5049441,27.3355125 68.7118861,16.3780935 92.2643909,16.3555246 Z M89.8275092,139.003783 L124.711471,160.862612 C119.974065,163.103797 115.016899,164.84738 109.919599,166.065355 L80.9328908,147.947139 L89.8275092,139.003783 Z M90.716971,138.126505 L98.3565953,130.486881 L136.128262,154.136818 C132.918377,156.423762 129.537391,158.460501 126.015203,160.229023 L90.716971,138.126505 Z M64.3620949,162.824302 C60.9587329,161.46949 57.6564799,159.873333 54.4805395,158.048014 L99.5628517,112.965701 L114.184142,112.965701 L64.3620949,162.824302 Z M70.3811928,158.523206 L85.2096182,167.819909 C78.4986442,167.200094 71.9009765,165.68386 65.5927202,163.311678 L70.3811928,158.523206 Z M84.5882134,111.722892 L70.1131358,111.722892 L67.0792181,111.722892 C67.9544397,110.911446 68.453142,109.772816 68.4560563,108.579314 C68.4532188,106.273707 66.6518985,104.370829 64.3499105,104.241665 L64.3499105,85.0146677 L95.0911737,71.697109 L126.015203,85.0146677 L126.015203,102.255606 C124.565825,102.413429 123.272854,103.237867 122.518278,104.485353 C122.344073,104.467845 122.168553,104.467845 121.994348,104.485353 C119.69294,104.485353 117.82728,106.351013 117.82728,108.652421 C117.830022,109.864006 118.364574,111.013293 119.289409,111.795998 L115.47569,111.795998 L100.683817,111.795998 L100.683817,91.314007 L89.4619769,91.314007 L89.4619769,111.74726 L84.5882134,111.74726 L84.5882134,111.722892 Z M26.7244564,112.941332 L38.3849355,112.941332 L24.6774757,126.709714 C23.3245056,124.091964 22.1322862,121.394212 21.107444,118.631451 L26.7244564,112.941332 Z M20.632252,117.339904 C20.1205069,115.889959 19.6574993,114.42783 19.2432294,112.941332 L25.0186392,112.941332 L20.632252,117.339904 Z M40.127306,112.941332 L53.6519997,112.941332 L30.4285166,136.189184 C28.5261128,133.527064 26.8003463,130.743045 25.2623273,127.855049 L40.127306,112.941332 Z M63.1436541,104.826516 C63.1436541,104.826516 63.1436541,104.911807 63.1436541,104.960545 L63.2289449,105.533212 L63.947825,105.460106 L64.0818535,105.460106 C65.6689498,105.490915 66.9819224,106.704421 67.1374107,108.284183 C67.2928991,109.863945 66.2417085,111.310144 64.691074,111.649785 C64.5411985,111.665271 64.3901263,111.665271 64.2402508,111.649785 L53.0427792,111.649785 C52.8970039,111.665783 52.7499158,111.665783 52.6041405,111.649785 C50.5490783,111.419108 49.0344615,109.619685 49.1577994,107.555398 C49.2811373,105.491111 50.9992392,103.884837 53.067148,103.900501 C53.3840618,103.90815 53.6989687,103.953137 54.0053475,104.03453 L54.4805395,104.156374 L54.6998588,103.705551 C55.501811,101.928774 57.3673897,100.881355 59.3018827,101.121769 C61.2363758,101.362183 62.7888222,102.834385 63.1314696,104.75341 L63.1314696,104.826516 L63.1436541,104.826516 Z M55.3456325,112.965701 L68.7484821,112.965701 L37.3005232,144.511135 C35.0998617,142.204212 33.0448504,139.762614 31.1473968,137.20049 L55.3456325,112.965701 Z M73.9999622,79.507315 L68.3098434,81.9441967 L68.3098434,74.0852531 L73.9999622,74.0852531 L73.9999622,79.507315 Z M131.266683,111.503572 C131.16132,111.513542 131.055251,111.513542 130.949889,111.503572 L122.030901,111.503572 C121.917645,111.518105 121.802995,111.518105 121.689738,111.503572 C120.158563,111.305458 119.042327,109.955447 119.135437,108.414318 C119.228547,106.873189 120.499196,105.667385 122.043086,105.655056 C122.281578,105.660732 122.518658,105.693433 122.749782,105.752531 L123.237158,105.874375 L123.444293,105.423552 C124.073855,104.049845 125.534628,103.256608 127.029624,103.476627 C128.52462,103.696645 129.694925,104.877096 129.902029,106.373936 L129.975136,106.946603 L130.767122,106.873497 C131.960092,106.89141 132.94845,107.804214 133.060977,108.992 C133.173504,110.179786 132.374144,111.261952 131.205761,111.503572 L131.266683,111.503572 Z M99.5262985,111.649785 L90.6804178,111.649785 L90.6804178,92.5324479 L99.4166388,92.5324479 L99.5262985,111.649785 Z M97.8935877,112.965701 L53.3839427,157.414424 C50.7660753,155.844606 48.2472677,154.115214 45.8417937,152.236051 L85.112143,112.965701 L97.8935877,112.965701 Z M115.987435,112.965701 L116.718499,112.965701 L154.027159,136.37195 C151.979346,139.225259 149.740401,141.936417 147.325734,144.486767 L108.640236,120.264162 L115.987435,112.965701 Z M119.009168,112.965701 L138.833201,112.965701 L160.119363,126.368551 C158.53644,129.507535 156.736921,132.532519 154.733854,135.421567 L119.009168,112.965701 Z M141.12387,112.965701 L165.322106,112.965701 C164.132526,117.182188 162.57928,121.287489 160.679846,125.235401 L141.12387,112.965701 Z M38.1412474,145.400597 L70.563959,112.965701 L83.3697725,112.965701 L44.8792254,151.480617 C42.5168327,149.586788 40.2670128,147.556661 38.1412474,145.400597 Z M87.8170817,168.01486 L71.2584703,157.694666 L80.6039118,148.361409 L80.2383795,148.94626 L108.26252,166.516178 C103.009233,167.648775 97.650568,168.220583 92.2765753,168.221995 C90.7657086,168.161073 89.2913952,168.100151 87.8170817,168.01486 Z M137.176121,153.393569 L99.2826103,129.670526 L107.811696,121.14144 L146.460641,145.388413 C143.58335,148.299182 140.478684,150.976039 137.176121,153.393569 Z" id="Shape" fill="#95BB4D" fill-rule="nonzero"></path>
                            <path d="M92.2643909,10.2633202 C46.9764501,10.2633202 10.2633202,46.9764501 10.2633202,92.2643909 C10.2633202,137.552332 46.9764501,174.265462 92.2643909,174.265462 C137.552332,174.265462 174.265462,137.552332 174.265462,92.2643909 C174.21175,46.998717 137.530065,10.3170321 92.2643909,10.2633202 Z M92.2643909,171.82858 C48.3223027,171.82858 12.700202,136.206479 12.700202,92.2643909 C12.700202,48.3223027 48.3223027,12.700202 92.2643909,12.700202 C136.206479,12.700202 171.82858,48.3223027 171.82858,92.2643909 C171.781571,136.186993 136.186993,171.781571 92.2643909,171.82858 Z" id="Shape" fill="#95BB4D" fill-rule="nonzero"></path>
                            <path d="M30.2579349,103.169437 L30.2579349,101.950996 C25.9933919,101.950996 25.9933919,100.476682 25.9933919,99.2826103 C26.0007849,97.9041246 27.0569641,96.7581702 28.4302736,96.6385936 L28.9907564,96.6385936 L28.9907564,96.0659264 C29.0041482,94.1379502 30.4587023,92.5252975 32.375084,92.3137488 C34.2914657,92.1022002 36.0627503,93.3587539 36.4963522,95.2373866 L36.581643,95.5785501 L36.9228065,95.6882097 C38.365892,96.1058151 39.3592397,97.4269676 39.3596882,98.9292625 C39.4030997,99.805518 39.055668,100.655904 38.4110929,101.251077 C37.7665178,101.846251 36.8911832,102.124915 36.0211602,102.011918 L36.0211602,103.230359 C37.2168499,103.347585 38.4047474,102.941502 39.2784563,102.116852 C40.1521653,101.292201 40.6261406,100.129725 40.5781291,98.9292625 C40.5777715,97.0205562 39.4001445,95.309847 37.6173178,94.6281662 C36.8829822,92.4003152 34.7036748,90.9780387 32.3687099,91.202779 C30.0337451,91.4275194 28.1657207,93.2393516 27.8697908,95.5663657 C26.0870057,95.9493157 24.8100993,97.5201132 24.7993198,99.3435324 C24.774951,102.048471 26.3589241,103.169437 30.2579349,103.169437 Z" id="Shape" fill="#95BB4D" fill-rule="nonzero"></path>
                            <path d="M157.268211,95.724763 C156.627142,93.5660161 154.549102,92.161845 152.307045,92.3724086 C150.064987,92.5829722 148.284724,94.3494972 148.056798,96.589856 C146.383327,96.9612639 145.192741,98.4456967 145.193462,100.159888 C145.193462,102.730798 146.728698,103.81521 150.347467,103.81521 L150.347467,102.596769 C146.411903,102.596769 146.411903,101.232116 146.411903,100.159888 C146.408759,98.8779315 147.399388,97.8127394 148.678203,97.723006 L149.238686,97.723006 L149.238686,97.1625232 C149.238686,95.2244954 150.809768,93.6534135 152.747796,93.6534135 C154.390243,93.6454222 155.813667,94.789245 156.15943,96.3949055 L156.244721,96.7360689 L156.585885,96.8335442 C157.90658,97.2347871 158.811037,98.4506145 158.815631,99.8309087 C158.858896,100.638081 158.54053,101.422609 157.947017,101.971373 C157.353504,102.520137 156.546475,102.776154 155.74516,102.669876 L155.74516,103.888317 C156.872141,103.99868 157.991639,103.615192 158.81424,102.836993 C159.636841,102.058794 160.081795,100.962274 160.034072,99.8309087 C160.060441,98.0187899 158.957429,96.3812792 157.268211,95.724763 Z" id="Shape" fill="#95BB4D" fill-rule="nonzero"></path>
                            <path d="M38.6651769,89.9493532 L38.6651769,88.7309124 C28.6008553,88.7309124 27.7601311,85.2096182 27.7601311,81.6030333 C27.7940127,77.8860213 30.6695444,74.814551 34.3762651,74.5360762 L34.9367479,74.4386009 L34.9367479,73.8781181 C34.6887574,68.7384421 38.4785471,64.2912479 43.592494,63.7208833 C48.7064409,63.1505187 53.3829188,66.65346 54.2734045,71.7214778 L54.3586954,72.0748256 L54.6876744,72.1723009 C58.4330799,73.2881265 61.0001638,76.73238 60.9991981,80.640465 C60.9991981,84.5516602 58.7207137,88.7309124 52.2995303,88.7309124 L52.2995303,89.9493532 C59.6101755,89.9493532 62.217639,84.9293768 62.217639,80.640465 C62.1942786,76.3403194 59.4285575,72.535001 55.3456325,71.1853638 C54.1043721,65.7842646 49.0284666,62.1581867 43.5166828,62.7351095 C38.004899,63.3120323 33.7898736,67.9105992 33.6939382,73.4516638 C29.5918578,74.0260304 26.5316367,77.5219439 26.505137,81.6639553 C26.5416903,86.6108253 28.6008553,89.9493532 38.6651769,89.9493532 Z" id="Shape" fill="#95BB4D" fill-rule="nonzero"></path>
                            <path d="M131.376343,80.0921666 L131.376343,78.8737257 C118.789849,78.8737257 117.729805,74.4507853 117.729805,69.9181853 C117.753853,65.2458645 121.356811,61.3726854 126.015203,61.0113825 L126.600055,60.9382761 L126.600055,60.34124 C126.612345,54.0984621 131.310161,48.8601409 137.514769,48.17074 C143.719376,47.4813392 149.452488,51.5606685 150.834844,57.6484857 L150.920134,57.9896492 L151.249114,58.0871244 C155.950315,59.4845543 159.172643,63.8074321 159.168979,68.7119288 C159.168979,73.5856923 156.305643,78.8737257 148.203011,78.8737257 L148.203011,80.0921666 C157.158552,80.0921666 160.38742,73.9999622 160.38742,68.7119288 C160.39761,63.4030371 156.989029,58.691031 151.943625,57.0392653 C150.307855,50.5279166 144.128714,46.2137695 137.452486,46.9218543 C130.776258,47.6299391 125.63953,53.1442541 125.405983,59.8538637 C120.320295,60.5093838 116.512176,64.8391625 116.511364,69.9669229 C116.511364,76.0591273 119.045721,80.0921666 131.376343,80.0921666 Z" id="Shape" fill="#95BB4D" fill-rule="nonzero"></path>
                        </g>
                    </g>
                </g>
            </g>
        </g>
    </g>
</svg>