<?xml version="1.0" encoding="UTF-8"?>
<svg width="185px" height="185px" viewBox="0 0 185 185" version="1.1" xmlns="http://www.w3.org/2000/svg" xmlns:xlink="http://www.w3.org/1999/xlink">
    <!-- Generator: sketchtool 51.2 (57519) - http://www.bohemiancoding.com/sketch -->
    <title>A7794527-A0EA-44F2-93FE-58E049A5858C</title>
    <desc>Created with sketchtool.</desc>
    <defs></defs>
    <g id="Landing" stroke="none" stroke-width="1" fill="none" fill-rule="evenodd">
        <g id="SF-DTS---Home" transform="translate(-1031.000000, -921.000000)">
            <g id="Intro-and-3-markets" transform="translate(0.000000, 707.000000)">
                <g id="Our-Markets" transform="translate(130.000000, 50.000000)">
                    <g id="card3" transform="translate(799.000000, 157.000000)">
                        <g id="D2S_AffordablePreservation-v2" transform="translate(102.000000, 7.000000)">
                            <circle id="Oval-2" fill="#FFFFFF" cx="92.5" cy="92.5" r="92.5"></circle>
                            <path d="M60.9117687,78.0500338 L68.2046475,78.0500338 L68.2046475,70.757155 L60.9117687,70.757155 L60.9117687,78.0500338 Z M66.9891677,76.834554 L65.1173288,76.834554 L65.1173288,71.9726348 L66.9283937,71.9726348 L66.9891677,76.834554 Z M62.1272485,71.9726348 L63.901849,71.9726348 L63.901849,76.834554 L62.1272485,76.834554 L62.1272485,71.9726348 Z" id="Shape" fill="#D66B2C" fill-rule="nonzero"></path>
                            <path d="M54.6885122,70.8057742 L47.3956334,70.8057742 L47.3956334,78.098653 L54.6885122,78.098653 L54.6885122,70.8057742 Z M48.6111132,72.021254 L50.4100233,72.021254 L50.4100233,76.8831732 L48.6597324,76.8831732 L48.6111132,72.021254 Z M53.4730324,76.8831732 L51.6741223,76.8831732 L51.6741223,72.021254 L53.4730324,72.021254 L53.4730324,76.8831732 Z" id="Shape" fill="#D66B2C" fill-rule="nonzero"></path>
                            <path d="M95.2490729,75.4245974 L102.541952,75.4245974 L102.541952,68.1317187 L95.2490729,68.1317187 L95.2490729,75.4245974 Z M101.326472,74.2091177 L99.4789426,74.2091177 L99.4789426,69.3471985 L101.277853,69.3471985 L101.326472,74.2091177 Z M96.4645527,69.3471985 L98.2634628,69.3471985 L98.2634628,74.2091177 L96.4645527,74.2091177 L96.4645527,69.3471985 Z" id="Shape" fill="#D66B2C" fill-rule="nonzero"></path>
                            <path d="M81.4169128,75.4245974 L88.7097916,75.4245974 L88.7097916,68.1317187 L81.4169128,68.1317187 L81.4169128,75.4245974 Z M87.4943118,74.2091177 L85.6467825,74.2091177 L85.6467825,69.3471985 L87.4456926,69.3471985 L87.4943118,74.2091177 Z M82.6323926,69.3471985 L84.4313027,69.3471985 L84.4313027,74.2091177 L82.6323926,74.2091177 L82.6323926,69.3471985 Z" id="Shape" fill="#D66B2C" fill-rule="nonzero"></path>
                            <path d="M54.6885122,83.5683121 L47.3956334,83.5683121 L47.3956334,89.7794138 L45.8884384,89.7794138 L45.8884384,93.4258532 L56.2321715,93.4258532 L56.2321715,89.7794138 L54.6885122,89.7794138 L54.6885122,83.5683121 Z M53.4730324,89.645711 L51.6741223,89.645711 L51.6741223,84.7837919 L53.4730324,84.7837919 L53.4730324,89.645711 Z M48.6111132,84.7837919 L50.4100233,84.7837919 L50.4100233,89.645711 L48.6597324,89.645711 L48.6111132,84.7837919 Z M54.9680725,92.2225282 L47.1039182,92.2225282 L47.1039182,91.0070484 L55.0166917,91.0070484 L54.9680725,92.2225282 Z" id="Shape" fill="#D66B2C" fill-rule="nonzero"></path>
                            <circle id="Oval" fill="#D66B2C" fill-rule="nonzero" cx="66.2234154" cy="90.2048317" r="1"></circle>
                            <polygon id="Shape" fill="#D66B2C" fill-rule="nonzero" points="50.3006301 65.287496 50.969144 66.308499 57.9581528 61.7018306 64.9471616 66.308499 65.6156755 65.287496 57.9581528 60.2432548"></polygon>
                            <path d="M79.8732535,93.438008 L90.2048317,93.438008 L90.2048317,89.7915686 L88.6611724,89.7915686 L88.6611724,83.5683121 L81.3682936,83.5683121 L81.3682936,89.7794138 L79.8732535,89.7794138 L79.8732535,93.438008 Z M87.4456926,89.5970919 L85.6467825,89.5970919 L85.6467825,84.7351727 L87.4456926,84.7351727 L87.4456926,89.5970919 Z M82.5837734,84.7351727 L84.3826835,84.7351727 L84.3826835,89.5970919 L82.6323926,89.5970919 L82.5837734,84.7351727 Z M81.0401141,90.9462744 L88.9407328,90.9462744 L88.9407328,92.1617542 L81.0401141,92.1617542 L81.0401141,90.9462744 Z" id="Shape" fill="#D66B2C" fill-rule="nonzero"></path>
                            <path d="M129.08803,78.0500338 L136.380909,78.0500338 L136.380909,70.757155 L129.08803,70.757155 L129.08803,78.0500338 Z M135.165429,76.834554 L133.366519,76.834554 L133.366519,71.9726348 L135.165429,71.9726348 L135.165429,76.834554 Z M130.30351,71.9726348 L132.10242,71.9726348 L132.10242,76.834554 L130.30351,76.834554 L130.30351,71.9726348 Z" id="Shape" fill="#D66B2C" fill-rule="nonzero"></path>
                            <path d="M122.852619,70.8057742 L115.55974,70.8057742 L115.55974,78.098653 L122.852619,78.098653 L122.852619,70.8057742 Z M116.77522,72.021254 L118.59844,72.021254 L118.59844,76.8831732 L116.823839,76.8831732 L116.77522,72.021254 Z M121.637139,76.8831732 L119.81392,76.8831732 L119.81392,72.021254 L121.637139,72.021254 L121.637139,76.8831732 Z" id="Shape" fill="#D66B2C" fill-rule="nonzero"></path>
                            <path d="M122.852619,83.5683121 L115.55974,83.5683121 L115.55974,89.7794138 L114.0647,89.7794138 L114.0647,93.4258532 L124.396278,93.4258532 L124.396278,89.7794138 L122.852619,89.7794138 L122.852619,83.5683121 Z M121.637139,89.645711 L119.81392,89.645711 L119.81392,84.7837919 L121.637139,84.7837919 L121.637139,89.645711 Z M116.77522,84.7837919 L118.59844,84.7837919 L118.59844,89.645711 L116.823839,89.645711 L116.77522,84.7837919 Z M123.132179,92.2225282 L115.231561,92.2225282 L115.231561,91.0070484 L123.132179,91.0070484 L123.132179,92.2225282 Z" id="Shape" fill="#D66B2C" fill-rule="nonzero"></path>
                            <circle id="Oval" fill="#D66B2C" fill-rule="nonzero" cx="134.387522" cy="90.2048317" r="1"></circle>
                            <polygon id="Shape" fill="#D66B2C" fill-rule="nonzero" points="118.464737 65.287496 119.133251 66.308499 126.12226 61.7018306 133.123423 66.308499 133.791937 65.287496 126.12226 60.2432548"></polygon>
                            <circle id="Oval" fill="#D66B2C" fill-rule="nonzero" cx="100.414862" cy="90.2048317" r="1"></circle>
                            <polygon id="Shape" fill="#D66B2C" fill-rule="nonzero" points="85.0390426 64.7769944 89.2081383 67.5239788 89.8766522 66.5151306 85.0390426 63.3184187 80.201433 66.5151306 80.8699469 67.5239788"></polygon>
                            <polygon id="Shape" fill="#D66B2C" fill-rule="nonzero" points="98.8712027 64.7769944 103.040298 67.5239788 103.708812 66.5151306 98.8712027 63.3184187 94.0335931 66.5151306 94.702107 67.5239788"></polygon>
                            <rect id="Rectangle-path" fill="#D66B2C" fill-rule="nonzero" x="99.3573946" y="118.440427" width="14.257578" height="1.21547979"></rect>
                            <rect id="Rectangle-path" fill="#D66B2C" fill-rule="nonzero" x="70.8300838" y="118.440427" width="14.257578" height="1.21547979"></rect>
                            <rect id="Rectangle-path" fill="#D66B2C" fill-rule="nonzero" x="42.302773" y="118.440427" width="14.257578" height="1.21547979"></rect>
                            <rect id="Rectangle-path" fill="#D66B2C" fill-rule="nonzero" x="127.872551" y="118.440427" width="14.257578" height="1.21547979"></rect>
                            <path d="M92.2225282,15.2826572 C49.7381061,15.2826577 15.2970503,49.7219004 15.2948131,92.2063225 C15.2925759,134.690745 49.7300044,169.133614 92.2144263,169.138089 C134.698848,169.142564 169.143532,134.70695 169.150244,92.2225282 C169.110051,49.7512152 134.693834,15.3295604 92.2225282,15.2826572 Z M92.2225282,16.498137 C113.642586,16.4842147 134.06585,25.5455736 148.429514,41.4359552 C162.793177,57.3263369 169.752489,78.5580574 167.582275,99.8678961 L155.658419,99.8678961 L155.658419,89.9617358 L159.122536,86.4854636 L158.2717,85.6224729 L155.621954,88.2114449 L155.621954,81.9881883 L154.406474,81.9881883 L154.406474,86.3274512 L152.54679,84.4677671 L151.6838,85.3307578 L154.406474,88.0534325 L154.406474,99.8800509 L143.771026,99.8800509 L143.771026,60.6808275 L131.49468,60.6808275 L126.134414,57.1680909 L120.810613,60.6808275 L113.250329,60.6808275 L113.250329,56.0741591 L108.582886,56.0741591 L108.582886,60.6808275 L79.1318108,60.6808275 L79.1318108,56.0741591 L74.4643684,56.0741591 L74.4643684,60.6808275 L63.3305735,60.6808275 L57.9581528,57.1437813 L52.6465061,60.6565179 L45.0862218,60.6565179 L45.0862218,56.0741591 L40.4066246,56.0741591 L40.4066246,60.6808275 L40.4066246,99.8800509 L30.2695231,99.8800509 L30.2695231,89.9617358 L33.7457953,86.4854636 L32.8828046,85.6224729 L30.2695231,88.2114449 L30.2695231,81.9881883 L29.0540433,81.9881883 L29.0540433,86.3274512 L27.1943592,84.4677671 L26.3435233,85.3307578 L29.0540433,88.0534325 L29.0540433,99.8800509 L16.8992453,99.8800509 C14.726004,78.5745518 21.6788736,57.3454702 36.0348699,41.4535653 C50.3908662,25.5616604 70.8064768,16.4941833 92.2225282,16.498137 Z M162.720356,119.643752 C160.911709,124.276642 158.647936,128.718687 155.962289,132.904637 L28.3369102,132.904637 C25.6855777,128.718619 23.4544571,124.280806 21.6760809,119.655907 L28.0451951,119.655907 L28.0451951,118.440427 L21.2020438,118.440427 C19.6170271,114.153352 18.4250036,109.731066 17.640688,105.228162 L166.804368,105.228162 C166.027928,109.75135 164.839925,114.194156 163.255167,118.501201 L156.399861,118.501201 L156.399861,119.716681 L162.720356,119.643752 Z M29.2120557,134.132272 L155.233001,134.132272 C154.442939,135.347751 153.628567,136.490302 152.802041,137.632853 L31.6794796,137.632853 C30.8286438,136.490302 30.0021175,135.323442 29.2120557,134.132272 Z M17.4219017,104.012682 C17.2760441,103.064608 17.1666509,102.116534 17.0572577,101.156305 L167.399953,101.156305 C167.266251,102.225927 167.132548,103.295549 166.962381,104.353017 L166.962381,104.012682 L17.4219017,104.012682 Z M43.870742,60.7416015 L41.6221044,60.7416015 L41.6221044,57.2896389 L43.870742,57.2896389 L43.870742,60.7416015 Z M45.0862218,61.9570813 L50.7989768,61.9570813 L41.6099496,68.0344803 L41.6099496,61.9570813 L45.0862218,61.9570813 Z M108.558577,99.8435865 L104.985066,99.8435865 L104.985066,97.6192585 L103.441407,97.6192585 L103.441407,81.8180212 L93.8634259,81.8180212 L93.8634259,97.6192585 L92.3319214,97.6192585 L92.3319214,99.8435865 L75.8013962,99.8435865 L75.8013962,79.4721452 L108.558577,79.4721452 L108.558577,99.8435865 Z M102.225927,97.6192585 L95.0789057,97.6192585 L95.0789057,83.033501 L102.225927,83.033501 L102.225927,97.6192585 Z M103.441407,98.8347383 L103.769586,98.8347383 L103.769586,99.8435865 L93.5474012,99.8435865 L93.5474012,98.8347383 L103.441407,98.8347383 Z M142.555546,67.9980159 L133.29359,61.9206169 L142.555546,61.9206169 L142.555546,67.9980159 Z M142.555546,69.4565917 L142.555546,99.8435865 L138.969881,99.8435865 L138.969881,97.6192585 L137.426222,97.6192585 L137.426222,81.8180212 L127.848241,81.8180212 L127.848241,97.6192585 L126.316736,97.6192585 L126.316736,99.8435865 L109.786211,99.8435865 L109.786211,69.4565917 L126.134414,58.6266667 L142.555546,69.4565917 Z M136.210742,97.6192585 L129.063721,97.6192585 L129.063721,83.033501 L136.210742,83.033501 L136.210742,97.6192585 Z M137.426222,98.8347383 L137.754401,98.8347383 L137.754401,99.8435865 L127.532216,99.8435865 L127.532216,98.8347383 L137.426222,98.8347383 Z M109.786211,67.9372419 L109.786211,61.8598429 L118.963084,61.8598429 L109.786211,67.9372419 Z M112.034849,60.6443631 L109.798366,60.6443631 L109.798366,57.2896389 L112.034849,57.2896389 L112.034849,60.6443631 Z M108.558577,78.2566654 L75.8013962,78.2566654 L75.8013962,61.8963073 L108.558577,61.8963073 L108.558577,78.2566654 Z M77.916331,60.6808275 L75.6798482,60.6808275 L75.6798482,57.2896389 L77.916331,57.2896389 L77.916331,60.6808275 Z M74.3914396,67.9737063 L65.1294836,61.8963073 L74.3914396,61.8963073 L74.3914396,67.9737063 Z M74.3914396,69.4322821 L74.3914396,99.8192769 L70.7450002,99.8192769 L70.7450002,97.6192585 L69.2621149,97.6192585 L69.2621149,81.8180212 L59.6841341,81.8180212 L59.6841341,97.6192585 L58.1404748,97.6192585 L58.1404748,99.8435865 L41.6099496,99.8435865 L41.6099496,69.4565917 L57.9581528,58.6752859 L74.3914396,69.4322821 Z M68.0466351,97.6192585 L60.8996139,97.6192585 L60.8996139,83.033501 L68.0466351,83.033501 L68.0466351,97.6192585 Z M69.2621149,98.8347383 L69.5781396,98.8347383 L69.5781396,99.8435865 L59.3559546,99.8435865 L59.3559546,98.8347383 L69.2621149,98.8347383 Z M92.2225282,167.934765 C68.9507809,167.924195 46.9810627,157.194902 32.6640183,138.848333 L151.781038,138.848333 C137.463994,157.194902 115.494275,167.924195 92.2225282,167.934765 Z" id="Shape" fill="#D66B2C" fill-rule="nonzero"></path>
                            <path d="M92.2225282,10.420738 C47.044647,10.420738 10.420738,47.044647 10.420738,92.2225282 C10.420738,137.400409 47.044647,174.024318 92.2225282,174.024318 C137.400409,174.024318 174.024318,137.400409 174.024318,92.2225282 C173.970737,47.0668597 137.378197,10.4743194 92.2225282,10.420738 Z M92.2225282,171.593359 C48.3872289,171.593359 12.8516976,136.057828 12.8516976,92.2225282 C12.8516976,48.3872289 48.3872289,12.8516976 92.2225282,12.8516976 C136.057828,12.8516976 171.593359,48.3872289 171.593359,92.2225282 C171.546465,136.038389 136.038389,171.546465 92.2225282,171.593359 Z" id="Shape" fill="#D66B2C" fill-rule="nonzero"></path>
                            <path d="M152.206456,89.8644974 L152.206456,88.6490176 C147.539014,88.6490176 147.162215,87.2147515 147.162215,85.4644606 C147.170533,83.8014141 148.457141,82.4247964 150.115831,82.3042131 L150.674952,82.3042131 L150.674952,81.7329376 C150.675639,79.4413539 152.399284,77.5167478 154.676928,77.2643686 C156.954572,77.0119895 159.057751,78.5125563 159.560109,80.7483989 L159.633038,81.0887333 L159.973372,81.1981265 C161.682742,81.7002072 162.856087,83.2696175 162.854059,85.0511974 C162.854059,85.9141881 162.562344,88.6976368 158.891595,88.6976368 L158.891595,89.9131166 C160.246061,90.0472922 161.592449,89.5897341 162.584692,88.6580505 C163.576935,87.7263669 164.118264,86.4114204 164.069539,85.0511974 C164.047536,82.8833834 162.695537,80.9519553 160.666195,80.1892782 C159.892775,77.5577208 157.358254,75.8472459 154.628455,76.1145821 C151.898655,76.3819183 149.744128,78.5516035 149.495936,81.2832101 C147.44325,81.687735 145.95927,83.4817251 145.946735,85.5738537 C145.946735,88.5882436 147.769955,89.8644974 152.206456,89.8644974 Z" id="Shape" fill="#D66B2C" fill-rule="nonzero"></path>
                            <path d="M26.8540249,89.8644974 L26.8540249,88.6490176 C22.1987372,88.6490176 21.8219385,87.2147515 21.8219385,85.4644606 C21.8302564,83.8014141 23.1168645,82.4247964 24.7755544,82.3042131 L25.3346751,82.3042131 L25.3346751,81.7329376 C25.3353624,79.4413539 27.0590077,77.5167478 29.3366515,77.2643686 C31.6142952,77.0119895 33.7174741,78.5125563 34.2198324,80.7483989 L34.2927612,81.0887333 L34.6330955,81.1981265 C36.3424656,81.7002072 37.5158102,83.2696175 37.5137827,85.0511974 C37.5137827,85.9141881 37.2220675,88.6976368 33.5513185,88.6976368 L33.5513185,89.9131166 C34.9057843,90.0472922 36.2521728,89.5897341 37.2444158,88.6580505 C38.2366589,87.7263669 38.7779878,86.4114204 38.7292625,85.0511974 C38.7087874,82.8792029 37.3501011,80.9451299 35.3137642,80.1892782 C34.6610691,77.7121095 32.4300527,75.9790877 29.8684148,75.9594086 C26.9097069,75.9664678 24.4437955,78.2268866 24.1799693,81.1738169 C22.1321122,81.5833919 20.6542887,83.3760781 20.6429231,85.4644606 C20.6064587,88.5882436 22.4175236,89.8644974 26.8540249,89.8644974 Z" id="Shape" fill="#D66B2C" fill-rule="nonzero"></path>
                        </g>
                    </g>
                </g>
            </g>
        </g>
    </g>
</svg>