<?xml version="1.0" encoding="UTF-8"?>
<svg width="185px" height="185px" viewBox="0 0 185 185" version="1.1" xmlns="http://www.w3.org/2000/svg" xmlns:xlink="http://www.w3.org/1999/xlink">
    <!-- Generator: sketchtool 51.2 (57519) - http://www.bohemiancoding.com/sketch -->
    <title>6AA0AF43-5769-4F08-85B2-19043CEACD59</title>
    <desc>Created with sketchtool.</desc>
    <defs></defs>
    <g id="Landing" stroke="none" stroke-width="1" fill="none" fill-rule="evenodd">
        <g id="SF-DTS---Home" transform="translate(-233.000000, -921.000000)">
            <g id="Intro-and-3-markets" transform="translate(0.000000, 707.000000)">
                <g id="Our-Markets" transform="translate(130.000000, 50.000000)">
                    <g id="card1" transform="translate(0.000000, 157.000000)">
                        <g id="D2S_ManufacturedHousing-v2" transform="translate(103.000000, 7.000000)">
                            <circle id="Oval-2" fill="#FFFFFF" cx="92.5" cy="92.5" r="92.5"></circle>
                            <polygon id="Shape" fill="#00A4DF" fill-rule="nonzero" points="57.3478261 76.3038157 57.8479306 77.4347826 78.1521739 68.7312543 98.4564172 77.4347826 98.9565217 76.3038157 78.1521739 67.3913043"></polygon>
                            <polygon id="Shape" fill="#00A4DF" fill-rule="nonzero" points="110.434783 83.5054681 110.852487 84.6086957 123.347826 80.1253668 135.855099 84.6086957 136.26087 83.5054681 123.347826 78.8695652"></polygon>
                            <path d="M65.9565217,96.0869565 L65.9565217,90.3478261 L51.6086957,90.3478261 L51.6086957,96.0869565 L65.9565217,96.0869565 Z M64.7843137,95.0584385 L59.3687127,95.0584385 L59.3687127,91.3763441 L64.7843137,91.3763441 L64.7843137,95.0584385 Z M52.7809037,91.3763441 L58.1965047,91.3763441 L58.1965047,95.0584385 L52.7809037,95.0584385 L52.7809037,91.3763441 Z" id="Shape" fill="#00A4DF" fill-rule="nonzero"></path>
                            <circle id="Oval" fill="#F5A623" fill-rule="nonzero" cx="88.1956522" cy="99.673913" r="1"></circle>
                            <path d="M92.6431914,15.1562885 C68.9420655,15.1326925 46.5362743,25.9670659 31.8385474,44.5585182 C17.1408204,63.1499704 11.7711123,87.4493883 17.2662795,110.50207 L17.2662795,110.636722 C26.6661752,149.967901 64.7388527,175.454579 104.688986,169.159382 C144.63912,162.864185 173.027158,126.90487 169.873767,86.589389 C166.720376,46.2739085 133.086382,15.1647208 92.6431914,15.1562885 Z M92.6431914,16.3803966 C115.824516,16.3570758 137.755359,26.8882225 152.229361,44.993555 C166.703362,63.0988875 172.145704,86.808488 167.016221,109.412614 L158.666853,109.412614 L158.666853,98.9464894 L162.168201,95.4455401 L161.298985,94.5886645 L158.666853,97.1715326 L158.666853,90.9163401 L157.442606,90.9163401 L157.442606,95.2986472 L155.569507,93.4257617 L154.712534,94.2826374 L157.442606,97.0246396 L157.442606,109.412614 L147.648627,109.412614 L147.648627,85.7016395 L123.065739,76.8390967 L116.258924,79.2873129 L79.3356223,63.4473539 L42.2286838,79.3607594 L42.0817742,109.412614 L30.7697282,109.412614 L30.7697282,96.6574072 L35.0423516,92.3975109 L34.173136,91.5283942 L30.7697282,94.9314147 L30.7697282,86.9991941 L29.5454809,86.9991941 L29.5454809,92.6056093 L27.0969861,90.1573931 L26.2400129,91.0142687 L29.5822083,94.368325 L29.5822083,109.412614 L18.2701624,109.412614 C13.1406792,86.808488 18.5830211,63.0988875 33.0570223,44.993555 C47.5310235,26.8882225 69.4618665,16.3570758 92.6431914,16.3803966 Z M83.9755199,109.412614 L83.9755199,92.1526893 L92.1534925,92.1526893 L92.1534925,109.412614 L83.9755199,109.412614 Z M82.7512725,90.9285812 L82.7512725,109.412614 L75.5649403,109.412614 L75.5649403,86.7910957 L98.4828515,86.7910957 L98.4828515,109.412614 L93.3777399,109.412614 L93.3777399,90.9285812 L82.7512725,90.9285812 Z M74.3406929,100.31749 L43.3060215,100.31749 L43.3060215,86.8523011 L74.3406929,86.8523011 L74.3406929,100.31749 Z M43.3060215,85.5669876 L43.3060215,80.6705551 L112.194422,80.6705551 L98.8501257,85.5669876 L43.3060215,85.5669876 Z M45.3382722,79.3730005 L79.3356223,64.7816317 L113.332972,79.3730005 L45.3382722,79.3730005 Z M43.3060215,101.541599 L47.6520998,101.541599 L47.6520998,109.412614 L43.3060215,109.412614 L43.3060215,101.541599 Z M48.8763472,101.541599 L54.813947,101.541599 L54.813947,109.412614 L48.8641047,109.412614 L48.8763472,101.541599 Z M56.0504369,101.541599 L62.0002792,101.541599 L62.0002792,109.412614 L56.0381944,109.412614 L56.0504369,101.541599 Z M63.2245266,101.541599 L69.1621265,101.541599 L69.1621265,109.412614 L63.2122841,109.412614 L63.2245266,101.541599 Z M70.3863739,101.541599 L74.3529354,101.541599 L74.3529354,109.412614 L70.3741314,109.412614 L70.3863739,101.541599 Z M108.044224,109.412614 L108.044224,103.953092 L137.76895,103.953092 L137.76895,109.412614 L108.044224,109.412614 Z M137.76895,94.9069326 L108.044224,94.9069326 L108.044224,90.1818752 L137.76895,90.1818752 L137.76895,94.9069326 Z M108.044224,96.1310407 L137.76895,96.1310407 L137.76895,102.728983 L108.044224,102.728983 L108.044224,96.1310407 Z M138.993198,109.412614 L138.993198,88.9577671 L106.819976,88.9577671 L106.819976,109.412614 L99.7070989,109.412614 L99.7070989,86.5585152 L123.065739,78.1488924 L146.412137,86.5585152 L146.412137,109.412614 L138.993198,109.412614 Z M82.7512725,110.636722 L82.7512725,110.734651 L93.3777399,110.734651 L93.3777399,110.636722 L98.4828515,110.636722 L105.522274,110.636722 C101.73935,113.084938 95.8262347,115.533154 87.8686266,118.128264 C51.7043587,129.818496 39.9148563,139.244129 36.0462345,142.341122 L35.3728984,142.867489 C27.2468524,133.638527 21.4755002,122.580126 18.5517393,110.636722 L82.7512725,110.636722 Z M36.2298716,143.834534 L36.8542378,143.344891 C40.6861321,140.284621 52.3532098,130.969158 88.2726283,119.340131 C97.4299987,116.377789 103.96748,113.464412 107.713677,110.685686 L137.095614,110.685686 C134.524695,113.990778 131.378379,116.659334 124.094107,120.343899 C115.952862,124.456903 112.03527,128.912656 112.451514,133.478579 C113.357457,143.455061 134.377785,150.81195 139.727746,152.525702 C108.293201,177.338078 63.0035289,173.538053 36.1441743,143.834534 L36.2298716,143.834534 Z M140.976478,151.607621 C137.732223,150.603852 114.630675,143.038864 113.761459,133.36841 C113.394185,129.316612 117.079169,125.301537 124.779685,121.433356 C132.676081,117.369317 135.871367,114.492663 138.674893,110.636722 L147.636384,110.636722 L166.734644,110.636722 C162.807623,126.732404 153.749225,141.113338 140.927509,151.607621 L140.976478,151.607621 Z" id="Shape" fill="#00A4DF" fill-rule="nonzero"></path>
                            <path d="M92.5,10 C46.9365081,10 10,46.9365081 10,92.5 C10,138.063492 46.9365081,175 92.5,175 C138.063492,175 175,138.063492 175,92.5 C174.945961,46.9589105 138.04109,10.0540387 92.5,10 Z M92.5,172.548291 C48.2905495,172.548291 12.4517088,136.70945 12.4517088,92.5 C12.4517088,48.2905495 48.2905495,12.4517088 92.5,12.4517088 C136.70945,12.4517088 172.548291,48.2905495 172.548291,92.5 C172.500997,136.689846 136.689846,172.500997 92.5,172.548291 Z" id="Shape" fill="#00A6E1" fill-rule="nonzero"></path>
                            <path d="M155.108514,100.391304 L155.108514,99.1349389 C150.686428,99.1349389 150.328505,97.6398639 150.328505,95.8432613 C150.336406,94.1242742 151.558563,92.7013505 153.134162,92.5767111 L153.746096,92.5767111 L153.665275,91.923401 C153.660011,89.552318 155.295593,87.556913 157.461027,87.2925935 C159.626462,87.0282741 161.627686,88.5797596 162.10534,90.8931813 L162.174615,91.2575273 L162.497901,91.3580365 C164.119339,91.8806085 165.232382,93.5005919 165.234283,95.3407151 C165.234283,96.2327346 164.957181,99.1098116 161.470314,99.1098116 L161.470314,100.366177 C162.756034,100.500621 164.03271,100.026233 164.974322,99.064156 C165.915933,98.1020791 166.431322,96.7454528 166.388875,95.3407151 C166.376042,93.0933527 165.08304,91.0905386 163.144472,90.3152532 C162.493264,87.7760246 160.359905,86.0259608 157.937264,86.0436106 C155.131202,86.0573807 152.795517,88.3921407 152.545321,91.4334185 C150.591226,91.8524877 149.180339,93.7137184 149.173913,95.8809523 C149.173913,99.0721206 150.894255,100.391304 155.108514,100.391304 Z" id="Shape" fill="#00A4DF" fill-rule="nonzero"></path>
                            <path d="M26.0333303,96.0741206 L26.0333303,94.7905305 C20.2950097,94.7905305 19.8218712,92.8009658 19.8218712,90.5931908 C19.8274367,88.4137878 21.4085771,86.6014664 23.461398,86.421523 L24.0194588,86.3316717 L24.0194588,85.7412202 C24.1309482,82.8389356 26.2290776,80.4578448 28.9576238,80.1370764 C31.6861699,79.8163081 34.2271312,81.6520267 34.9380391,84.4576301 L35.0108297,84.8298712 L35.3505188,84.9325584 C37.4663013,85.5973247 38.9172824,87.6546991 38.9172551,89.9899035 C38.9172551,92.3132016 37.6191572,94.8033664 34.0038939,94.8033664 L34.0038939,96.0869565 C38.5290389,96.0869565 40.1304307,92.8009658 40.1304307,89.9899035 C40.1334267,87.2250444 38.4912038,84.757532 36.0298972,83.8286709 C35.0522035,80.6151865 32.0833071,78.5631667 28.9092192,78.9070534 C25.7351313,79.2509401 23.2209217,81.8970099 22.8790737,85.253456 C20.4175344,85.7337927 18.6253915,87.9962583 18.6086957,90.6445344 C18.6086957,93.4427609 19.5064456,96.0741206 26.0333303,96.0741206 Z" id="Shape" fill="#00A4DF" fill-rule="nonzero"></path>
                        </g>
                    </g>
                </g>
            </g>
        </g>
    </g>
</svg>