<svg width="276px" height="96px" viewBox="0 0 195 68" xmlns="http://www.w3.org/2000/svg">
<g transform="translate(-329.000000, -2133.000000) translate(0.000000, 1863.000000) translate(0.000000, 234.000000) translate(328.000000, 31.000000)" fill="none">
<path d="M1.66503906,33 L1.66503906,10.9609375 L8.76416016,10.9609375 C10.711761,10.9609375 12.4625573,11.4024207 14.0166016,12.2854004 C15.5706458,13.1683801 16.7840939,14.4146241 17.6569824,16.0241699 C18.5298709,17.6337157 18.9713541,19.43749 18.9814453,21.4355469 L18.9814453,22.449707 C18.9814453,24.4679463 18.5550987,26.2767661 17.7023926,27.8762207 C16.8496865,29.4756753 15.6488521,30.7269649 14.0998535,31.630127 C12.5508549,32.533289 10.8227634,32.9899088 8.91552734,33 L1.66503906,33 Z M6.97802734,15.0629883 L6.97802734,28.9130859 L8.82470703,28.9130859 C10.3484777,28.9130859 11.5190389,28.3706923 12.3364258,27.2858887 C13.1538127,26.2010851 13.5625,24.5890406 13.5625,22.449707 L13.5625,21.4960938 C13.5625,19.3668513 13.1538127,17.7623752 12.3364258,16.6826172 C11.5190389,15.6028592 10.3282956,15.0629883 8.76416016,15.0629883 L6.97802734,15.0629883 Z M27.3671875,33 L22.0693359,33 L22.0693359,10.9609375 L27.3671875,10.9609375 L27.3671875,33 Z M31.0605469,33 L31.0605469,10.9609375 L38.159668,10.9609375 C40.1072689,10.9609375 41.8580651,11.4024207 43.4121094,12.2854004 C44.9661536,13.1683801 46.1796018,14.4146241 47.0524902,16.0241699 C47.9253787,17.6337157 48.3668619,19.43749 48.3769531,21.4355469 L48.3769531,22.449707 C48.3769531,24.4679463 47.9506065,26.2767661 47.0979004,27.8762207 C46.2451943,29.4756753 45.04436,30.7269649 43.4953613,31.630127 C41.9463627,32.533289 40.2182713,32.9899088 38.3110352,33 L31.0605469,33 Z M36.3735352,15.0629883 L36.3735352,28.9130859 L38.2202148,28.9130859 C39.7439855,28.9130859 40.9145467,28.3706923 41.7319336,27.2858887 C42.5493205,26.2010851 42.9580078,24.5890406 42.9580078,22.449707 L42.9580078,21.4960938 C42.9580078,19.3668513 42.5493205,17.7623752 41.7319336,16.6826172 C40.9145467,15.6028592 39.7238034,15.0629883 38.159668,15.0629883 L36.3735352,15.0629883 Z M66.8891602,20.5273438 L70.9458008,10.9609375 L76.6826172,10.9609375 L69.5834961,25.0834961 L69.5834961,33 L64.1948242,33 L64.1948242,25.0834961 L57.1108398,10.9609375 L62.8173828,10.9609375 L66.8891602,20.5273438 Z M96.5117188,22.4345703 C96.5117188,24.5839951 96.1131225,26.4861571 95.315918,28.1411133 C94.5187135,29.7960695 93.3859937,31.0700639 91.9177246,31.9631348 C90.4494555,32.8562056 88.7768649,33.3027344 86.8999023,33.3027344 C85.0229398,33.3027344 83.3579174,32.8713422 81.9047852,32.0085449 C80.4516529,31.1457476 79.3189331,29.9121174 78.5065918,28.3076172 C77.6942505,26.703117 77.2679038,24.8615013 77.2275391,22.7827148 L77.2275391,21.5415039 C77.2275391,19.3819879 77.6236126,17.4773032 78.4157715,15.8273926 C79.2079304,14.177482 80.3431729,12.9034876 81.8215332,12.0053711 C83.2998935,11.1072546 84.9825752,10.6582031 86.8696289,10.6582031 C88.7365002,10.6582031 90.4015226,11.1022091 91.8647461,11.9902344 C93.3279696,12.8782596 94.4657349,14.142163 95.2780762,15.7819824 C96.0904175,17.4218018 96.5016276,19.3012589 96.5117188,21.4204102 L96.5117188,22.4345703 Z M91.1079102,21.5112305 C91.1079102,19.3214409 90.7421098,17.6589412 90.010498,16.5236816 C89.2788863,15.3884221 88.2319404,14.8208008 86.8696289,14.8208008 C84.2055531,14.8208008 82.7978523,16.8188277 82.6464844,20.8149414 L82.6313477,22.4345703 C82.6313477,24.5940863 82.9895798,26.2540632 83.7060547,27.4145508 C84.4225296,28.5750384 85.4871349,29.1552734 86.8999023,29.1552734 C88.2420315,29.1552734 89.2763636,28.5851294 90.0029297,27.4448242 C90.7294958,26.304519 91.097819,24.6647242 91.1079102,22.5253906 L91.1079102,21.5112305 Z M116.537598,10.9609375 L116.537598,25.3862305 C116.537598,27.0210043 116.189457,28.4362733 115.493164,29.6320801 C114.796872,30.8278868 113.797858,31.7386036 112.496094,32.3642578 C111.194329,32.989912 109.655445,33.3027344 107.879395,33.3027344 C105.195136,33.3027344 103.081062,32.6064523 101.537109,31.2138672 C99.9931563,29.8212821 99.2060548,27.9140746 99.1757813,25.4921875 L99.1757813,10.9609375 L104.519043,10.9609375 L104.519043,25.5981445 C104.57959,28.0099404 105.699696,29.2158203 107.879395,29.2158203 C108.979335,29.2158203 109.811846,28.913089 110.376953,28.3076172 C110.94206,27.7021454 111.224609,26.7182685 111.224609,25.355957 L111.224609,10.9609375 L116.537598,10.9609375 Z M11.8164063,57.4140625 L9.00390625,60.5 L9.00390625,68 L2.1484375,68 L2.1484375,39.5625 L9.00390625,39.5625 L9.00390625,52.1015625 L11.3867188,48.4882812 L17.5195313,39.5625 L25.9960938,39.5625 L16.3867188,52.140625 L25.9960938,68 L17.8710938,68 L11.8164063,57.4140625 Z M51.484375,68 L44.6679688,68 L34.5898438,50.3046875 L34.5898438,68 L27.734375,68 L27.734375,39.5625 L34.5898438,39.5625 L44.6484375,57.2578125 L44.6484375,39.5625 L51.484375,39.5625 L51.484375,68 Z M79.9023438,54.3671875 C79.9023438,57.1406389 79.388026,59.5950414 78.359375,61.7304688 C77.330724,63.8658961 75.8691501,65.5097599 73.9746094,66.6621094 C72.0800687,67.8144589 69.9218871,68.390625 67.5,68.390625 C65.0781129,68.390625 62.9296969,67.8339899 61.0546875,66.7207031 C59.1796781,65.6074163 57.7181042,64.0156354 56.6699219,61.9453125 C55.6217396,59.8749896 55.0716148,57.4987113 55.0195313,54.8164062 L55.0195313,53.2148438 C55.0195313,50.4283715 55.5305938,47.9707138 56.5527344,45.8417969 C57.5748749,43.71288 59.039704,42.0690162 60.9472656,40.9101562 C62.8548272,39.7512963 65.0260295,39.171875 67.4609375,39.171875 C69.8698037,39.171875 72.0182197,39.7447859 73.90625,40.890625 C75.7942803,42.0364641 77.2623646,43.6673071 78.3105469,45.7832031 C79.3587292,47.8990991 79.8893229,50.3242051 79.9023438,53.0585938 L79.9023438,54.3671875 Z M72.9296875,53.1757812 C72.9296875,50.3502463 72.457687,48.2050854 71.5136719,46.7402344 C70.5696567,45.2753833 69.2187588,44.5429688 67.4609375,44.5429688 C64.0234203,44.5429688 62.2070322,47.121068 62.0117188,52.2773438 L61.9921875,54.3671875 C61.9921875,57.1536598 62.4544225,59.2955654 63.3789063,60.7929688 C64.30339,62.2903721 65.6770742,63.0390625 67.5,63.0390625 C69.2317795,63.0390625 70.5664016,62.3033928 71.5039063,60.8320312 C72.4414109,59.3606697 72.9166666,57.2448055 72.9296875,54.484375 L72.9296875,53.1757812 Z M105.46875,57.3945312 L108.730469,39.5625 L115.527344,39.5625 L109.492188,68 L102.382812,68 L98.5742188,51.7890625 L94.84375,68 L87.7539062,68 L81.6992188,39.5625 L88.515625,39.5625 L91.7773438,57.3945312 L95.6835938,39.5625 L101.503906,39.5625 L105.46875,57.3945312 Z" fill="#FFF" transform="translate(59.101318, 39.524414) rotate(-360.000000) translate(-59.101318, -39.524414)"/>
<g transform="translate(126.000000, 8.000000)" stroke-width="5" stroke="#FFF" stroke-linejoin="round">
<path d="M66.8798289,27.3192935 C66.8798289,42.3374649 51.9372759,54.5149091 33.5,54.5149091 C29.384122,54.5149091 25.4453022,53.9090805 21.8054495,52.7988779 L2.62510955,61.7152831 L10.1370224,46.7405922 C3.95449752,41.8041039 0.123073675,34.9254857 0.123073675,27.3192935 C0.120171082,12.2953247 15.0627241,0.120779221 33.5,0.120779221 C51.9372759,0.120779221 66.8798289,12.2953247 66.8798289,27.3192935 Z"/>
<path d="M36.4025938,40.7025974 C36.4025938,41.502639 35.7524128,42.1519481 34.9512969,42.1519481 L34.9512969,42.1519481 C34.150181,42.1519481 33.5,41.502639 33.5,40.7025974 L33.5,40.7025974 C33.5,39.9025558 34.150181,39.2532468 34.9512969,39.2532468 L34.9512969,39.2532468 C35.7524128,39.2532468 36.4025938,39.9025558 36.4025938,40.7025974 L36.4025938,40.7025974 Z" fill="#FFF"/>
<path d="M26.2435155,20.4116883 C26.2435155,15.6085403 30.141699,11.7155844 34.9512969,11.7155844 C39.7608949,11.7155844 43.6590784,15.6085403 43.6590784,20.4116883 C43.6590784,25.2148364 39.7608949,29.1077922 34.9512969,29.1077922 L34.9512969,33.4558442" stroke-linecap="round"/>
</g>
</g>
</svg>