<?xml version="1.0" encoding="UTF-8"?>
<svg width="222px" height="77px" viewBox="0 0 222 77" version="1.1" xmlns="http://www.w3.org/2000/svg" xmlns:xlink="http://www.w3.org/1999/xlink">
    <!-- Generator: Sketch 43.2 (39069) - http://www.bohemiancoding.com/sketch -->
    <title>FM Multifamily New Logo_rgb</title>
    <desc>Created with Sketch.</desc>
    <defs></defs>
    <g id="Landing" stroke="none" stroke-width="1" fill="none" fill-rule="evenodd">
        <g id="sbl-Landing" transform="translate(-609.000000, -30.000000)">
            <g id="FM-Multifamily-New-Logo_rgb" transform="translate(609.000000, 30.000000)">
                <polyline id="Fill-1" fill="#289BCA" points="0 19.4823569 19.6020223 19.4823569 19.6020223 24.2004758 5.40475093 24.2004758 5.40475093 32.5217621 18.7866468 32.5217621 18.7866468 37.068223 5.40475093 37.068223 5.40475093 49.8501413 0 49.8501413 0 19.4823569"></polyline>
                <path d="M21.7469219,29.2619108 L26.6787881,29.2619108 L26.6787881,32.6934201 L26.7646171,32.6934201 C27.3365353,31.4926394 28.1370558,30.520461 29.1670037,29.7768848 C30.1961264,29.0333086 31.3969071,28.6611078 32.7693457,28.6611078 C32.9690632,28.6611078 33.184461,28.6685353 33.4130632,28.6825651 C33.6424907,28.6974201 33.8422082,28.7329071 34.0138662,28.7898513 L34.0138662,33.5079703 C33.6705502,33.4221413 33.3767509,33.365197 33.134119,33.3363123 C32.8906617,33.3082528 32.6554572,33.294223 32.426855,33.294223 C31.2541338,33.294223 30.3100149,33.5079703 29.5953234,33.9371152 C28.880632,34.3662602 28.3227435,34.8804089 27.9233086,35.4812119 C27.522223,36.0820149 27.2507063,36.6968476 27.1079331,37.32571 C26.9643346,37.9545725 26.8933606,38.4555167 26.8933606,38.8268922 L26.8933606,49.8501413 L21.7469219,49.8501413 L21.7469219,29.2619108" id="Fill-2" fill="#289BCA"></path>
                <path d="M49.9260669,37.497368 C49.9260669,36.8396208 49.8328104,36.2107584 49.6471227,35.6099554 C49.4614349,35.0091524 49.1676357,34.480974 48.7682007,34.0229442 C48.3671152,33.5657398 47.8595688,33.2009665 47.2447361,32.9294498 C46.6307286,32.6571078 45.9077844,32.5217621 45.0792045,32.5217621 C43.5351078,32.5217621 42.2270409,32.9863941 41.1541784,33.915658 C40.0821413,34.8449219 39.4887658,36.0391004 39.3748773,37.497368 L49.9260669,37.497368 Z M55.0733309,39.8131004 L55.0733309,40.4997323 C55.0733309,40.7291599 55.0584758,40.9569368 55.0304164,41.185539 L39.3748773,41.185539 C39.4318216,41.9291152 39.6249368,42.6083197 39.954223,43.2231524 C40.2818587,43.8379851 40.7184312,44.3669888 41.26229,44.8101636 C41.8044981,45.2541636 42.4201561,45.6032565 43.1059628,45.8607435 C43.7925948,46.1182305 44.506461,46.246974 45.2508625,46.246974 C46.5382974,46.246974 47.6243643,46.0109442 48.5107138,45.53971 C49.3970632,45.0676506 50.1257844,44.4173309 50.6985279,43.5879257 L54.1292119,46.332803 C52.099026,49.0776803 49.1536059,50.450119 45.2929517,50.450119 C43.6919108,50.450119 42.2196134,50.1992342 40.8760595,49.6999405 C39.5316803,49.1998216 38.3663866,48.4917323 37.3801784,47.5764981 C36.393145,46.6620892 35.6215093,45.53971 35.0636208,44.2093606 C34.5057323,42.8798364 34.2276134,41.372052 34.2276134,39.6843569 C34.2276134,38.0263717 34.5057323,36.5177621 35.0636208,35.1593532 C35.6215093,33.8017695 36.3865428,32.6439033 37.3587212,31.6849294 C38.3308996,30.7276059 39.4821636,29.984855 40.8116877,29.455026 C42.1412119,28.9260223 43.5780223,28.6611078 45.1229442,28.6611078 C46.5523271,28.6611078 47.8735985,28.8971375 49.0892342,29.369197 C50.3048699,29.8412565 51.3554498,30.5419182 52.2426245,31.4703569 C53.1281487,32.4004461 53.8213829,33.5583123 54.3223271,34.9447807 C54.8224461,36.3320743 55.0733309,37.9545725 55.0733309,39.8131004 L55.0733309,39.8131004 Z" id="Fill-3" fill="#289BCA"></path>
                <path d="M62.5355019,39.4697844 C62.5355019,40.2711301 62.6568178,41.0716506 62.9002751,41.872171 C63.1429071,42.6726914 63.506855,43.3882082 63.9937695,44.0170706 C64.4798587,44.6459331 65.0946914,45.1600818 65.8382677,45.5611673 C66.5818439,45.9614275 67.4533383,46.161145 68.4552268,46.161145 C69.3985204,46.161145 70.2419554,45.9680297 70.9855316,45.5817993 C71.7291078,45.1963941 72.3645725,44.6888476 72.8944015,44.0591599 C73.4225799,43.4311227 73.8228401,42.7230335 74.0951822,41.9365428 C74.3666989,41.150052 74.5028699,40.3569591 74.5028699,39.5556134 C74.5028699,38.7559182 74.3666989,37.9545725 74.0951822,37.154052 C73.8228401,36.3535316 73.4225799,35.6388401 72.8944015,35.0091524 C72.3645725,34.3811152 71.7291078,33.8661413 70.9855316,33.4650558 C70.2419554,33.0647955 69.3985204,32.8650781 68.4552268,32.8650781 C67.4533383,32.8650781 66.5818439,33.0581933 65.8382677,33.4435985 C65.0946914,33.829829 64.4798587,34.3373755 63.9937695,34.9662379 C63.506855,35.5959257 63.1429071,36.3031896 62.9002751,37.0896803 C62.6568178,37.876171 62.5355019,38.6700892 62.5355019,39.4697844 Z M79.4784758,49.8501413 L74.5878736,49.8501413 L74.5878736,46.761948 L74.5028699,46.761948 C73.7873532,47.9627286 72.7937175,48.8779628 71.5219628,49.5068253 C70.2493829,50.1356877 68.8835465,50.450119 67.4261041,50.450119 C65.8522974,50.450119 64.4443717,50.157145 63.2006766,49.571197 C61.9561561,48.9852491 60.898974,48.1987584 60.0266543,47.2125502 C59.1543346,46.2255167 58.4825576,45.0676506 58.0113234,43.7381264 C57.5392639,42.4086022 57.3024089,40.9858216 57.3024089,39.4697844 C57.3024089,37.9545725 57.5458662,36.5392193 58.0327807,35.2237249 C58.5180446,33.9090558 59.2046766,32.7643941 60.0902007,31.7922156 C60.9773755,30.8208625 62.0345576,30.0550037 63.2650483,29.4979405 C64.4938885,28.940052 65.8382677,28.6611078 67.2965353,28.6611078 C68.2406543,28.6611078 69.0832639,28.7683941 69.8276654,28.9829665 C70.5704164,29.197539 71.2215613,29.4624535 71.7786245,29.7768848 C72.336513,30.091316 72.8151747,30.434632 73.2154349,30.8060074 C73.6156952,31.1782082 73.9449814,31.5355539 74.2024684,31.8780446 L74.3312119,31.8780446 L74.3312119,19.5797398 L79.4784758,19.5797398 L79.4784758,49.8501413 L79.4784758,49.8501413 Z" id="Fill-4" fill="#289BCA"></path>
                <path d="M87.1552193,39.4697844 C87.1552193,40.2711301 87.2765353,41.0716506 87.5191673,41.872171 C87.7617993,42.6726914 88.1265725,43.3882082 88.613487,44.0170706 C89.0995762,44.6459331 89.7135836,45.1600818 90.4579851,45.5611673 C91.2015613,45.9614275 92.0730558,46.161145 93.074119,46.161145 C94.0182379,46.161145 94.8608476,45.9680297 95.6044238,45.5817993 C96.3488253,45.1963941 96.98429,44.6888476 97.5132937,44.0591599 C98.0422974,43.4311227 98.4417323,42.7230335 98.7148996,41.9365428 C98.9855911,41.150052 99.1217621,40.3569591 99.1217621,39.5556134 C99.1217621,38.7559182 98.9855911,37.9545725 98.7148996,37.154052 C98.4417323,36.3535316 98.0422974,35.6388401 97.5132937,35.0091524 C96.98429,34.3811152 96.3488253,33.8661413 95.6044238,33.4650558 C94.8608476,33.0647955 94.0182379,32.8650781 93.074119,32.8650781 C92.0730558,32.8650781 91.2015613,33.0581933 90.4579851,33.4435985 C89.7135836,33.829829 89.0995762,34.3373755 88.613487,34.9662379 C88.1265725,35.5959257 87.7617993,36.3031896 87.5191673,37.0896803 C87.2765353,37.876171 87.1552193,38.6700892 87.1552193,39.4697844 Z M104.097368,49.8501413 L99.2075911,49.8501413 L99.2075911,46.761948 L99.1217621,46.761948 C98.4062454,47.9627286 97.4126097,48.8779628 96.140855,49.5068253 C94.8682751,50.1356877 93.5032639,50.450119 92.0449963,50.450119 C90.4720149,50.450119 89.0640892,50.157145 87.8203941,49.571197 C86.5758736,48.9852491 85.5178662,48.1987584 84.6463717,47.2125502 C83.774052,46.2255167 83.1022751,45.0676506 82.6302156,43.7381264 C82.1581561,42.4086022 81.9221264,40.9858216 81.9221264,39.4697844 C81.9221264,37.9545725 82.1647584,36.5392193 82.6516729,35.2237249 C83.1377621,33.9090558 83.8235688,32.7643941 84.7099182,31.7922156 C85.5962677,30.8208625 86.6542751,30.0550037 87.8839405,29.4979405 C89.1127807,28.940052 90.4579851,28.6611078 91.9162528,28.6611078 C92.8595465,28.6611078 93.7029814,28.7683941 94.4465576,28.9829665 C95.1901338,29.197539 95.8404535,29.4624535 96.3975167,29.7768848 C96.9554052,30.091316 97.4348922,30.434632 97.8351524,30.8060074 C98.2354126,31.1782082 98.5646989,31.5355539 98.8213606,31.8780446 L98.9501041,31.8780446 L98.9501041,19.5797398 L104.097368,19.5797398 L104.097368,49.8501413 L104.097368,49.8501413 Z" id="Fill-5" fill="#289BCA"></path>
                <path d="M108.54232,49.8501413 L113.689584,49.8501413 L113.689584,29.2619108 L108.54232,29.2619108 L108.54232,49.8501413 Z M107.813599,22.270974 C107.813599,21.4415688 108.120602,20.7194498 108.73626,20.1046171 C109.350268,19.4897844 110.130156,19.1819554 111.07345,19.1819554 C112.016743,19.1819554 112.810662,19.4757546 113.453554,20.0617026 C114.097271,20.6476506 114.418305,21.3846245 114.418305,22.270974 C114.418305,23.1573234 114.097271,23.8934721 113.453554,24.4794201 C112.810662,25.065368 112.016743,25.358342 111.07345,25.358342 C110.130156,25.358342 109.350268,25.0521636 108.73626,24.4365056 C108.120602,23.8216729 107.813599,23.1003792 107.813599,22.270974 L107.813599,22.270974 Z" id="Fill-6" fill="#289BCA"></path>
                <path d="M132.545554,37.497368 C132.545554,36.8396208 132.452297,36.2107584 132.26661,35.6099554 C132.080097,35.0091524 131.787123,34.480974 131.387688,34.0229442 C130.986602,33.5657398 130.479056,33.2009665 129.864223,32.9294498 C129.24939,32.6571078 128.527271,32.5217621 127.698691,32.5217621 C126.154595,32.5217621 124.846528,32.9863941 123.773665,33.915658 C122.701628,34.8449219 122.108253,36.0391004 121.994364,37.497368 L132.545554,37.497368 Z M137.692818,39.8131004 L137.692818,40.4997323 C137.692818,40.7291599 137.677963,40.9569368 137.649078,41.185539 L121.994364,41.185539 C122.051309,41.9291152 122.243599,42.6083197 122.572885,43.2231524 C122.901346,43.8379851 123.337918,44.3669888 123.880952,44.8101636 C124.423985,45.2541636 125.039643,45.6032565 125.72545,45.8607435 C126.412082,46.1182305 127.126773,46.246974 127.870349,46.246974 C129.156959,46.246974 130.243026,46.0109442 131.130201,45.53971 C132.015725,45.0676506 132.745271,44.4173309 133.318015,43.5879257 L136.748699,46.332803 C134.717688,49.0776803 131.773093,50.450119 127.913264,50.450119 C126.311398,50.450119 124.8391,50.1992342 123.495546,49.6999405 C122.151167,49.1998216 120.985874,48.4917323 119.999665,47.5764981 C119.013457,46.6620892 118.240996,45.53971 117.683108,44.2093606 C117.126045,42.8798364 116.8471,41.372052 116.8471,39.6843569 C116.8471,38.0263717 117.126045,36.5177621 117.683108,35.1593532 C118.240996,33.8017695 119.00603,32.6439033 119.978208,31.6849294 C120.949561,30.7276059 122.100825,29.984855 123.431175,29.455026 C124.760699,28.9260223 126.197509,28.6611078 127.741606,28.6611078 C129.170989,28.6611078 130.493086,28.8971375 131.708721,29.369197 C132.924357,29.8412565 133.974937,30.5419182 134.861286,31.4703569 C135.747636,32.4004461 136.44087,33.5583123 136.941814,34.9447807 C137.441933,36.3320743 137.692818,37.9545725 137.692818,39.8131004 L137.692818,39.8131004 Z" id="Fill-7" fill="#289BCA"></path>
                <polyline id="Fill-8" fill="#80B645" points="144.645792 19.4823569 153.095822 19.4823569 160.987963 41.0567955 161.115881 41.0567955 168.923019 19.4823569 177.415138 19.4823569 177.415138 49.8501413 172.054126 49.8501413 172.054126 25.4449963 171.968297 25.4449963 162.745807 49.8501413 158.971807 49.8501413 149.878059 25.4449963 149.793056 25.4449963 149.793056 49.8501413 144.645792 49.8501413 144.645792 19.4823569"></polyline>
                <path d="M194.642007,40.4568178 L193.483316,40.4568178 C192.653911,40.4568178 191.781591,40.4931301 190.867182,40.5641041 C189.951123,40.6359033 189.108513,40.7927063 188.336052,41.0353383 C187.564416,41.2787955 186.920699,41.6221115 186.40655,42.0652862 C185.891576,42.508461 185.634089,43.1158662 185.634089,43.8883271 C185.634089,44.3744164 185.741375,44.7821041 185.955948,45.1105651 C186.17052,45.439026 186.449465,45.7039405 186.791955,45.903658 C187.135271,46.1042007 187.521502,46.246974 187.949822,46.332803 C188.378967,46.418632 188.808112,46.4615465 189.237257,46.4615465 C191.00913,46.4615465 192.353509,45.989487 193.268743,45.0461933 C194.183978,44.1020743 194.642007,42.8154647 194.642007,41.185539 L194.642007,40.4568178 Z M194.727011,47.2331822 L194.598268,47.2331822 C194.084119,48.1492416 193.253888,48.8994201 192.110877,49.485368 C190.967041,50.071316 189.666401,50.3651152 188.207309,50.3651152 C187.377903,50.3651152 186.513011,50.257829 185.612632,50.0424312 C184.712253,49.828684 183.882022,49.4713383 183.125242,48.9703941 C182.36681,48.4711004 181.737123,47.8125279 181.237829,46.9971524 C180.736885,46.1826022 180.486825,45.1749368 180.486825,43.9733309 C180.486825,42.4292342 180.922572,41.2003941 181.794892,40.2851599 C182.667212,39.3699257 183.789591,38.6700892 185.16203,38.1831747 C186.534468,37.6970855 188.057933,37.376052 189.730773,37.2184238 C191.402788,37.0616208 193.039316,36.9823941 194.642007,36.9823941 L194.642007,36.4674201 C194.642007,35.1808104 194.175725,34.2309145 193.247286,33.6152565 C192.318022,33.0004238 191.209673,32.6934201 189.923063,32.6934201 C188.836171,32.6934201 187.793019,32.9220223 186.791955,33.3792268 C185.790892,33.8372565 184.961487,34.3943197 184.304565,35.0520669 L181.644691,31.9209591 C182.817413,30.8348922 184.168394,30.0195167 185.698461,29.4764833 C187.227703,28.9334498 188.779227,28.6611078 190.352208,28.6611078 C192.181851,28.6611078 193.690461,28.9185948 194.877212,29.4335688 C196.063138,29.9477175 196.999829,30.6203197 197.687286,31.4488996 C198.373093,32.2791301 198.850929,33.2075688 199.123271,34.2375167 C199.395613,35.2666394 199.530959,36.2957621 199.530959,37.32571 L199.530959,49.8501413 L194.727011,49.8501413 L194.727011,47.2331822 L194.727011,47.2331822 Z" id="Fill-9" fill="#80B645"></path>
                <path d="M217.699472,34.9662379 C217.299212,34.3943197 216.698409,33.915658 215.897888,33.5294275 C215.097368,33.1440223 214.282818,32.9500818 213.453413,32.9500818 C212.510119,32.9500818 211.679888,33.1440223 210.965197,33.5294275 C210.250506,33.915658 209.65713,34.4240297 209.185896,35.0520669 C208.713836,35.6817546 208.363093,36.3890186 208.135316,37.1755093 C207.905063,37.962 207.792,38.7559182 207.792,39.5556134 C207.792,40.3569591 207.913316,41.150052 208.155948,41.9365428 C208.39858,42.7230335 208.763353,43.4311227 209.250268,44.0591599 C209.735532,44.6888476 210.343762,45.1963941 211.072483,45.5817993 C211.80203,45.9680297 212.652892,46.161145 213.625071,46.161145 C214.424766,46.161145 215.226112,46.004342 216.026632,45.6899108 C216.827152,45.3754796 217.470045,44.9174498 217.956959,44.3166468 L221.173896,47.5764981 C220.315606,48.4917323 219.222112,49.1998216 217.892587,49.6999405 C216.563063,50.1992342 215.126253,50.450119 213.582156,50.450119 C212.066119,50.450119 210.629309,50.207487 209.271725,49.7213978 C207.913316,49.2353086 206.72574,48.5197918 205.711472,47.5764981 C204.696379,46.6332045 203.895033,45.489368 203.309086,44.1449888 C202.723138,42.8014349 202.430164,41.271368 202.430164,39.5556134 C202.430164,37.8976283 202.723138,36.3964461 203.309086,35.0520669 C203.895033,33.708513 204.688952,32.5646766 205.690015,31.6205576 C206.690253,30.6772639 207.856372,29.9477175 209.185896,29.4335688 C210.514595,28.9185948 211.937375,28.6611078 213.453413,28.6611078 C214.968625,28.6611078 216.43432,28.9474796 217.849673,29.5193978 C219.265026,30.091316 220.387405,30.8778067 221.21681,31.8780446 L217.699472,34.9662379" id="Fill-10" fill="#80B645"></path>
                <polyline id="Fill-11" fill="#80B645" points="67.0010855 19.5797398 67.0010855 13.1590706 46.9864238 0.135345725 26.9725874 13.1590706 26.9725874 19.5797398 46.9864238 6.49907063 67.0010855 19.5797398"></polyline>
                <polyline id="Fill-12" fill="#80B645" points="61.5113309 7.93670632 61.5113309 0.135345725 56.0207509 0.135345725 56.0207509 4.36407435 61.5113309 7.93670632"></polyline>
                <polyline id="Fill-13" fill="#70726B" points="40.282684 76.3572714 40.3660372 65.9703123 40.3041413 65.9703123 36.488052 76.3572714 34.0006617 76.3572714 30.2893829 65.9703123 30.227487 65.9703123 30.3108401 76.3572714 26.9725874 76.3572714 26.9725874 61.6780372 32.0166914 61.6780372 35.3590706 71.0911673 35.4415985 71.0911673 38.6387286 61.6780372 43.7661859 61.6780372 43.7661859 76.3572714 40.282684 76.3572714"></polyline>
                <path d="M61.8901338,73.2368922 C61.5922082,73.9623123 61.1671896,74.5845725 60.6150781,75.1028476 C60.061316,75.6211227 59.3944907,76.0255093 58.613777,76.3151822 C57.8330632,76.6056803 56.9656952,76.7509294 56.0124981,76.7509294 C55.0444461,76.7509294 54.173777,76.6056803 53.3996654,76.3151822 C52.6255539,76.0255093 51.9694572,75.6211227 51.4297249,75.1028476 C50.8908178,74.5845725 50.4765279,73.9623123 50.1860297,73.2368922 C49.8963569,72.5114721 49.7511078,71.706 49.7511078,70.8213011 L49.7511078,61.6780372 L53.2750483,61.6780372 L53.2750483,70.5316283 C53.2750483,70.9318885 53.3270409,71.312342 53.431026,71.6713383 C53.5341859,72.0311599 53.6934647,72.3521933 53.9080372,72.6352639 C54.1217844,72.9191599 54.4056803,73.1436357 54.7580743,73.3095167 C55.1104684,73.4753978 55.535487,73.5579257 56.0331301,73.5579257 C56.5307732,73.5579257 56.9557918,73.4753978 57.3081859,73.3095167 C57.6605799,73.1436357 57.9469517,72.9191599 58.1681264,72.6352639 C58.3893011,72.3521933 58.5485799,72.0311599 58.6451375,71.6713383 C58.7416952,71.312342 58.7903866,70.9318885 58.7903866,70.5316283 L58.7903866,61.6780372 L62.3357844,61.6780372 L62.3357844,70.8213011 C62.3357844,71.706 62.1872342,72.5114721 61.8901338,73.2368922" id="Fill-14" fill="#70726B"></path>
                <polyline id="Fill-15" fill="#70726B" points="68.319881 76.3572714 68.319881 61.6780372 71.8859108 61.6780372 71.8859108 73.2674275 77.5671301 73.2674275 77.5671301 76.3572714 68.319881 76.3572714"></polyline>
                <polyline id="Fill-16" fill="#70726B" points="86.9926394 64.7051599 86.9926394 76.3572714 83.4480669 76.3572714 83.4480669 64.7051599 79.3010409 64.7051599 79.3010409 61.6780372 91.1396654 61.6780372 91.1396654 64.7051599 86.9926394 64.7051599"></polyline>
                <polygon id="Fill-17" fill="#70726B" points="96.1779926 76.3572714 99.7440223 76.3572714 99.7440223 61.6780372 96.1779926 61.6780372"></polygon>
                <polyline id="Fill-18" fill="#70726B" points="109.398959 64.7051599 109.398959 67.7322825 115.079353 67.7322825 115.079353 70.6554201 109.398959 70.6554201 109.398959 76.3572714 105.894825 76.3572714 105.894825 61.6780372 115.556364 61.6780372 115.556364 64.7051599 109.398959 64.7051599"></polyline>
                <path d="M125.854193,65.596461 L123.987413,70.6347881 L127.678059,70.6347881 L125.854193,65.596461 Z M129.793249,76.3572714 L128.652714,73.4753978 L122.97232,73.4753978 L121.89368,76.3572714 L118.037152,76.3572714 L124.194558,61.6780372 L127.636796,61.6780372 L133.732305,76.3572714 L129.793249,76.3572714 L129.793249,76.3572714 Z" id="Fill-19" fill="#70726B"></path>
                <polyline id="Fill-20" fill="#70726B" points="150.35342 76.3572714 150.436773 65.9703123 150.374877 65.9703123 146.559613 76.3572714 144.072223 76.3572714 140.360119 65.9703123 140.298223 65.9703123 140.381576 76.3572714 137.043323 76.3572714 137.043323 61.6780372 142.087428 61.6780372 145.429807 71.0911673 145.512335 71.0911673 148.709465 61.6780372 153.836922 61.6780372 153.836922 76.3572714 150.35342 76.3572714"></polyline>
                <polygon id="Fill-21" fill="#70726B" points="159.967093 76.3572714 163.533123 76.3572714 163.533123 61.6780372 159.967093 61.6780372"></polygon>
                <polyline id="Fill-22" fill="#70726B" points="169.6831 76.3572714 169.6831 61.6780372 173.24913 61.6780372 173.24913 73.2674275 178.929524 73.2674275 178.929524 76.3572714 169.6831 76.3572714"></polyline>
                <polyline id="Fill-23" fill="#70726B" points="188.734662 70.137145 188.734662 76.3572714 185.189264 76.3572714 185.189264 70.137145 179.673926 61.6780372 183.966201 61.6780372 187.096483 67.1100223 190.227591 61.6780372 194.373792 61.6780372 188.734662 70.137145"></polyline>
            </g>
        </g>
    </g>
</svg>