<?xml version="1.0" encoding="UTF-8"?>
<svg width="157px" height="54px" viewBox="0 0 157 54" version="1.1" xmlns="http://www.w3.org/2000/svg" xmlns:xlink="http://www.w3.org/1999/xlink">
    <defs></defs>
    <g id="Landing" stroke="none" stroke-width="1" fill="none" fill-rule="evenodd">
        <g id="sbl-Landing" transform="translate(-642.000000, -6365.000000)" fill="#FFFFFF">
            <g id="Footer" transform="translate(0.000000, 6331.000000)">
                <g id="multifamily_logo_reverse" transform="translate(642.000000, 34.000000)">
                    <polyline id="Fill-1" points="0 13.7072903 13.8626914 13.7072903 13.8626914 17.0268387 3.82227881 17.0268387 3.82227881 22.8814839 13.286052 22.8814839 13.286052 26.0802581 3.82227881 26.0802581 3.82227881 35.0732903 0 35.0732903 0 13.7072903"></polyline>
                    <path d="M15.3795799,20.5879355 L18.8674312,20.5879355 L18.8674312,23.0022581 L18.9281301,23.0022581 C19.3325948,22.1574194 19.8987286,21.4734194 20.6271152,20.9502581 C21.3549182,20.4270968 22.204119,20.1652258 23.1747175,20.1652258 C23.3159591,20.1652258 23.46829,20.1704516 23.6299591,20.1803226 C23.7922119,20.1907742 23.9334535,20.2157419 24.0548513,20.2558065 L24.0548513,23.5753548 C23.8120558,23.5149677 23.6042788,23.4749032 23.4326877,23.4545806 C23.260513,23.4348387 23.0941747,23.4249677 22.9325056,23.4249677 C22.1031487,23.4249677 21.435461,23.5753548 20.930026,23.8772903 C20.4245911,24.1792258 20.0300483,24.5409677 19.7475651,24.9636774 C19.4639145,25.3863871 19.2718959,25.8189677 19.1709257,26.2614194 C19.0693717,26.703871 19.0191784,27.0563226 19.0191784,27.3176129 L19.0191784,35.0732903 L15.3795799,35.0732903 L15.3795799,20.5879355" id="Fill-2"></path>
                    <path d="M35.3080743,26.3821935 C35.3080743,25.9194194 35.2421227,25.4769677 35.110803,25.0542581 C34.9794833,24.6315484 34.7717063,24.2599355 34.489223,23.9376774 C34.2055725,23.616 33.846632,23.3593548 33.4118178,23.1683226 C32.9775874,22.9767097 32.466316,22.8814839 31.8803383,22.8814839 C30.788342,22.8814839 29.8632677,23.2083871 29.1045316,23.8621935 C28.3463792,24.516 27.9267398,25.3561935 27.846197,26.3821935 L35.3080743,26.3821935 Z M38.9482565,28.0114839 L38.9482565,28.4945806 C38.9482565,28.656 38.9377509,28.8162581 38.9179071,28.9770968 L27.846197,28.9770968 C27.8864684,29.5002581 28.0230409,29.978129 28.2559145,30.4107097 C28.4876208,30.8432903 28.796368,31.2154839 29.1809888,31.5272903 C29.5644424,31.8396774 29.9998401,32.0852903 30.4848476,32.2664516 C30.9704387,32.4476129 31.47529,32.5381935 32.0017361,32.5381935 C32.9122193,32.5381935 33.6802937,32.372129 34.3071264,32.0405806 C34.9339591,31.7084516 35.449316,31.2509032 35.8543643,30.6673548 L38.2805688,32.5985806 C36.8448067,34.5298065 34.7617844,35.4954194 32.0315019,35.4954194 C30.8992342,35.4954194 29.8580149,35.3189032 28.9078439,34.9676129 C27.9570892,34.6157419 27.1329851,34.1175484 26.4355316,33.4736129 C25.7374944,32.8302581 25.1917881,32.0405806 24.7972454,31.1045806 C24.4027026,30.1691613 24.2060149,29.1083226 24.2060149,27.9209032 C24.2060149,26.7543871 24.4027026,25.6929677 24.7972454,24.7372258 C25.1917881,23.7820645 25.7328253,22.9674194 26.4203569,22.2927097 C27.1078885,21.6191613 27.9220706,21.0965806 28.8623197,20.7238065 C29.8025688,20.3516129 30.8186914,20.1652258 31.9112714,20.1652258 C32.9221413,20.1652258 33.8565539,20.3312903 34.7162602,20.6634194 C35.5759665,20.9955484 36.3189442,21.4885161 36.9463606,22.1417419 C37.5726097,22.796129 38.0628699,23.6107742 38.4171413,24.5862581 C38.770829,25.5623226 38.9482565,26.703871 38.9482565,28.0114839 L38.9482565,28.0114839 Z" id="Fill-3"></path>
                    <path d="M44.2255576,27.7699355 C44.2255576,28.3337419 44.3113532,28.8969677 44.4835279,29.4601935 C44.655119,30.0234194 44.9125056,30.5268387 45.256855,30.9692903 C45.6006208,31.4117419 46.0354349,31.7734839 46.5612974,32.0556774 C47.0871599,32.3372903 47.703487,32.4778065 48.4120297,32.4778065 C49.0791338,32.4778065 49.6756171,32.3419355 50.2014796,32.0701935 C50.727342,31.7990323 51.1767472,31.4419355 51.5514461,30.9989032 C51.9249777,30.5570323 52.2080446,30.0588387 52.4006468,29.5054839 C52.5926654,28.952129 52.6889665,28.394129 52.6889665,27.8303226 C52.6889665,27.2676774 52.5926654,26.703871 52.4006468,26.1406452 C52.2080446,25.5774194 51.9249777,25.0745806 51.5514461,24.6315484 C51.1767472,24.1896774 50.727342,23.8273548 50.2014796,23.5451613 C49.6756171,23.2635484 49.0791338,23.1230323 48.4120297,23.1230323 C47.703487,23.1230323 47.0871599,23.2589032 46.5612974,23.5300645 C46.0354349,23.8018065 45.6006208,24.1589032 45.256855,24.6013548 C44.9125056,25.0443871 44.655119,25.542 44.4835279,26.0953548 C44.3113532,26.6487097 44.2255576,27.2072903 44.2255576,27.7699355 Z M56.2077509,35.0732903 L52.7490818,35.0732903 L52.7490818,32.9005161 L52.6889665,32.9005161 C52.182948,33.7453548 51.4802416,34.3892903 50.5808476,34.8317419 C49.6808699,35.2741935 48.7149405,35.4954194 47.6842268,35.4954194 C46.5712193,35.4954194 45.5755242,35.2892903 44.695974,34.8770323 C43.8158401,34.4647742 43.0681933,33.9114194 42.4512825,33.2175484 C41.8343717,32.5230968 41.3592862,31.7084516 41.026026,30.7730323 C40.6921822,29.8376129 40.5246766,28.8365806 40.5246766,27.7699355 C40.5246766,26.703871 40.6968513,25.7080645 41.0412007,24.7825161 C41.3843829,23.8575484 41.869974,23.0521935 42.496223,22.3681935 C43.1236394,21.6847742 43.8712862,21.1459355 44.7414981,20.754 C45.6105428,20.3614839 46.5612974,20.1652258 47.5925948,20.1652258 C48.2602825,20.1652258 48.8561822,20.2407097 49.3826283,20.3916774 C49.9079071,20.5426452 50.3684015,20.7290323 50.7623606,20.9502581 C51.1569033,21.1714839 51.4954164,21.4130323 51.7784833,21.6743226 C52.0615502,21.9361935 52.2944238,22.1876129 52.4765204,22.4285806 L52.5675688,22.4285806 L52.5675688,13.7758065 L56.2077509,13.7758065 L56.2077509,35.0732903 L56.2077509,35.0732903 Z" id="Fill-4"></path>
                    <path d="M61.6367993,27.7699355 C61.6367993,28.3337419 61.7225948,28.8969677 61.8941859,29.4601935 C62.065777,30.0234194 62.3237472,30.5268387 62.6680967,30.9692903 C63.0118625,31.4117419 63.4460929,31.7734839 63.972539,32.0556774 C64.4984015,32.3372903 65.1147286,32.4778065 65.8226877,32.4778065 C66.4903755,32.4778065 67.0862751,32.3419355 67.6121375,32.0701935 C68.1385836,31.7990323 68.5879888,31.4419355 68.9621041,30.9989032 C69.3362193,30.5570323 69.6187026,30.0588387 69.8118885,29.5054839 C70.0033234,28.952129 70.0996245,28.394129 70.0996245,27.8303226 C70.0996245,27.2676774 70.0033234,26.703871 69.8118885,26.1406452 C69.6187026,25.5774194 69.3362193,25.0745806 68.9621041,24.6315484 C68.5879888,24.1896774 68.1385836,23.8273548 67.6121375,23.5451613 C67.0862751,23.2635484 66.4903755,23.1230323 65.8226877,23.1230323 C65.1147286,23.1230323 64.4984015,23.2589032 63.972539,23.5300645 C63.4460929,23.8018065 63.0118625,24.1589032 62.6680967,24.6013548 C62.3237472,25.0443871 62.065777,25.542 61.8941859,26.0953548 C61.7225948,26.6487097 61.6367993,27.2072903 61.6367993,27.7699355 Z M73.6184089,35.0732903 L70.1603234,35.0732903 L70.1603234,32.9005161 L70.0996245,32.9005161 C69.5936059,33.7453548 68.8908996,34.3892903 67.9915056,34.8317419 C67.0915279,35.2741935 66.1261822,35.4954194 65.0948848,35.4954194 C63.982461,35.4954194 62.9867658,35.2892903 62.1072156,34.8770323 C61.2270818,34.4647742 60.4788513,33.9114194 59.8625242,33.2175484 C59.2456134,32.5230968 58.7705279,31.7084516 58.436684,30.7730323 C58.1028401,29.8376129 57.9359182,28.8365806 57.9359182,27.7699355 C57.9359182,26.703871 58.1075093,25.7080645 58.4518587,24.7825161 C58.7956245,23.8575484 59.280632,23.0521935 59.9074647,22.3681935 C60.5342974,21.6847742 61.2825279,21.1459355 62.1521561,20.754 C63.0212007,20.3614839 63.972539,20.1652258 65.0038364,20.1652258 C65.6709405,20.1652258 66.2674238,20.2407097 66.7932862,20.3916774 C67.3191487,20.5426452 67.7790595,20.7290323 68.1730186,20.9502581 C68.5675613,21.1714839 68.906658,21.4130323 69.1897249,21.6743226 C69.4727918,21.9361935 69.7056654,22.1876129 69.8871784,22.4285806 L69.9782268,22.4285806 L69.9782268,13.7758065 L73.6184089,13.7758065 L73.6184089,35.0732903 L73.6184089,35.0732903 Z" id="Fill-5"></path>
                    <path d="M76.7619108,35.0732903 L80.4020929,35.0732903 L80.4020929,20.5879355 L76.7619108,20.5879355 L76.7619108,35.0732903 Z M76.2465539,15.6692903 C76.2465539,15.0857419 76.4636691,14.5776774 76.8990669,14.1450968 C77.3332974,13.7125161 77.8848401,13.4959355 78.5519442,13.4959355 C79.2190483,13.4959355 79.780513,13.7026452 80.235171,14.1149032 C80.6904126,14.5271613 80.9174498,15.0456774 80.9174498,15.6692903 C80.9174498,16.2929032 80.6904126,16.8108387 80.235171,17.2230968 C79.780513,17.6353548 79.2190483,17.8414839 78.5519442,17.8414839 C77.8848401,17.8414839 77.3332974,17.6260645 76.8990669,17.1929032 C76.4636691,16.7603226 76.2465539,16.2528387 76.2465539,15.6692903 L76.2465539,15.6692903 Z" id="Fill-6"></path>
                    <path d="M93.737171,26.3821935 C93.737171,25.9194194 93.6712193,25.4769677 93.5398996,25.0542581 C93.4079963,24.6315484 93.200803,24.2599355 92.9183197,23.9376774 C92.6346691,23.616 92.2757286,23.3593548 91.8409145,23.1683226 C91.4061004,22.9767097 90.8954126,22.8814839 90.3094349,22.8814839 C89.2174387,22.8814839 88.2923643,23.2083871 87.5336283,23.8621935 C86.7754758,24.516 86.3558364,25.3561935 86.2752937,26.3821935 L93.737171,26.3821935 Z M97.3773532,28.0114839 L97.3773532,28.4945806 C97.3773532,28.656 97.3668476,28.8162581 97.3464201,28.9770968 L86.2752937,28.9770968 C86.3155651,29.5002581 86.4515539,29.978129 86.6844275,30.4107097 C86.9167175,30.8432903 87.2254647,31.2154839 87.6095019,31.5272903 C87.993539,31.8396774 88.4289368,32.0852903 88.9139442,32.2664516 C89.3995353,32.4476129 89.9049703,32.5381935 90.4308327,32.5381935 C91.3407323,32.5381935 92.1088067,32.372129 92.736223,32.0405806 C93.3624721,31.7084516 93.8784126,31.2509032 94.283461,30.6673548 L96.7096654,32.5985806 C95.2733197,34.5298065 93.190881,35.4954194 90.4611822,35.4954194 C89.3283309,35.4954194 88.2871115,35.3189032 87.3369405,34.9676129 C86.3861859,34.6157419 85.5620818,34.1175484 84.8646283,33.4736129 C84.1671747,32.8302581 83.6208848,32.0405806 83.226342,31.1045806 C82.8323829,30.1691613 82.6351115,29.1083226 82.6351115,27.9209032 C82.6351115,26.7543871 82.8323829,25.6929677 83.226342,24.7372258 C83.6208848,23.7820645 84.1619219,22.9674194 84.8494535,22.2927097 C85.5364015,21.6191613 86.3505836,21.0965806 87.2914164,20.7238065 C88.2316654,20.3516129 89.2477881,20.1652258 90.3397844,20.1652258 C91.3506543,20.1652258 92.2856506,20.3312903 93.1453569,20.6634194 C94.0050632,20.9955484 94.7480409,21.4885161 95.3748736,22.1417419 C96.0017063,22.796129 96.4919665,23.6107742 96.8462379,24.5862581 C97.1999257,25.5623226 97.3773532,26.703871 97.3773532,28.0114839 L97.3773532,28.0114839 Z" id="Fill-7"></path>
                    <polyline id="Fill-8" points="102.294546 13.7072903 108.270468 13.7072903 113.851848 28.8865161 113.942312 28.8865161 119.463576 13.7072903 125.469264 13.7072903 125.469264 35.0732903 121.677918 35.0732903 121.677918 17.9024516 121.617219 17.9024516 115.095007 35.0732903 112.426007 35.0732903 105.994844 17.9024516 105.934729 17.9024516 105.934729 35.0732903 102.294546 35.0732903 102.294546 13.7072903"></polyline>
                    <path d="M137.65223,28.4643871 L136.832796,28.4643871 C136.246234,28.4643871 135.629323,28.4899355 134.982647,28.539871 C134.334803,28.5903871 133.738903,28.7007097 133.192613,28.8714194 C132.646907,29.0427097 132.191665,29.2842581 131.828056,29.5960645 C131.463862,29.907871 131.281766,30.3352258 131.281766,30.8787097 C131.281766,31.2207097 131.357639,31.5075484 131.509387,31.7386452 C131.661134,31.9697419 131.858405,32.156129 132.100617,32.2966452 C132.343413,32.4377419 132.616558,32.5381935 132.919468,32.5985806 C133.222963,32.6589677 133.526457,32.6891613 133.829952,32.6891613 C135.083033,32.6891613 136.033788,32.3570323 136.681048,31.6933548 C137.328309,31.0290968 137.65223,30.123871 137.65223,28.9770968 L137.65223,28.4643871 Z M137.712346,33.2320645 L137.621297,33.2320645 C137.257688,33.8765806 136.670543,34.4043871 135.862197,34.8166452 C135.053268,35.2289032 134.133446,35.4356129 133.101565,35.4356129 C132.515004,35.4356129 131.903346,35.360129 131.266591,35.2085806 C130.629836,35.0581935 130.042691,34.8067742 129.507491,34.4543226 C128.971123,34.1030323 128.525803,33.6396774 128.172699,33.066 C127.818428,32.4929032 127.641584,31.7839355 127.641584,30.9385161 C127.641584,29.852129 127.949747,28.9875484 128.566658,28.3436129 C129.183569,27.6996774 129.977323,27.2072903 130.947922,26.8647097 C131.91852,26.5227097 132.995926,26.2968387 134.17897,26.1859355 C135.361431,26.0756129 136.518796,26.019871 137.65223,26.019871 L137.65223,25.6575484 C137.65223,24.7523226 137.322472,24.084 136.665874,23.6508387 C136.008691,23.2182581 135.224859,23.0022581 134.314959,23.0022581 C133.546301,23.0022581 132.808576,23.1630968 132.100617,23.4847742 C131.392658,23.8070323 130.806097,24.1989677 130.341517,24.6617419 L128.460435,22.4587742 C129.289792,21.6946452 130.245216,21.1209677 131.32729,20.7389032 C132.408781,20.3568387 133.50603,20.1652258 134.618454,20.1652258 C135.91239,20.1652258 136.97929,20.3463871 137.818569,20.7087097 C138.657264,21.0704516 139.319699,21.5436774 139.805874,22.1266452 C140.290881,22.7107742 140.62881,23.364 140.821413,24.0886452 C141.014015,24.8127097 141.109732,25.5367742 141.109732,26.2614194 L141.109732,35.0732903 L137.712346,35.0732903 L137.712346,33.2320645 L137.712346,33.2320645 Z" id="Fill-9"></path>
                    <path d="M153.958636,24.6013548 C153.675569,24.1989677 153.250677,23.8621935 152.684543,23.5904516 C152.118409,23.3192903 151.542353,23.1828387 150.955792,23.1828387 C150.288688,23.1828387 149.701543,23.3192903 149.196108,23.5904516 C148.690673,23.8621935 148.271033,24.219871 147.937773,24.6617419 C147.603929,25.1047742 147.355881,25.6023871 147.194796,26.1557419 C147.031959,26.7090968 146.952,27.2676774 146.952,27.8303226 C146.952,28.394129 147.037796,28.952129 147.209387,29.5054839 C147.380978,30.0588387 147.638948,30.5570323 147.983297,30.9989032 C148.32648,31.4419355 148.756625,31.7990323 149.271981,32.0701935 C149.787922,32.3419355 150.389658,32.4778065 151.07719,32.4778065 C151.64274,32.4778065 152.209457,32.3674839 152.775591,32.1462581 C153.341725,31.9250323 153.796383,31.6027742 154.140732,31.1800645 L156.415773,33.4736129 C155.808784,34.1175484 155.035457,34.6157419 154.095208,34.9676129 C153.154959,35.3189032 152.138836,35.4954194 151.04684,35.4954194 C149.974688,35.4954194 148.958565,35.3247097 147.998472,34.9827097 C147.037796,34.6407097 146.197933,34.1372903 145.480636,33.4736129 C144.762755,32.8099355 144.196037,32.0051613 143.781651,31.0592903 C143.367264,30.114 143.160071,29.0374839 143.160071,27.8303226 C143.160071,26.6638065 143.367264,25.6076129 143.781651,24.6617419 C144.196037,23.7164516 144.757502,22.9116774 145.465461,22.2474194 C146.172836,21.5837419 146.997524,21.0704516 147.937773,20.7087097 C148.877439,20.3463871 149.883639,20.1652258 150.955792,20.1652258 C152.027361,20.1652258 153.063911,20.3667097 154.064859,20.7690968 C155.065807,21.1714839 155.859561,21.7248387 156.446123,22.4285806 L153.958636,24.6013548" id="Fill-10"></path>
                    <polyline id="Fill-11" points="47.3836506 13.7758065 47.3836506 9.2583871 33.2291375 0.0952258065 19.0752082 9.2583871 19.0752082 13.7758065 33.2291375 4.57258065 47.3836506 13.7758065"></polyline>
                    <polyline id="Fill-12" points="43.5012565 5.58406452 43.5012565 0.0952258065 39.6182788 0.0952258065 39.6182788 3.07045161 43.5012565 5.58406452"></polyline>
                    <polyline id="Fill-13" points="28.4882045 53.7230323 28.5471524 46.4150323 28.5033792 46.4150323 25.8046134 53.7230323 24.045513 53.7230323 21.4208699 46.4150323 21.3770967 46.4150323 21.4360446 53.7230323 19.0752082 53.7230323 19.0752082 43.3950968 22.6424349 43.3950968 25.0061896 50.0179355 25.0645539 50.0179355 27.3255874 43.3950968 30.9517621 43.3950968 30.9517621 53.7230323 28.4882045 53.7230323"></polyline>
                    <path d="M43.7691487,51.5276129 C43.5584535,52.038 43.2578773,52.4758065 42.8674201,52.8404516 C42.4757955,53.2050968 42.0042119,53.4896129 41.4520855,53.6934194 C40.8999591,53.8978065 40.2865502,54 39.6124424,54 C38.927829,54 38.3120855,53.8978065 37.7646283,53.6934194 C37.217171,53.4896129 36.7531747,53.2050968 36.3714721,52.8404516 C35.9903532,52.4758065 35.6973643,52.038 35.4919219,51.5276129 C35.2870632,51.0172258 35.184342,50.4505161 35.184342,49.8280645 L35.184342,43.3950968 L37.6764981,43.3950968 L37.6764981,49.6242581 C37.6764981,49.905871 37.7132677,50.1735484 37.7868067,50.426129 C37.8597621,50.6792903 37.9724052,50.9051613 38.1241524,51.1043226 C38.275316,51.3040645 38.4760892,51.462 38.7253048,51.5787097 C38.9745204,51.6954194 39.2750967,51.7534839 39.6270335,51.7534839 C39.9789703,51.7534839 40.2795465,51.6954194 40.5287621,51.5787097 C40.7779777,51.462 40.9805019,51.3040645 41.1369182,51.1043226 C41.2933346,50.9051613 41.4059777,50.6792903 41.4742639,50.426129 C41.5425502,50.1735484 41.5769851,49.905871 41.5769851,49.6242581 L41.5769851,43.3950968 L44.084316,43.3950968 L44.084316,49.8280645 C44.084316,50.4505161 43.9792602,51.0172258 43.7691487,51.5276129" id="Fill-14"></path>
                    <polyline id="Fill-15" points="48.3163123 53.7230323 48.3163123 43.3950968 50.8382342 43.3950968 50.8382342 51.5490968 54.8560335 51.5490968 54.8560335 53.7230323 48.3163123 53.7230323"></polyline>
                    <polyline id="Fill-16" points="61.5218216 45.5249032 61.5218216 53.7230323 59.0150743 53.7230323 59.0150743 45.5249032 56.0822677 45.5249032 56.0822677 43.3950968 64.4546283 43.3950968 64.4546283 45.5249032 61.5218216 45.5249032"></polyline>
                    <polygon id="Fill-17" points="68.0177695 53.7230323 70.5396914 53.7230323 70.5396914 43.3950968 68.0177695 43.3950968"></polygon>
                    <polyline id="Fill-18" points="77.3677323 45.5249032 77.3677323 47.6547097 81.384948 47.6547097 81.384948 49.7113548 77.3677323 49.7113548 77.3677323 53.7230323 74.8895836 53.7230323 74.8895836 43.3950968 81.7222937 43.3950968 81.7222937 45.5249032 77.3677323 45.5249032"></polyline>
                    <path d="M89.0049926,46.152 L87.6847918,49.6968387 L90.2948439,49.6968387 L89.0049926,46.152 Z M91.7907212,53.7230323 L90.9841264,51.6954194 L86.9669108,51.6954194 L86.2040892,53.7230323 L83.4767249,53.7230323 L87.8312862,43.3950968 L90.2656617,43.3950968 L94.5764498,53.7230323 L91.7907212,53.7230323 L91.7907212,53.7230323 Z" id="Fill-19"></path>
                    <polyline id="Fill-20" points="106.331022 53.7230323 106.38997 46.4150323 106.346197 46.4150323 103.648015 53.7230323 101.888914 53.7230323 99.2636877 46.4150323 99.2199145 46.4150323 99.2788625 53.7230323 96.918026 53.7230323 96.918026 43.3950968 100.485253 43.3950968 102.849007 50.0179355 102.907372 50.0179355 105.168405 43.3950968 108.79458 43.3950968 108.79458 53.7230323 106.331022 53.7230323"></polyline>
                    <polygon id="Fill-21" points="113.129881 53.7230323 115.651803 53.7230323 115.651803 43.3950968 113.129881 43.3950968"></polygon>
                    <polyline id="Fill-22" points="120.001112 53.7230323 120.001112 43.3950968 122.523033 43.3950968 122.523033 51.5490968 126.540249 51.5490968 126.540249 53.7230323 120.001112 53.7230323"></polyline>
                    <polyline id="Fill-23" points="133.474513 49.3467097 133.474513 53.7230323 130.967182 53.7230323 130.967182 49.3467097 127.066695 43.3950968 130.102223 43.3950968 132.315981 47.2169032 134.530323 43.3950968 137.462546 43.3950968 133.474513 49.3467097"></polyline>
                </g>
            </g>
        </g>
    </g>
</svg>