<?xml version="1.0" encoding="UTF-8"?>
<svg width="137px" height="140px" viewBox="0 0 137 140" version="1.1" xmlns="http://www.w3.org/2000/svg" xmlns:xlink="http://www.w3.org/1999/xlink">
    <!-- Generator: Sketch 48.1 (47250) - http://www.bohemiancoding.com/sketch -->
    <title>Our Solutions_Conventional</title>
    <desc>Created with Sketch.</desc>
    <defs></defs>
    <g id="Multifamily-Awards" stroke="none" stroke-width="1" fill="none" fill-rule="evenodd" transform="translate(-197.000000, -1817.000000)">
        <g id="Recognizing-Exceptional-Sellers" transform="translate(1.000000, 751.000000)">
            <g id="Group-8" transform="translate(194.000000, 935.000000)">
                <g id="Our-Solutions_Conventional" transform="translate(2.000000, 131.000000)">
                    <path d="M68.0555556,140 C105.641601,140 136.111111,108.659932 136.111111,70 C136.111111,31.3400675 105.641601,2.36723813e-15 68.0555556,0 C30.4695101,-2.36723813e-15 4.60296303e-15,31.3400675 0,70 C-4.60296303e-15,108.659932 30.4695101,140 68.0555556,140" id="Shape" fill="#84BC3C" fill-rule="nonzero"></path>
                    <path d="M90.5,28 L45,28 L38,35.2179687 L97.5,35.2179687 L90.5,28 Z M55.5,53.2628906 L45,53.2628906 L45,42.4359375 L55.5,42.4359375 L55.5,53.2628906 Z M90.5,53.2628906 L80,53.2628906 L80,42.4359375 L90.5,42.4359375 L90.5,53.2628906 Z M73,53.2628906 L62.5,53.2628906 L62.5,42.4359375 L73,42.4359375 L73,53.2628906 Z M55.5,71.3078125 L45,71.3078125 L45,60.4808594 L55.5,60.4808594 L55.5,71.3078125 Z M90.5,71.3078125 L80,71.3078125 L80,60.4808594 L90.5,60.4808594 L90.5,71.3078125 Z M73,71.3078125 L62.5,71.3078125 L62.5,60.4808594 L73,60.4808594 L73,71.3078125 Z M55.5,89.3527344 L45,89.3527344 L45,78.5257812 L55.5,78.5257812 L55.5,89.3527344 Z M90.5,89.3527344 L80,89.3527344 L80,78.5257812 L90.5,78.5257812 L90.5,89.3527344 Z M73,89.3527344 L62.5,89.3527344 L62.5,78.5257812 L73,78.5257812 L73,89.3527344 Z M73,111.006641 L62.5,111.006641 L62.5,96.5707031 L73,96.5707031 L73,111.006641 Z M97.5,111.006641 L38,111.006641 L38,35.2179687 L97.5,35.2179687 L97.5,111.006641 Z" id="Shape" stroke="#FFFFFF" stroke-width="3" stroke-linecap="round" stroke-linejoin="round"></path>
                </g>
            </g>
        </g>
    </g>
</svg>