<?xml version="1.0" encoding="utf-8"?>
<!-- Generator: Adobe Illustrator 22.0.1, SVG Export Plug-In . SVG Version: 6.00 Build 0)  -->
<svg version="1.1" id="Layer_1" xmlns="http://www.w3.org/2000/svg" xmlns:xlink="http://www.w3.org/1999/xlink" x="0px" y="0px"
	 viewBox="0 0 140 140" style="enable-background:new 0 0 140 140;" xml:space="preserve">
<style type="text/css">
	.st0{fill:#84BC3C;}
	.st1{fill:none;stroke:#FFFFFF;stroke-width:2;stroke-linejoin:round;}
	.st2{fill:none;stroke:#FFFFFF;stroke-width:2;stroke-linecap:square;}
</style>
<title>Our Solutions_Student</title>
<desc>Created with Sketch.</desc>
<g id="Multifamily-Awards" transform="translate(-888.000000, -2130.000000)">
	<g id="Recognizing-Exceptional-Sellers" transform="translate(1.000000, 751.000000)">
		<g id="Group-8" transform="translate(194.000000, 935.000000)">
			<g id="Our-Solutions_Student" transform="translate(693.000000, 444.000000)">
				<path id="Shape" class="st0" d="M140,70c0-38.7-31.3-70-70-70S0,31.3,0,70s31.3,70,70,70S140,108.7,140,70z"/>
				<g id="Group-4" transform="translate(21.000000, 46.000000)">
					<path id="Shape_1_" class="st1" d="M59.7-2.3V35V-2.3z M86.8,25.1v10H71.4v-10c0-2,2.8-5.5,6.2-5.5h3.1
						C84.1,19.6,86.8,23.1,86.8,25.1z M59.7,42.3H98H59.7z M59.7,38.7H98H59.7z M98,35H59.7v11H98V35z M59.6,46H0V-2.5h98v36.7
						L59.6,46z"/>
					<path id="Line" class="st2" d="M79,20v14"/>
					<path id="Path" class="st1" d="M14,11.7C14,9.7,12.4,8,10.5,8S7,9.7,7,11.7V21h7V11.7z"/>
					<path id="Path_1_" class="st1" d="M26,11.7C26,9.7,24.4,8,22.5,8S19,9.7,19,11.7V21h7V11.7z"/>
					<path id="Path_2_" class="st1" d="M38,11.7C38,9.7,36.4,8,34.5,8S31,9.7,31,11.7V21h7V11.7z"/>
					<path id="Path_3_" class="st1" d="M51,11.7C51,9.7,49.4,8,47.5,8S44,9.7,44,11.7V21h7V11.7z"/>
					<path id="Path_4_" class="st1" d="M73,8.6C73,7.2,71.4,6,69.5,6S66,7.2,66,8.6V15h7V8.6z"/>
					<path id="Path_5_" class="st1" d="M84,8.6C84,7.2,82.4,6,80.5,6S77,7.2,77,8.6V15h7V8.6z"/>
					<path id="Path_6_" class="st1" d="M94,8.6C94,7.2,92.4,6,90.5,6S87,7.2,87,8.6V15h7V8.6z"/>
					<path id="Path_7_" class="st1" d="M14,30.7c0-2.1-1.6-3.7-3.5-3.7S7,28.7,7,30.7V40h7V30.7z"/>
					<path id="Path_8_" class="st1" d="M26,30.7c0-2.1-1.6-3.7-3.5-3.7S19,28.7,19,30.7V40h7V30.7z"/>
					<path id="Path_9_" class="st1" d="M38,30.7c0-2.1-1.6-3.7-3.5-3.7S31,28.7,31,30.7V40h7V30.7z"/>
					<path id="Path_10_" class="st1" d="M51,30.7c0-2.1-1.6-3.7-3.5-3.7S44,28.7,44,30.7V40h7V30.7z"/>
				</g>
			</g>
		</g>
	</g>
</g>
</svg>
