<?xml version="1.0" encoding="UTF-8"?>
<svg width="141px" height="141px" viewBox="0 0 141 141" version="1.1" xmlns="http://www.w3.org/2000/svg" xmlns:xlink="http://www.w3.org/1999/xlink">
    <!-- Generator: Sketch 48.1 (47250) - http://www.bohemiancoding.com/sketch -->
    <title>Our Solutions_SBL</title>
    <desc>Created with Sketch.</desc>
    <defs></defs>
    <g id="Multifamily-Awards" stroke="none" stroke-width="1" fill="none" fill-rule="evenodd" transform="translate(-731.000000, -1818.000000)">
        <g id="Recognizing-Exceptional-Sellers" transform="translate(1.000000, 751.000000)">
            <g id="Group-8" transform="translate(194.000000, 935.000000)">
                <g id="Our-Solutions_SBL" transform="translate(536.000000, 132.000000)">
                    <path d="M70.9101562,140.910156 C109.570089,140.910156 140.910156,109.570089 140.910156,70.9101562 C140.910156,32.2502238 109.570089,0.91015625 70.9101562,0.91015625 C32.2502238,0.91015625 0.91015625,32.2502238 0.91015625,70.9101562 C0.91015625,109.570089 32.2502238,140.910156 70.9101562,140.910156" id="Shape" fill="#84BC3C" fill-rule="nonzero"></path>
                    <path d="M78.7449277,36.2441987 L78.7449277,89.8629292 L78.7449277,36.2441987 Z M78.7449277,102.479101 L107.131314,102.479101 L78.7449277,102.479101 Z M78.7449277,96.1710151 L107.131314,96.1710151 L78.7449277,96.1710151 Z M107.131314,89.8629292 L78.7449277,89.8629292 L78.7449277,108.787187 L107.131314,108.787187 L107.131314,89.8629292 Z M100.788184,70.9386714 C100.788184,67.4548117 97.9639573,64.6305854 94.4800977,64.6305854 L91.3260547,64.6305854 C87.842195,64.6305854 85.0179688,67.4548117 85.0179688,70.9386714 L85.0179688,89.8629292 L100.788184,89.8629292 L100.788184,70.9386714 Z M72.4017969,80.4008003 C72.4017969,76.9169406 69.5775706,74.0927144 66.0937109,74.0927144 C62.6098513,74.0927144 59.785625,76.9169406 59.785625,80.4008003 L59.785625,96.1710151 L72.4017969,96.1710151 L72.4017969,80.4008003 Z M53.4775391,80.4008003 C53.477539,76.9169407 50.6533127,74.0927145 47.1694531,74.0927145 C43.6855935,74.0927145 40.8613673,76.9169407 40.8613672,80.4008003 L40.8613672,96.1710151 L53.4775391,96.1710151 L53.4775391,80.4008003 Z M72.4017969,48.8603706 C72.4017969,45.3765109 69.5775706,42.5522847 66.0937109,42.5522847 C62.6098513,42.5522847 59.785625,45.3765109 59.785625,48.8603706 L59.785625,64.6305854 L72.4017969,64.6305854 L72.4017969,48.8603706 Z M53.4775391,48.8603706 C53.477539,45.376511 50.6533127,42.5522849 47.1694531,42.5522849 C43.6855935,42.5522849 40.8613673,45.376511 40.8613672,48.8603706 L40.8613672,64.6305854 L53.4775391,64.6305854 L53.4775391,48.8603706 Z M78.7098828,108.787187 L34.5883262,108.787187 L34.5883262,36.2441987 L107.131314,36.2441987 L107.131314,89.8629292 L78.7098828,108.787187 Z" id="Shape" stroke="#FFFFFF" stroke-width="3" stroke-linejoin="round"></path>
                </g>
            </g>
        </g>
    </g>
</svg>