<?xml version="1.0" encoding="UTF-8"?>
<svg width="140px" height="140px" viewBox="0 0 140 140" version="1.1" xmlns="http://www.w3.org/2000/svg" xmlns:xlink="http://www.w3.org/1999/xlink">
    <!-- Generator: Sketch 48.1 (47250) - http://www.bohemiancoding.com/sketch -->
    <title>Our Solutions_Conventional_Structured</title>
    <desc>Created with Sketch.</desc>
    <defs></defs>
    <g id="Multifamily-Awards" stroke="none" stroke-width="1" fill="none" fill-rule="evenodd" transform="translate(-296.000000, -2140.000000)">
        <g id="Recognizing-Exceptional-Sellers" transform="translate(1.000000, 751.000000)">
            <g id="Group-8" transform="translate(194.000000, 935.000000)">
                <g id="Our-Solutions_Conventional_Structured" transform="translate(101.000000, 454.000000)">
                    <path d="M70,140 C108.659932,140 140,108.659932 140,70 C140,31.3400675 108.659932,2.36723812e-15 70,0 C31.3400675,-2.36723812e-15 4.73447626e-15,31.3400675 0,70 C-4.73447626e-15,108.659932 31.3400675,140 70,140" id="Shape" fill="#84BC3C" fill-rule="nonzero"></path>
                    <path d="M114.796833,47.7868535 L95.302186,47.7868535 L92.3030092,51.673948 L117.79601,51.673948 L114.796833,47.7868535 Z M99.8009508,61.3916844 L95.302186,61.3916844 L95.302186,55.5610426 L99.8009508,55.5610426 L99.8009508,61.3916844 Z M114.796833,61.3916844 L110.298068,61.3916844 L110.298068,55.5610426 L114.796833,55.5610426 L114.796833,61.3916844 Z M107.298892,61.3916844 L102.800127,61.3916844 L102.800127,55.5610426 L107.298892,55.5610426 L107.298892,61.3916844 Z M99.8009508,71.1094207 L95.302186,71.1094207 L95.302186,65.2787789 L99.8009508,65.2787789 L99.8009508,71.1094207 Z M114.796833,71.1094207 L110.298068,71.1094207 L110.298068,65.2787789 L114.796833,65.2787789 L114.796833,71.1094207 Z M107.298892,71.1094207 L102.800127,71.1094207 L102.800127,65.2787789 L107.298892,65.2787789 L107.298892,71.1094207 Z M99.8009508,80.827157 L95.302186,80.827157 L95.302186,74.9965152 L99.8009508,74.9965152 L99.8009508,80.827157 Z M114.796833,80.827157 L110.298068,80.827157 L110.298068,74.9965152 L114.796833,74.9965152 L114.796833,80.827157 Z M107.298892,80.827157 L102.800127,80.827157 L102.800127,74.9965152 L107.298892,74.9965152 L107.298892,80.827157 Z M107.298892,92.4884405 L102.800127,92.4884405 L102.800127,84.7142515 L107.298892,84.7142515 L107.298892,92.4884405 Z M117.79601,92.4884405 L92.3030092,92.4884405 L92.3030092,51.673948 L117.79601,51.673948 L117.79601,92.4884405 Z" id="Shape" stroke="#FFFFFF" stroke-width="2" stroke-linecap="round" stroke-linejoin="round"></path>
                    <path d="M82.0746504,43.0289571 L57.2902915,43.0289571 L53.4773132,47.7435119 L85.8876287,47.7435119 L82.0746504,43.0289571 Z M63.009759,59.5298989 L57.2902915,59.5298989 L57.2902915,52.4580666 L63.009759,52.4580666 L63.009759,59.5298989 Z M82.0746504,59.5298989 L76.3551829,59.5298989 L76.3551829,52.4580666 L82.0746504,52.4580666 L82.0746504,59.5298989 Z M72.5422046,59.5298989 L66.8227373,59.5298989 L66.8227373,52.4580666 L72.5422046,52.4580666 L72.5422046,59.5298989 Z M63.009759,71.3162857 L57.2902915,71.3162857 L57.2902915,64.2444536 L63.009759,64.2444536 L63.009759,71.3162857 Z M82.0746504,71.3162857 L76.3551829,71.3162857 L76.3551829,64.2444536 L82.0746504,64.2444536 L82.0746504,71.3162857 Z M72.5422046,71.3162857 L66.8227373,71.3162857 L66.8227373,64.2444536 L72.5422046,64.2444536 L72.5422046,71.3162857 Z M63.009759,83.1026727 L57.2902915,83.1026727 L57.2902915,76.0308405 L63.009759,76.0308405 L63.009759,83.1026727 Z M82.0746504,83.1026727 L76.3551829,83.1026727 L76.3551829,76.0308405 L82.0746504,76.0308405 L82.0746504,83.1026727 Z M72.5422046,83.1026727 L66.8227373,83.1026727 L66.8227373,76.0308405 L72.5422046,76.0308405 L72.5422046,83.1026727 Z M72.5422046,97.2463369 L66.8227373,97.2463369 L66.8227373,87.8172275 L72.5422046,87.8172275 L72.5422046,97.2463369 Z M85.8876287,97.2463369 L53.4773132,97.2463369 L53.4773132,47.7435119 L85.8876287,47.7435119 L85.8876287,97.2463369 Z" id="Shape" stroke="#FFFFFF" stroke-width="2" stroke-linecap="round" stroke-linejoin="round"></path>
                    <path d="M44.6978142,47.7868535 L25.2031666,47.7868535 L22.2039901,51.673948 L47.6969908,51.673948 L44.6978142,47.7868535 Z M29.7019315,61.3916844 L25.2031666,61.3916844 L25.2031666,55.5610426 L29.7019315,55.5610426 L29.7019315,61.3916844 Z M44.6978142,61.3916844 L40.1990494,61.3916844 L40.1990494,55.5610426 L44.6978142,55.5610426 L44.6978142,61.3916844 Z M37.1998728,61.3916844 L32.701108,61.3916844 L32.701108,55.5610426 L37.1998728,55.5610426 L37.1998728,61.3916844 Z M29.7019315,71.1094207 L25.2031666,71.1094207 L25.2031666,65.2787789 L29.7019315,65.2787789 L29.7019315,71.1094207 Z M44.6978142,71.1094207 L40.1990494,71.1094207 L40.1990494,65.2787789 L44.6978142,65.2787789 L44.6978142,71.1094207 Z M37.1998728,71.1094207 L32.701108,71.1094207 L32.701108,65.2787789 L37.1998728,65.2787789 L37.1998728,71.1094207 Z M29.7019315,80.827157 L25.2031666,80.827157 L25.2031666,74.9965152 L29.7019315,74.9965152 L29.7019315,80.827157 Z M44.6978142,80.827157 L40.1990494,80.827157 L40.1990494,74.9965152 L44.6978142,74.9965152 L44.6978142,80.827157 Z M37.1998728,80.827157 L32.701108,80.827157 L32.701108,74.9965152 L37.1998728,74.9965152 L37.1998728,80.827157 Z M37.1998728,92.4884405 L32.701108,92.4884405 L32.701108,84.7142515 L37.1998728,84.7142515 L37.1998728,92.4884405 Z M47.6969908,92.4884405 L22.2039901,92.4884405 L22.2039901,51.673948 L47.6969908,51.673948 L47.6969908,92.4884405 Z" id="Shape" stroke="#FFFFFF" stroke-width="2" stroke-linecap="round" stroke-linejoin="round"></path>
                </g>
            </g>
        </g>
    </g>
</svg>