<?xml version="1.0" encoding="UTF-8"?>
<svg width="140px" height="140px" viewBox="0 0 140 140" version="1.1" xmlns="http://www.w3.org/2000/svg" xmlns:xlink="http://www.w3.org/1999/xlink">
    <!-- Generator: Sketch 48.1 (47250) - http://www.bohemiancoding.com/sketch -->
    <title>Our Solutions_TAH</title>
    <desc>Created with Sketch.</desc>
    <defs></defs>
    <g id="Multifamily-Awards" stroke="none" stroke-width="1" fill="none" fill-rule="evenodd" transform="translate(-460.000000, -1819.000000)">
        <g id="Recognizing-Exceptional-Sellers" transform="translate(1.000000, 751.000000)">
            <g id="Group-8" transform="translate(194.000000, 935.000000)">
                <g id="Our-Solutions_TAH" transform="translate(265.000000, 133.000000)">
                    <path d="M70,140 C108.659932,140 140,108.659932 140,70 C140,31.3400675 108.659932,2.36723813e-15 70,0 C31.3400675,-2.36723813e-15 4.73447626e-15,31.3400675 0,70 C-4.73447626e-15,108.659932 31.3400675,140 70,140" id="Shape" fill="#84BC3C" fill-rule="nonzero"></path>
                    <path d="M91.4706628,98.7380591 L84.4911707,98.7380591 L84.4911707,91.7585669 L91.4706628,91.7585669 L91.4706628,98.7380591 Z M60.062948,98.7380591 L53.0834558,98.7380591 L53.0834558,91.7585669 L60.062948,91.7585669 L60.062948,98.7380591 Z M91.4706628,84.7790747 L84.4911707,84.7790747 L84.4911707,77.7995825 L91.4706628,77.7995825 L91.4706628,84.7790747 Z M77.5116785,84.7790747 L67.0424402,84.7790747 L67.0424402,77.7995825 L77.5116785,77.7995825 L77.5116785,84.7790747 Z M60.062948,84.7790747 L53.0834558,84.7790747 L53.0834558,77.7995825 L60.062948,77.7995825 L60.062948,84.7790747 Z M91.4706628,70.8200903 L84.4911707,70.8200903 L84.4911707,63.8405981 L91.4706628,63.8405981 L91.4706628,70.8200903 Z M77.5116785,70.8200903 L67.0424402,70.8200903 L67.0424402,63.8405981 L77.5116785,63.8405981 L77.5116785,70.8200903 Z M60.062948,70.8200903 L53.0834558,70.8200903 L53.0834558,63.8405981 L60.062948,63.8405981 L60.062948,70.8200903 Z M91.4706628,56.861106 L84.4911707,56.861106 L84.4911707,49.8816138 L91.4706628,49.8816138 L91.4706628,56.861106 Z M77.5116785,56.861106 L67.0424402,56.861106 L67.0424402,49.8816138 L77.5116785,49.8816138 L77.5116785,56.861106 Z M60.062948,56.861106 L53.0834558,56.861106 L53.0834558,49.8816138 L60.062948,49.8816138 L60.062948,56.861106 Z M77.5116785,109.207297 L67.0424402,109.207297 L67.0424402,91.7585669 L77.5116785,91.7585669 L77.5116785,109.207297 Z M101.939901,39.4123755 L72.2770593,28.9431372 L42.6142175,39.4123755 L42.6142175,42.9021216 L101.939901,42.9021216 L101.939901,39.4123755 Z M98.450155,109.207297 L46.1039636,109.207297 L46.1039636,42.9021216 L98.450155,42.9021216 L98.450155,109.207297 Z M32.1449792,109.207297 L112.409139,109.207297 L32.1449792,109.207297 Z" id="Shape" stroke="#FFFFFF" stroke-width="3" stroke-linecap="round" stroke-linejoin="round"></path>
                </g>
            </g>
        </g>
    </g>
</svg>