<?xml version="1.0" encoding="utf-8"?>
<!-- Generator: Adobe Illustrator 22.0.1, SVG Export Plug-In . SVG Version: 6.00 Build 0)  -->
<svg version="1.1" id="Layer_1" xmlns="http://www.w3.org/2000/svg" xmlns:xlink="http://www.w3.org/1999/xlink" x="0px" y="0px"
	 viewBox="0 0 140 140" style="enable-background:new 0 0 140 140;" xml:space="preserve">
<style type="text/css">
	.st0{fill:#84BC3C;}
	.st1{fill:none;stroke:#FFFFFF;stroke-width:2.5;stroke-linejoin:round;}
	.st2{fill:none;stroke:#FFFFFF;stroke-width:2.5;stroke-linecap:round;stroke-linejoin:round;}
</style>
<title>Our Solutions_Manufactured</title>
<desc>Created with Sketch.</desc>
<g id="Multifamily-Awards" transform="translate(-594.000000, -2130.000000)">
	<g id="Recognizing-Exceptional-Sellers" transform="translate(1.000000, 751.000000)">
		<g id="Group-8" transform="translate(194.000000, 935.000000)">
			<g id="Our-Solutions_Manufactured" transform="translate(399.000000, 444.000000)">
				<path id="Shape" class="st0" d="M70,140c38.7,0,70-31.3,70-70S108.7,0,70,0S0,31.3,0,70S31.3,140,70,140"/>
				<g id="Group-2" transform="translate(37.000000, 36.000000)">
					<path id="Shape_1_" class="st1" d="M42.1,58H33v-9h9.1V58z M57,58h-9v-9H57L57,58z"/>
					<path id="Shape_2_" class="st2" d="M0,46.1L26.2,46 M0,68.3h67"/>
					<path id="Shape_3_" class="st1" d="M5,46v22"/>
					<path id="Shape_4_" class="st2" d="M24,41h43"/>
					<path id="Shape_5_" class="st1" d="M62,41v28"/>
					<rect id="Rectangle-path" x="13" y="54.2" class="st2" width="8" height="14"/>
					<path id="Shape_6_" class="st1" d="M27,42v26"/>
					<path id="Shape_7_" class="st1" d="M42.1,18H33V9h9.1V18z M57,18h-9V9H57L57,18z"/>
					<path id="Shape_8_" class="st2" d="M0,5.1L26.3,5 M0,27.3h67"/>
					<path id="Shape_9_" class="st1" d="M5,5v22"/>
					<path id="Shape_10_" class="st2" d="M24,1h43"/>
					<path id="Shape_11_" class="st1" d="M62,0v28"/>
					<rect id="Rectangle-path_1_" x="13" y="14" class="st2" width="8" height="13.2"/>
					<path id="Shape_12_" class="st1" d="M27,1v26"/>
				</g>
			</g>
		</g>
	</g>
</g>
</svg>
