<?xml version="1.0" encoding="UTF-8"?>
<svg width="157px" height="55px" viewBox="0 0 157 55" version="1.1" xmlns="http://www.w3.org/2000/svg" xmlns:xlink="http://www.w3.org/1999/xlink">
    <defs>
        <polygon id="path-1" points="0.398628253 0.0233457249 137.769543 0.0233457249 137.769543 17.8130799 137.769543 35.6028141 0.398628253 35.6028141 0.398628253 0.0233457249"></polygon>
    </defs>
    <g id="Landing" stroke="none" stroke-width="1" fill="none" fill-rule="evenodd">
        <g id="NHM-Landing" transform="translate(-641.000000, -6196.000000)">
            <g id="Footer" transform="translate(0.000000, 6160.000000)">
                <g id="FM-New-Logo_tagline_reverse" transform="translate(641.000000, 36.000000)">
                    <polyline id="Fill-1" fill="#FFFFFF" points="0 13.7027732 13.8626914 13.7027732 13.8626914 17.0388773 3.82227881 17.0388773 3.82227881 22.9237509 13.286052 22.9237509 13.286052 26.1390409 3.82227881 26.1390409 3.82227881 35.1785056 0 35.1785056 0 13.7027732"></polyline>
                    <path d="M15.3795799,20.6183606 L18.8674312,20.6183606 L18.8674312,23.0451487 L18.9281301,23.0451487 C19.3325948,22.195948 19.8987286,21.5084164 20.6271152,20.9825539 C21.3549182,20.4566914 22.204119,20.1934684 23.1747175,20.1934684 C23.3159591,20.1934684 23.46829,20.1987212 23.6299591,20.2086431 C23.7922119,20.2191487 23.9334535,20.2442454 24.0548513,20.2845167 L24.0548513,23.6212045 C23.8120558,23.5605056 23.6042788,23.5202342 23.4326877,23.4998067 C23.260513,23.4799628 23.0941747,23.4700409 22.9325056,23.4700409 C22.1031487,23.4700409 21.435461,23.6212045 20.930026,23.9246989 C20.4245911,24.2281933 20.0300483,24.591803 19.7475651,25.0166952 C19.4639145,25.4415874 19.2718959,25.8764015 19.1709257,26.3211375 C19.0693717,26.7658736 19.0191784,27.120145 19.0191784,27.3827844 L19.0191784,35.1785056 L15.3795799,35.1785056 L15.3795799,20.6183606" id="Fill-2" fill="#FFFFFF"></path>
                    <path d="M35.3080743,26.4425353 C35.3080743,25.9773717 35.2421227,25.5326357 35.110803,25.1077435 C34.9794833,24.6828513 34.7717063,24.3093197 34.489223,23.9853978 C34.2055725,23.6620595 33.846632,23.4040892 33.4118178,23.2120706 C32.9775874,23.020052 32.466316,22.9237509 31.8803383,22.9237509 C30.788342,22.9237509 29.8632677,23.2529257 29.1045316,23.9095242 C28.3463792,24.56729 27.9267398,25.4112379 27.846197,26.4425353 L35.3080743,26.4425353 Z M38.9482565,28.0802379 C38.9482565,28.2424907 38.9482565,28.4041599 38.9482565,28.565829 C38.9482565,28.7280818 38.9377509,28.8891673 38.9179071,29.0508364 L27.846197,29.0508364 C27.8864684,29.5772825 28.0230409,30.0570372 28.2559145,30.4918513 C28.4876208,30.9266654 28.796368,31.3007807 29.1809888,31.614197 C29.5644424,31.928197 29.9998401,32.1750781 30.4848476,32.3571747 C30.9704387,32.5392714 31.47529,32.6303197 32.0017361,32.6303197 C32.9122193,32.6303197 33.6802937,32.4633978 34.3071264,32.1301375 C34.9339591,31.7962937 35.449316,31.3363829 35.8543643,30.7498216 L38.2805688,32.6910186 C36.8448067,34.6322156 34.7617844,35.6028141 32.0315019,35.6028141 C30.8992342,35.6028141 29.8580149,35.4259703 28.9078439,35.0722825 C27.9570892,34.7185948 27.1329851,34.217829 26.4355316,33.5705688 C25.7374944,32.9238922 25.1917881,32.1301375 24.7972454,31.1893048 C24.4027026,30.2490558 24.2060149,29.1827398 24.2060149,27.9891896 C24.2060149,26.8166506 24.4027026,25.7497509 24.7972454,24.7890743 C25.1917881,23.8289814 25.7328253,23.0101301 26.4203569,22.3319368 C27.1078885,21.6549108 27.9220706,21.129632 28.8623197,20.7549331 C29.8025688,20.3808178 30.8186914,20.1934684 31.9112714,20.1934684 C32.9221413,20.1934684 33.8565539,20.3603903 34.7162602,20.6942342 C35.5759665,21.0280781 36.3189442,21.5235911 36.9463606,22.1807732 C37.5726097,22.8379554 38.0628699,23.6568067 38.4171413,24.6373271 C38.770829,25.6184312 38.9482565,26.7658736 38.9482565,28.0802379 L38.9482565,28.0802379 Z" id="Fill-3" fill="#FFFFFF"></path>
                    <path d="M44.2255576,27.838026 C44.2255576,28.4041599 44.3113532,28.9702937 44.4835279,29.5364275 C44.655119,30.1025613 44.9125056,30.6085799 45.256855,31.053316 C45.6006208,31.498052 46.0354349,31.8622454 46.5612974,32.1453123 C47.0871599,32.4283792 47.703487,32.5696208 48.4120297,32.5696208 C49.0791338,32.5696208 49.6756171,32.4330483 50.2014796,32.1599033 C50.727342,31.887342 51.1767472,31.5284015 51.5514461,31.0830818 C51.9249777,30.6389294 52.2080446,30.1381636 52.4006468,29.5819517 C52.5926654,29.0257398 52.6889665,28.4648587 52.6889665,27.8981413 C52.6889665,27.3325911 52.5926654,26.7658736 52.4006468,26.1997398 C52.2080446,25.6336059 51.9249777,25.128171 51.5514461,24.6828513 C51.1767472,24.2386989 50.727342,23.8745056 50.2014796,23.590855 C49.6756171,23.3083717 49.0791338,23.1665465 48.4120297,23.1665465 C47.703487,23.1665465 47.0871599,23.303119 46.5612974,23.5756803 C46.0354349,23.8488253 45.6006208,24.2083494 45.256855,24.6525019 C44.9125056,25.0978216 44.655119,25.5980037 44.4835279,26.1542156 C44.3113532,26.7104275 44.2255576,27.2718922 44.2255576,27.838026 Z M56.2077509,35.1785056 L52.7490818,35.1785056 L52.7490818,32.994513 L52.6889665,32.994513 C52.182948,33.8437138 51.4802416,34.490974 50.5808476,34.93571 C49.6808699,35.3804461 48.7149405,35.6028141 47.6842268,35.6028141 C46.5712193,35.6028141 45.5755242,35.3956208 44.695974,34.9812342 C43.8158401,34.5668476 43.0681933,34.0106357 42.4512825,33.3131822 C41.8343717,32.615145 41.3592862,31.7962937 41.026026,30.8560446 C40.6921822,29.9157955 40.5246766,28.9101784 40.5246766,27.838026 C40.5246766,26.7658736 40.6968513,25.7649257 41.0412007,24.8345985 C41.3843829,23.904855 41.869974,23.0959257 42.496223,22.4078104 C43.1236394,21.7208625 43.8712862,21.1792416 44.7414981,20.7852825 C45.6105428,20.3907398 46.5612974,20.1934684 47.5925948,20.1934684 C48.2602825,20.1934684 48.8561822,20.269342 49.3826283,20.4210892 C49.9079071,20.5728364 50.3684015,20.7601859 50.7623606,20.9825539 C51.1569033,21.2055056 51.4954164,21.4477175 51.7784833,21.7103569 C52.0615502,21.9735799 52.2944238,22.2262974 52.4765204,22.4690929 L52.5675688,22.4690929 L52.5675688,13.7710595 L56.2077509,13.7710595 L56.2077509,35.1785056 L56.2077509,35.1785056 Z" id="Fill-4" fill="#FFFFFF"></path>
                    <path d="M61.6367993,27.838026 C61.6367993,28.4041599 61.7225948,28.9702937 61.8941859,29.5364275 C62.065777,30.1025613 62.3237472,30.6085799 62.6680967,31.053316 C63.0118625,31.498052 63.4460929,31.8622454 63.972539,32.1453123 C64.4984015,32.4283792 65.1147286,32.5696208 65.8226877,32.5696208 C66.4903755,32.5696208 67.0862751,32.4330483 67.6121375,32.1599033 C68.1385836,31.887342 68.5879888,31.5284015 68.9621041,31.0830818 C69.3362193,30.6389294 69.6187026,30.1381636 69.8118885,29.5819517 C70.0033234,29.0257398 70.0996245,28.4648587 70.0996245,27.8981413 C70.0996245,27.3325911 70.0033234,26.7658736 69.8118885,26.1997398 C69.6187026,25.6336059 69.3362193,25.128171 68.9621041,24.6828513 C68.5879888,24.2386989 68.1385836,23.8745056 67.6121375,23.590855 C67.0862751,23.3083717 66.4903755,23.1665465 65.8226877,23.1665465 C65.1147286,23.1665465 64.4984015,23.303119 63.972539,23.5756803 C63.4460929,23.8488253 63.0118625,24.2083494 62.6680967,24.6525019 C62.3237472,25.0978216 62.065777,25.5980037 61.8941859,26.1542156 C61.7225948,26.7104275 61.6367993,27.2718922 61.6367993,27.838026 Z M73.6184089,35.1785056 L70.1603234,35.1785056 L70.1603234,32.994513 L70.0996245,32.994513 C69.5936059,33.8437138 68.8908996,34.490974 67.9915056,34.93571 C67.0915279,35.3804461 66.1261822,35.6028141 65.0948848,35.6028141 C63.982461,35.6028141 62.9867658,35.3956208 62.1072156,34.9812342 C61.2270818,34.5668476 60.4788513,34.0106357 59.8625242,33.3131822 C59.2456134,32.615145 58.7705279,31.7962937 58.436684,30.8560446 C58.1028401,29.9157955 57.9359182,28.9101784 57.9359182,27.838026 C57.9359182,26.7658736 58.1075093,25.7649257 58.4518587,24.8345985 C58.7956245,23.904855 59.280632,23.0959257 59.9074647,22.4078104 C60.5342974,21.7208625 61.2825279,21.1792416 62.1521561,20.7852825 C63.0212007,20.3907398 63.972539,20.1934684 65.0038364,20.1934684 C65.6709405,20.1934684 66.2674238,20.269342 66.7932862,20.4210892 C67.3191487,20.5728364 67.7790595,20.7601859 68.1730186,20.9825539 C68.5675613,21.2055056 68.906658,21.4477175 69.1897249,21.7103569 C69.4727918,21.9735799 69.7056654,22.2262974 69.8871784,22.4690929 L69.9782268,22.4690929 L69.9782268,13.7710595 L73.6184089,13.7710595 L73.6184089,35.1785056 L73.6184089,35.1785056 Z" id="Fill-5" fill="#FFFFFF"></path>
                    <path d="M76.7619108,35.1785056 L80.4020929,35.1785056 L80.4020929,20.6183606 L76.7619108,20.6183606 L76.7619108,35.1785056 Z M76.2465539,15.6743197 C76.2465539,15.0877584 76.4636691,14.5776543 76.8990669,14.1422565 C77.3332974,13.7074424 77.8848401,13.4897435 78.5519442,13.4897435 C79.2190483,13.4897435 79.780513,13.6975204 80.235171,14.1119071 C80.6904126,14.5268773 80.9174498,15.047487 80.9174498,15.6743197 C80.9174498,16.3011524 80.6904126,16.8223457 80.235171,17.2361487 C79.780513,17.651119 79.2190483,17.8577286 78.5519442,17.8577286 C77.8848401,17.8577286 77.3332974,17.641197 76.8990669,17.2057993 C76.4636691,16.7715688 76.2465539,16.260881 76.2465539,15.6743197 L76.2465539,15.6743197 Z" id="Fill-6" fill="#FFFFFF"></path>
                    <path d="M93.737171,26.4425353 C93.737171,25.9773717 93.6712193,25.5326357 93.5398996,25.1077435 C93.4079963,24.6828513 93.200803,24.3093197 92.9183197,23.9853978 C92.6346691,23.6620595 92.2757286,23.4040892 91.8409145,23.2120706 C91.4061004,23.020052 90.8954126,22.9237509 90.3094349,22.9237509 C89.2174387,22.9237509 88.2923643,23.2529257 87.5336283,23.9095242 C86.7754758,24.56729 86.3558364,25.4112379 86.2752937,26.4425353 L93.737171,26.4425353 Z M97.3773532,28.0802379 C97.3773532,28.2424907 97.3773532,28.4041599 97.3773532,28.565829 C97.3773532,28.7280818 97.3668476,28.8891673 97.3464201,29.0508364 L86.2752937,29.0508364 C86.3155651,29.5772825 86.4515539,30.0570372 86.6844275,30.4918513 C86.9167175,30.9266654 87.2254647,31.3007807 87.6095019,31.614197 C87.993539,31.928197 88.4289368,32.1750781 88.9139442,32.3571747 C89.3995353,32.5392714 89.9049703,32.6303197 90.4308327,32.6303197 C91.3407323,32.6303197 92.1088067,32.4633978 92.736223,32.1301375 C93.3624721,31.7962937 93.8784126,31.3363829 94.283461,30.7498216 L96.7096654,32.6910186 C95.2733197,34.6322156 93.190881,35.6028141 90.4611822,35.6028141 C89.3283309,35.6028141 88.2871115,35.4259703 87.3369405,35.0722825 C86.3861859,34.7185948 85.5620818,34.217829 84.8646283,33.5705688 C84.1671747,32.9238922 83.6208848,32.1301375 83.226342,31.1893048 C82.8323829,30.2490558 82.6351115,29.1827398 82.6351115,27.9891896 C82.6351115,26.8166506 82.8323829,25.7497509 83.226342,24.7890743 C83.6208848,23.8289814 84.1619219,23.0101301 84.8494535,22.3319368 C85.5364015,21.6549108 86.3505836,21.129632 87.2914164,20.7549331 C88.2316654,20.3808178 89.2477881,20.1934684 90.3397844,20.1934684 C91.3506543,20.1934684 92.2856506,20.3603903 93.1453569,20.6942342 C94.0050632,21.0280781 94.7480409,21.5235911 95.3748736,22.1807732 C96.0017063,22.8379554 96.4919665,23.6568067 96.8462379,24.6373271 C97.1999257,25.6184312 97.3773532,26.7658736 97.3773532,28.0802379 L97.3773532,28.0802379 Z" id="Fill-7" fill="#FFFFFF"></path>
                    <polyline id="Fill-8" fill="#FFFFFF" points="102.294546 13.7027732 108.270468 13.7027732 113.851848 28.9597881 113.942312 28.9597881 119.463576 13.7027732 125.469264 13.7027732 125.469264 35.1785056 121.677918 35.1785056 121.677918 17.9190112 121.617219 17.9190112 115.095007 35.1785056 112.426007 35.1785056 105.994844 17.9190112 105.934729 17.9190112 105.934729 35.1785056 102.294546 35.1785056 102.294546 13.7027732"></polyline>
                    <path d="M137.65223,28.5354796 L136.832796,28.5354796 C136.246234,28.5354796 135.629323,28.5611599 134.982647,28.6113532 C134.334803,28.6621301 133.738903,28.7730223 133.192613,28.9446134 C132.646907,29.1167881 132.191665,29.3595836 131.828056,29.673 C131.463862,29.987 131.281766,30.4159777 131.281766,30.9622677 C131.281766,31.3060335 131.357639,31.5943532 131.509387,31.8266431 C131.661134,32.0595167 131.858405,32.2462825 132.100617,32.3875242 C132.343413,32.5293494 132.616558,32.6303197 132.919468,32.6910186 C133.222963,32.7517175 133.526457,32.7820669 133.829952,32.7820669 C135.083033,32.7820669 136.033788,32.448223 136.681048,31.781119 C137.328309,31.1134312 137.65223,30.2035316 137.65223,29.0508364 L137.65223,28.5354796 Z M137.712346,33.3277732 L137.621297,33.3277732 C137.257688,33.9756171 136.670543,34.5061487 135.862197,34.9205353 C135.053268,35.3349219 134.133446,35.5426989 133.101565,35.5426989 C132.515004,35.5426989 131.903346,35.4668253 131.266591,35.3150781 C130.629836,35.1633309 130.042691,34.9106134 129.507491,34.5569257 C128.971123,34.2032379 128.525803,33.7374907 128.172699,33.1608513 C127.818428,32.5847955 127.641584,31.8721673 127.641584,31.0223829 C127.641584,29.9303866 127.949747,29.061342 128.566658,28.4140818 C129.183569,27.7668216 129.977323,27.2718922 130.947922,26.9275428 C131.91852,26.583777 132.995926,26.3567398 134.17897,26.2452639 C135.361431,26.1343717 136.518796,26.078342 137.65223,26.078342 L137.65223,25.7141487 C137.65223,24.8042491 137.322472,24.1324758 136.665874,23.6970781 C136.008691,23.2622639 135.224859,23.0451487 134.314959,23.0451487 C133.546301,23.0451487 132.808576,23.2068178 132.100617,23.5301561 C131.392658,23.8540781 130.806097,24.2480372 130.341517,24.7132007 L128.460435,22.4988587 C129.289792,21.7307844 130.245216,21.1547286 131.32729,20.7701078 C132.408781,20.3860706 133.50603,20.1934684 134.618454,20.1934684 C135.91239,20.1934684 136.97929,20.3755651 137.818569,20.7397584 C138.657264,21.1039517 139.319699,21.5790372 139.805874,22.1655985 C140.290881,22.7521599 140.62881,23.4087584 140.821413,24.137145 C141.014015,24.864948 141.109732,25.5933346 141.109732,26.3211375 L141.109732,35.1785056 L137.712346,35.1785056 L137.712346,33.3277732 L137.712346,33.3277732 Z" id="Fill-9" fill="#FFFFFF"></path>
                    <g id="Group-14" transform="translate(18.676580, 0.000000)">
                        <mask id="mask-2" fill="white">
                            <use xlink:href="#path-1"></use>
                        </mask>
                        <g id="Clip-11"></g>
                        <path d="M135.282056,24.6525019 C134.998989,24.2480372 134.574097,23.9095242 134.007963,23.6363792 C133.441829,23.3638178 132.865773,23.2266617 132.279212,23.2266617 C131.612108,23.2266617 131.024963,23.3638178 130.519528,23.6363792 C130.014093,23.9095242 129.594454,24.2690483 129.261193,24.7132007 C128.927349,25.1585204 128.679301,25.6587026 128.518216,26.2149145 C128.355379,26.7711264 128.27542,27.3325911 128.27542,27.8981413 C128.27542,28.4648587 128.361216,29.0257398 128.532807,29.5819517 C128.704398,30.1381636 128.962368,30.6389294 129.306717,31.0830818 C129.6499,31.5284015 130.080045,31.887342 130.595401,32.1599033 C131.111342,32.4330483 131.713078,32.5696208 132.40061,32.5696208 C132.96616,32.5696208 133.532877,32.4587286 134.099011,32.2363606 C134.665145,32.0139926 135.119803,31.6900706 135.464152,31.2651784 L137.739193,33.5705688 C137.132204,34.217829 136.358877,34.7185948 135.418628,35.0722825 C134.478379,35.4259703 133.462257,35.6028141 132.37026,35.6028141 C131.298108,35.6028141 130.281985,35.431223 129.321892,35.0874572 C128.361216,34.7436914 127.521353,34.2382565 126.804056,33.5705688 C126.086175,32.9034647 125.519457,32.0945353 125.105071,31.1443643 C124.690684,30.1936097 124.483491,29.1115353 124.483491,27.8981413 C124.483491,26.7256022 124.690684,25.6639554 125.105071,24.7132007 C125.519457,23.7630297 126.080922,22.9541004 126.788881,22.2869963 C127.496257,21.6193086 128.320944,21.1039517 129.261193,20.7397584 C130.200859,20.3755651 131.207059,20.1934684 132.279212,20.1934684 C133.350781,20.1934684 134.387331,20.3959926 135.388279,20.8004572 C136.389227,21.2055056 137.182981,21.7611338 137.769543,22.4690929 L135.282056,24.6525019" id="Fill-10" fill="#FFFFFF" mask="url(#mask-2)"></path>
                        <polyline id="Fill-12" fill="#FFFFFF" mask="url(#mask-2)" points="28.7070706 13.7710595 28.7070706 9.23031599 14.5525576 0.0198438662 0.398628253 9.23031599 0.398628253 13.7710595 14.5525576 4.52031599 28.7070706 13.7710595"></polyline>
                        <polyline id="Fill-13" fill="#FFFFFF" mask="url(#mask-2)" points="24.8246766 5.5370223 24.8246766 0.0198438662 20.9416989 0.0198438662 20.9416989 3.01043123 24.8246766 5.5370223"></polyline>
                    </g>
                    <polyline id="Fill-15" fill="#FFFFFF" points="13.2066766 50.0304721 13.2323569 50.0304721 15.3212156 42.9339554 16.6921933 42.9339554 18.7687955 50.0304721 18.7938922 50.0304721 20.756684 42.9339554 22.0774684 42.9339554 19.4604126 51.842684 18.1647249 51.842684 16.0005762 44.6831338 15.9748959 44.6831338 13.8107472 51.842684 12.5150595 51.842684 9.89800372 42.9339554 11.2444684 42.9339554 13.2066766 50.0304721"></polyline>
                    <path d="M26.6450595,48.3320706 C26.6363048,48.0974461 26.5966171,47.876829 26.5259963,47.6719703 C26.4542082,47.4659442 26.3497361,47.2873494 26.2114126,47.1367695 C26.0730892,46.9856059 25.9003309,46.8659591 25.6948885,46.777829 C25.4894461,46.6896989 25.2484015,46.6459257 24.9717546,46.6459257 C24.7202045,46.6459257 24.4826617,46.6896989 24.2608773,46.777829 C24.0385093,46.8659591 23.8453234,46.9856059 23.6819033,47.1367695 C23.5184833,47.2873494 23.3836617,47.4659442 23.2797732,47.6719703 C23.1741338,47.876829 23.1134349,48.0974461 23.0970929,48.3320706 L26.6450595,48.3320706 Z M27.8532007,48.8100743 C27.8532007,48.877777 27.8532007,48.9443123 27.8532007,49.0114312 C27.8532007,49.0791338 27.8485316,49.1456691 27.8403606,49.2127881 L23.0970929,49.2127881 C23.1052639,49.463171 23.1618773,49.6983792 23.2669331,49.9189963 C23.3714052,50.1396134 23.5120632,50.331632 23.6883234,50.4933011 C23.8645836,50.6561375 24.0676914,50.7833717 24.2982305,50.8744201 C24.5293532,50.966052 24.7744833,51.0121599 25.0342045,51.0121599 C25.4369182,51.0121599 25.7853532,50.9246134 26.0789257,50.7483532 C26.3724981,50.5720929 26.6030372,50.3578959 26.7711264,50.1063457 L27.6016506,50.7734498 C27.2823978,51.1954238 26.9071152,51.5070892 26.4752193,51.7066952 C26.0433234,51.9063011 25.5629851,52.0061041 25.0342045,52.0061041 C24.5812974,52.0061041 24.161658,51.9308141 23.7764535,51.7796506 C23.3900818,51.6290706 23.0591561,51.4172082 22.7825093,51.1446468 C22.5052788,50.8715019 22.2875799,50.5423271 22.1276617,50.156539 C21.9683271,49.7707509 21.8889517,49.3429405 21.8889517,48.8731078 C21.8889517,48.4120297 21.9665762,47.9865539 22.1218253,47.5960967 C22.277658,47.206223 22.4941896,46.8723792 22.7714201,46.5957323 C23.0492342,46.3190855 23.3772416,46.1031375 23.7548587,45.9478885 C24.1330595,45.7926394 24.541026,45.7150149 24.9781747,45.7150149 C25.4147398,45.7150149 25.8122007,45.7862193 26.169974,45.9286283 C26.5265799,46.0716208 26.8294907,46.2770632 27.077539,46.5449554 C27.3255874,46.8140149 27.5170223,47.1391041 27.6512602,47.5208067 C27.7854981,47.9019257 27.8532007,48.3320706 27.8532007,48.8100743 L27.8532007,48.8100743 Z" id="Fill-16" fill="#FFFFFF"></path>
                    <path d="M33.8869033,46.0482751 C34.2184126,45.8264907 34.6106208,45.7150149 35.0635279,45.7150149 C35.465658,45.7150149 35.828684,45.8078141 36.1520223,45.9916617 C36.474777,46.1760929 36.7280781,46.4825056 36.9130929,46.910316 C37.1144498,46.5245279 37.3957658,46.2292045 37.7558736,46.0231784 C38.1171487,45.8177361 38.5111078,45.7150149 38.9389182,45.7150149 C39.3247063,45.7150149 39.6562156,45.7797993 39.9328625,45.9099517 C40.2100929,46.0401041 40.440632,46.2140297 40.6250632,46.4323123 C40.8094944,46.6505948 40.9454833,46.9062305 41.0336134,47.199803 C41.1217435,47.4933755 41.1661004,47.8079591 41.1661004,48.1435539 L41.1661004,51.842684 L39.9836394,51.842684 L39.9836394,48.5334275 C39.9836394,48.2900483 39.9620446,48.0595093 39.9206059,47.8418104 C39.878,47.6235279 39.8073792,47.430342 39.7064089,47.2628364 C39.6060223,47.0953309 39.4712007,46.9605093 39.3042788,46.859539 C39.1361896,46.7591524 38.9219926,46.7089591 38.6622714,46.7089591 C38.3937955,46.7089591 38.1632565,46.7655725 37.9700706,46.8787993 C37.7774684,46.992026 37.6193011,47.1391041 37.498487,47.3194498 C37.3765056,47.4997955 37.2883755,47.703487 37.2340967,47.9299405 C37.1792342,48.1558104 37.1523866,48.3869331 37.1523866,48.6215576 L37.1523866,51.842684 L35.9699257,51.842684 L35.9699257,48.2947175 C35.9699257,48.0595093 35.9483309,47.8453123 35.9063086,47.65271 C35.8642862,47.4601078 35.7930818,47.2943532 35.6926952,47.1554461 C35.5917249,47.0171227 35.4621561,46.9085651 35.3022379,46.8280223 C35.1429033,46.7492305 34.9462156,46.7089591 34.7110074,46.7089591 C34.275026,46.7089591 33.912,46.8875539 33.6230967,47.2435762 C33.3336097,47.6001822 33.1888662,48.0764349 33.1888662,48.6717509 L33.1888662,51.842684 L32.0058216,51.842684 L32.0058216,47.1618662 C32.0058216,47.0025316 32.0017361,46.7970892 31.9929814,46.5449554 C31.9848104,46.2934052 31.9725539,46.0716208 31.9556283,45.8784349 L33.0756394,45.8784349 C33.0919814,46.0295985 33.1048216,46.1994387 33.1135762,46.3879554 C33.1217472,46.5764721 33.1258327,46.7340558 33.1258327,46.859539 L33.1637695,46.859539 C33.3149331,46.5414535 33.5553941,46.2706431 33.8869033,46.0482751" id="Fill-17" fill="#FFFFFF"></path>
                    <path d="M46.2747286,48.9991747 C45.9805725,48.9991747 45.6770781,49.0114312 45.3624944,49.0365279 C45.0479108,49.0616245 44.7625093,49.1124015 44.50629,49.1876914 C44.2506543,49.2629814 44.0387918,49.3762082 43.8712862,49.5273717 C43.7037807,49.6785353 43.6197361,49.8793086 43.6197361,50.1314424 C43.6197361,50.3077026 43.6553383,50.4547807 43.7265428,50.5720929 C43.7977472,50.6894052 43.8922974,50.7857063 44.0096097,50.8615799 C44.1269219,50.9368699 44.2570743,50.9893978 44.3994833,51.0185799 C44.5424758,51.0477621 44.6889703,51.0629368 44.8401338,51.0629368 C45.3940112,51.0629368 45.819487,50.8965985 46.117145,50.5656729 C46.414803,50.2341636 46.5642156,49.8168587 46.5642156,49.3137584 L46.5642156,48.9991747 L46.2747286,48.9991747 Z M46.5642156,47.9801338 C46.5642156,47.5353978 46.4299777,47.206223 46.1615019,46.992026 C45.8924424,46.777829 45.5364201,46.6710223 45.091684,46.6710223 C44.7560892,46.6710223 44.4397546,46.7363903 44.141513,46.8659591 C43.843855,46.9961115 43.5946394,47.1618662 43.3932825,47.363223 L42.7641152,46.6079888 C43.0576877,46.331342 43.4160446,46.1130595 43.8397695,45.9537249 C44.2634944,45.794974 44.7181524,45.7150149 45.2049108,45.7150149 C45.6333048,45.7150149 46.0039182,45.7762974 46.3185019,45.8971115 C46.6330855,46.0190929 46.8910558,46.1848476 47.0924126,46.3943755 C47.2937695,46.604487 47.4443494,46.8519517 47.5453197,47.1367695 C47.6457063,47.422171 47.6958996,47.7285836 47.6958996,48.0554238 L47.6958996,50.660223 C47.6958996,50.8615799 47.7023197,51.0728587 47.7151599,51.2952268 C47.7274164,51.5175948 47.7507621,51.7002751 47.7840297,51.842684 L46.7147955,51.842684 C46.6476766,51.5578662 46.6144089,51.2724647 46.6144089,50.9870632 L46.5764721,50.9870632 C46.3581896,51.3057323 46.0838773,51.553197 45.752368,51.7294572 C45.4208587,51.9057175 45.0286506,51.9938476 44.5757435,51.9938476 C44.341119,51.9938476 44.0954052,51.9623309 43.8397695,51.8992974 C43.5835502,51.8362639 43.3506766,51.7341264 43.1417323,51.5911338 C42.9322045,51.4481413 42.7576952,51.2596245 42.6193717,51.025 C42.4810483,50.7897918 42.4121784,50.5003048 42.4121784,50.156539 C42.4121784,49.703632 42.5329926,49.3446914 42.7769554,49.0808848 C43.0203346,48.8164944 43.3384201,48.6151375 43.7329628,48.4768141 C44.1269219,48.3384907 44.571658,48.248026 45.0665874,48.2065874 C45.5615167,48.1645651 46.0605316,48.1435539 46.5642156,48.1435539 L46.5642156,47.9801338 L46.5642156,47.9801338 Z" id="Fill-18" fill="#FFFFFF"></path>
                    <polyline id="Fill-19" fill="#FFFFFF" points="50.5645056 48.4703941 50.6024424 48.4703941 53.1062714 45.8784349 54.6920297 45.8784349 51.8987138 48.5836208 54.9313234 51.842684 53.2953717 51.842684 50.6024424 48.7476245 50.5645056 48.7476245 50.5645056 51.842684 49.3820446 51.842684 49.3820446 42.3304684 50.5645056 42.3304684 50.5645056 48.4703941"></polyline>
                    <path d="M59.8129145,48.3320706 C59.8041599,48.0974461 59.7644721,47.876829 59.6932677,47.6719703 C59.6220632,47.4659442 59.5170074,47.2873494 59.378684,47.1367695 C59.2403606,46.9856059 59.0681859,46.8659591 58.8627435,46.777829 C58.6573011,46.6896989 58.4162565,46.6459257 58.1396097,46.6459257 C57.8880595,46.6459257 57.6505167,46.6896989 57.4287323,46.777829 C57.2057807,46.8659591 57.0131784,46.9856059 56.8497584,47.1367695 C56.6863383,47.2873494 56.5515167,47.4659442 56.4470446,47.6719703 C56.3419888,47.876829 56.28129,48.0974461 56.2643643,48.3320706 L59.8129145,48.3320706 Z M61.0210558,48.8100743 C61.0210558,48.877777 61.0210558,48.9443123 61.0210558,49.0114312 C61.0210558,49.0791338 61.0163866,49.1456691 61.0082156,49.2127881 L56.2643643,49.2127881 C56.273119,49.463171 56.3297323,49.6983792 56.4342045,49.9189963 C56.5392602,50.1396134 56.6799182,50.331632 56.8561784,50.4933011 C57.0324387,50.6561375 57.2355465,50.7833717 57.4660855,50.8744201 C57.6966245,50.966052 57.9423383,51.0121599 58.2020595,51.0121599 C58.6047732,51.0121599 58.9532082,50.9246134 59.246197,50.7483532 C59.5403532,50.5720929 59.7708922,50.3578959 59.9389814,50.1063457 L60.7695056,50.7734498 C60.4502528,51.1954238 60.0749703,51.5070892 59.6430743,51.7066952 C59.2111784,51.9063011 58.7308401,52.0061041 58.2020595,52.0061041 C57.7491524,52.0061041 57.329513,51.9308141 56.9443086,51.7796506 C56.5579368,51.6290706 56.2264275,51.4172082 55.9497807,51.1446468 C55.6731338,50.8715019 55.4554349,50.5423271 55.2955167,50.156539 C55.1361822,49.7707509 55.0568067,49.3429405 55.0568067,48.8731078 C55.0568067,48.4120297 55.1338476,47.9865539 55.2896803,47.5960967 C55.445513,47.206223 55.6620446,46.8723792 55.9392751,46.5957323 C56.2170892,46.3190855 56.544513,46.1031375 56.9227138,45.9478885 C57.3009145,45.7926394 57.708881,45.7150149 58.1460297,45.7150149 C58.5825948,45.7150149 58.9800558,45.7862193 59.337829,45.9286283 C59.6944349,46.0716208 59.9973457,46.2770632 60.2453941,46.5449554 C60.4934424,46.8140149 60.6848773,47.1391041 60.8191152,47.5208067 C60.9533532,47.9019257 61.0210558,48.3320706 61.0210558,48.8100743 L61.0210558,48.8100743 Z" id="Fill-20" fill="#FFFFFF"></path>
                    <path d="M66.4063309,46.7842491 C66.5487398,46.4912602 66.792119,46.2391264 67.1358848,46.0295985 C67.4802342,45.8200706 67.8660223,45.7150149 68.2932491,45.7150149 C68.6796208,45.7150149 69.0111301,45.7797993 69.287777,45.9099517 C69.5644238,46.0401041 69.7949628,46.2140297 69.9799777,46.4323123 C70.1638253,46.6505948 70.3003978,46.9062305 70.3885279,47.199803 C70.476658,47.4933755 70.5210149,47.8079591 70.5210149,48.1435539 L70.5210149,51.842684 L69.3385539,51.842684 L69.3385539,48.5380967 C69.3385539,48.2941338 69.3192937,48.0624275 69.2819405,47.844145 C69.2440037,47.6252788 69.1745502,47.4326766 69.0741636,47.2640037 C68.9731933,47.0959145 68.8366208,46.9610929 68.6644461,46.8601227 C68.492855,46.7591524 68.2681524,46.7089591 67.9915056,46.7089591 C67.5216729,46.7089591 67.1358848,46.8881375 66.8341413,47.2453271 C66.5323978,47.6025167 66.3812342,48.0799368 66.3812342,48.6764201 L66.3812342,51.842684 L65.1981896,51.842684 L65.1981896,42.3304684 L66.3812342,42.3304684 L66.3812342,46.7842491 L66.4063309,46.7842491" id="Fill-21" fill="#FFFFFF"></path>
                    <path d="M77.013461,48.8544312 C77.013461,48.5696134 76.9691041,48.2982193 76.880974,48.0390818 C76.7922602,47.7793606 76.6644424,47.5517398 76.4957695,47.355052 C76.3276803,47.1583643 76.1193197,47.001948 75.8712714,46.8846357 C75.623223,46.7679071 75.3389888,46.7089591 75.0191524,46.7089591 C74.699316,46.7089591 74.4150818,46.7679071 74.1670335,46.8846357 C73.9189851,47.001948 73.7106245,47.1583643 73.5425353,47.355052 C73.3738625,47.5517398 73.245461,47.7793606 73.1573309,48.0390818 C73.0686171,48.2982193 73.0248439,48.5696134 73.0248439,48.8544312 C73.0248439,49.1392491 73.0686171,49.4106431 73.1573309,49.6697807 C73.245461,49.9295019 73.3738625,50.1594572 73.5425353,50.3602305 C73.7106245,50.5604201 73.9189851,50.7197546 74.1670335,50.8364833 C74.4150818,50.9537955 74.699316,51.0121599 75.0191524,51.0121599 C75.3389888,51.0121599 75.623223,50.9537955 75.8712714,50.8364833 C76.1193197,50.7197546 76.3276803,50.5604201 76.4957695,50.3602305 C76.6644424,50.1594572 76.7922602,49.9295019 76.880974,49.6697807 C76.9691041,49.4106431 77.013461,49.1392491 77.013461,48.8544312 Z M78.2466989,48.8480112 C78.2466989,49.3096729 78.1649888,49.7333978 78.0009851,50.1186022 C77.8375651,50.504974 77.6111115,50.8382342 77.3216245,51.1195502 C77.0321375,51.4002825 76.6907063,51.6179814 76.2961636,51.7732305 C75.9016208,51.9284796 75.4784796,52.0061041 75.0255725,52.0061041 C74.5720818,52.0061041 74.1489405,51.9284796 73.7543978,51.7732305 C73.359855,51.6179814 73.0201747,51.4002825 72.7353569,51.1195502 C72.4499554,50.8382342 72.2258364,50.504974 72.0624164,50.1186022 C71.8984126,49.7333978 71.8167026,49.3096729 71.8167026,48.8480112 C71.8167026,48.3869331 71.8984126,47.9649591 72.0624164,47.5838401 C72.2258364,47.2021375 72.4499554,46.8723792 72.7353569,46.5957323 C73.0201747,46.3190855 73.359855,46.1031375 73.7543978,45.9478885 C74.1489405,45.7926394 74.5720818,45.7150149 75.0255725,45.7150149 C75.4784796,45.7150149 75.9016208,45.7926394 76.2961636,45.9478885 C76.6907063,46.1031375 77.0321375,46.3190855 77.3216245,46.5957323 C77.6111115,46.8723792 77.8375651,47.2021375 78.0009851,47.5838401 C78.1649888,47.9649591 78.2466989,48.3869331 78.2466989,48.8480112 L78.2466989,48.8480112 Z" id="Fill-22" fill="#FFFFFF"></path>
                    <path d="M81.4491487,46.0482751 C81.7800743,45.8264907 82.1728662,45.7150149 82.6257732,45.7150149 C83.0279033,45.7150149 83.3909294,45.8078141 83.713684,45.9916617 C84.0370223,46.1760929 84.2903234,46.4825056 84.4753383,46.910316 C84.6766952,46.5245279 84.9574275,46.2292045 85.318119,46.0231784 C85.6788104,45.8177361 86.0733532,45.7150149 86.5011636,45.7150149 C86.8869517,45.7150149 87.2178773,45.7797993 87.4951078,45.9099517 C87.7723383,46.0401041 88.0022937,46.2140297 88.1873086,46.4323123 C88.3711561,46.6505948 88.5077286,46.9062305 88.5958587,47.199803 C88.6839888,47.4933755 88.7283457,47.8079591 88.7283457,48.1435539 L88.7283457,51.842684 L87.5453011,51.842684 L87.5453011,48.5334275 C87.5453011,48.2900483 87.52429,48.0595093 87.4822677,47.8418104 C87.4402454,47.6235279 87.3690409,47.430342 87.2686543,47.2628364 C87.167684,47.0953309 87.0334461,46.9605093 86.8659405,46.859539 C86.6984349,46.7591524 86.4842379,46.7089591 86.2239331,46.7089591 C85.9554572,46.7089591 85.7255019,46.7655725 85.532316,46.8787993 C85.3391301,46.992026 85.1815465,47.1391041 85.0607323,47.3194498 C84.9381673,47.4997955 84.8500372,47.703487 84.796342,47.9299405 C84.7414796,48.1558104 84.714632,48.3869331 84.714632,48.6215576 L84.714632,51.842684 L83.5315874,51.842684 L83.5315874,48.2947175 C83.5315874,48.0595093 83.5105762,47.8453123 83.4685539,47.65271 C83.4265316,47.4601078 83.3553271,47.2943532 83.2543569,47.1554461 C83.1539703,47.0171227 83.0238178,46.9085651 82.8644833,46.8280223 C82.7051487,46.7492305 82.5078773,46.7089591 82.2732528,46.7089591 C81.8366877,46.7089591 81.4742454,46.8875539 81.1847584,47.2435762 C80.8952714,47.6001822 80.7505279,48.0764349 80.7505279,48.6717509 L80.7505279,51.842684 L79.5680669,51.842684 L79.5680669,47.1618662 C79.5680669,47.0025316 79.5633978,46.7970892 79.5552268,46.5449554 C79.5470558,46.2934052 79.5347993,46.0716208 79.5178736,45.8784349 L80.6373011,45.8784349 C80.6542268,46.0295985 80.6670669,46.1994387 80.6752379,46.3879554 C80.6839926,46.5764721 80.6874944,46.7340558 80.6874944,46.859539 L80.7254312,46.859539 C80.8765948,46.5414535 81.1176394,46.2706431 81.4491487,46.0482751" id="Fill-23" fill="#FFFFFF"></path>
                    <path d="M94.7801413,48.3320706 C94.7719703,48.0974461 94.7316989,47.876829 94.6610781,47.6719703 C94.5898736,47.4659442 94.4848178,47.2873494 94.3464944,47.1367695 C94.208171,46.9856059 94.0354126,46.8659591 93.8305539,46.777829 C93.6245279,46.6896989 93.3834833,46.6459257 93.1068364,46.6459257 C92.8552862,46.6459257 92.6183271,46.6896989 92.3959591,46.777829 C92.1735911,46.8659591 91.9804052,46.9856059 91.8169851,47.1367695 C91.6535651,47.2873494 91.5193271,47.4659442 91.414855,47.6719703 C91.3092156,47.876829 91.2485167,48.0974461 91.2321747,48.3320706 L94.7801413,48.3320706 Z M95.9882825,48.8100743 C95.9882825,48.877777 95.9882825,48.9443123 95.9882825,49.0114312 C95.9882825,49.0791338 95.984197,49.1456691 95.9754424,49.2127881 L91.2321747,49.2127881 C91.2403457,49.463171 91.2969591,49.6983792 91.4020149,49.9189963 C91.5070706,50.1396134 91.647145,50.331632 91.8234052,50.4933011 C91.9996654,50.6561375 92.2027732,50.7833717 92.4333123,50.8744201 C92.6644349,50.966052 92.9095651,51.0121599 93.1692862,51.0121599 C93.5725836,51.0121599 93.9204349,50.9246134 94.2140074,50.7483532 C94.5075799,50.5720929 94.738119,50.3578959 94.9062082,50.1063457 L95.7367323,50.7734498 C95.4174796,51.1954238 95.0427807,51.5070892 94.6103011,51.7066952 C94.1784052,51.9063011 93.6986506,52.0061041 93.1692862,52.0061041 C92.7163792,52.0061041 92.2973234,51.9308141 91.9115353,51.7796506 C91.5257472,51.6290706 91.1942379,51.4172082 90.9175911,51.1446468 C90.6409442,50.8715019 90.4226617,50.5423271 90.2627435,50.156539 C90.1034089,49.7707509 90.0240335,49.3429405 90.0240335,48.8731078 C90.0240335,48.4120297 90.101658,47.9865539 90.2569071,47.5960967 C90.4127398,47.206223 90.6292714,46.8723792 90.9065019,46.5957323 C91.184316,46.3190855 91.5123234,46.1031375 91.8905242,45.9478885 C92.2687249,45.7926394 92.6761078,45.7150149 93.1132565,45.7150149 C93.5504052,45.7150149 93.9472825,45.7862193 94.3050558,45.9286283 C94.6622454,46.0716208 94.9645725,46.2770632 95.2132045,46.5449554 C95.4606691,46.8140149 95.6521041,47.1391041 95.786342,47.5208067 C95.9211636,47.9019257 95.9882825,48.3320706 95.9882825,48.8100743 L95.9882825,48.8100743 Z" id="Fill-24" fill="#FFFFFF"></path>
                    <path d="M105.248948,48.8480112 C105.248948,48.5713643 105.207509,48.3028885 105.123465,48.0425836 C105.03942,47.7828625 104.913937,47.5523234 104.745848,47.3509665 C104.577758,47.1496097 104.369981,46.9902751 104.1231,46.8723792 C103.875636,46.7556506 103.588483,46.696119 103.261059,46.696119 C102.959316,46.696119 102.68442,46.7556506 102.436955,46.8723792 C102.189491,46.9902751 101.977628,47.1496097 101.801368,47.3509665 C101.625108,47.5523234 101.489119,47.7828625 101.392818,48.0425836 C101.296517,48.3028885 101.248074,48.5760335 101.248074,48.8608513 C101.248074,49.1456691 101.296517,49.4188141 101.392818,49.6785353 C101.489119,49.9388401 101.625108,50.1670446 101.801368,50.364316 C101.977628,50.5615874 102.189491,50.7185874 102.436955,50.8364833 C102.68442,50.9532119 102.959316,51.0121599 103.261059,51.0121599 C103.588483,51.0121599 103.875636,50.951461 104.1231,50.8300632 C104.369981,50.7080818 104.577758,50.5464126 104.745848,50.3456394 C104.913937,50.1436989 105.03942,49.9137435 105.123465,49.652855 C105.207509,49.3937175 105.248948,49.124658 105.248948,48.8480112 Z M101.323364,54.8624535 L100.140903,54.8624535 L100.140903,45.8784349 L101.298268,45.8784349 L101.298268,46.8093457 L101.336204,46.8093457 C101.528223,46.4912602 101.810706,46.2292045 102.183071,46.0231784 C102.555435,45.8177361 102.988498,45.7150149 103.48226,45.7150149 C103.925829,45.7150149 104.329126,45.794974 104.693903,45.9537249 C105.057513,46.1130595 105.371513,46.3360112 105.63532,46.620829 C105.898543,46.9062305 106.101651,47.2394907 106.243476,47.6211933 C106.385885,48.0028959 106.457089,48.4120297 106.457089,48.8480112 C106.457089,49.2839926 106.385885,49.695461 106.243476,50.0806654 C106.101651,50.4670372 105.900294,50.802632 105.641156,51.0880335 C105.381435,51.3728513 105.068019,51.5975539 104.69974,51.760974 C104.332045,51.9243941 103.917074,52.0061041 103.457164,52.0061041 C103.03052,52.0061041 102.628974,51.9138885 102.252524,51.7294572 C101.876074,51.545026 101.578416,51.2847212 101.361301,50.94971 L101.323364,50.94971 L101.323364,54.8624535 L101.323364,54.8624535 Z" id="Fill-25" fill="#FFFFFF"></path>
                    <path d="M112.609855,48.8544312 C112.609855,48.5696134 112.565498,48.2982193 112.477368,48.0390818 C112.388654,47.7793606 112.260836,47.5517398 112.092164,47.355052 C111.924074,47.1583643 111.715714,47.001948 111.467665,46.8846357 C111.219033,46.7679071 110.935383,46.7089591 110.614963,46.7089591 C110.29571,46.7089591 110.011476,46.7679071 109.763428,46.8846357 C109.515379,47.001948 109.307019,47.1583643 109.138346,47.355052 C108.970257,47.5517398 108.841271,47.7793606 108.753141,48.0390818 C108.665011,48.2982193 108.621238,48.5696134 108.621238,48.8544312 C108.621238,49.1392491 108.665011,49.4106431 108.753141,49.6697807 C108.841271,49.9295019 108.970257,50.1594572 109.138346,50.3602305 C109.307019,50.5604201 109.515379,50.7197546 109.763428,50.8364833 C110.011476,50.9537955 110.29571,51.0121599 110.614963,51.0121599 C110.935383,51.0121599 111.219033,50.9537955 111.467665,50.8364833 C111.715714,50.7197546 111.924074,50.5604201 112.092164,50.3602305 C112.260836,50.1594572 112.388654,49.9295019 112.477368,49.6697807 C112.565498,49.4106431 112.609855,49.1392491 112.609855,48.8544312 Z M113.842509,48.8480112 C113.842509,49.3096729 113.760799,49.7333978 113.597379,50.1186022 C113.433959,50.504974 113.207506,50.8382342 112.918019,51.1195502 C112.628532,51.4002825 112.286517,51.6179814 111.892558,51.7732305 C111.498015,51.9284796 111.07429,52.0061041 110.621383,52.0061041 C110.168476,52.0061041 109.745335,51.9284796 109.350792,51.7732305 C108.956249,51.6179814 108.616569,51.4002825 108.331167,51.1195502 C108.046349,50.8382342 107.821647,50.504974 107.658227,50.1186022 C107.494807,49.7333978 107.413097,49.3096729 107.413097,48.8480112 C107.413097,48.3869331 107.494807,47.9649591 107.658227,47.5838401 C107.821647,47.2021375 108.046349,46.8723792 108.331167,46.5957323 C108.616569,46.3190855 108.956249,46.1031375 109.350792,45.9478885 C109.745335,45.7926394 110.168476,45.7150149 110.621383,45.7150149 C111.07429,45.7150149 111.498015,45.7926394 111.892558,45.9478885 C112.286517,46.1031375 112.628532,46.3190855 112.918019,46.5957323 C113.207506,46.8723792 113.433959,47.2021375 113.597379,47.5838401 C113.760799,47.9649591 113.842509,48.3869331 113.842509,48.8480112 L113.842509,48.8480112 Z" id="Fill-26" fill="#FFFFFF"></path>
                    <path d="M118.385004,47.3889033 C118.250182,47.1706208 118.061665,46.992026 117.81887,46.8537026 C117.575491,46.7147955 117.302929,46.6459257 117.000602,46.6459257 C116.866364,46.6459257 116.732126,46.6611004 116.597888,46.6896989 C116.463651,46.7194647 116.344587,46.7655725 116.239532,46.8280223 C116.134476,46.8910558 116.051015,46.9710149 115.987981,47.067316 C115.924948,47.1642007 115.893431,47.2838476 115.893431,47.4262565 C115.893431,47.6778067 116.006658,47.8645725 116.233112,47.9865539 C116.459565,48.1079517 116.799245,48.2188439 117.252152,48.3198141 C117.537554,48.3869331 117.801944,48.4663086 118.045323,48.5585242 C118.288119,48.6513234 118.499981,48.7663011 118.680327,48.9046245 C118.861257,49.042948 119.001331,49.2087026 119.102301,49.4013048 C119.202688,49.5950743 119.252881,49.8209442 119.252881,50.0806654 C119.252881,50.4337695 119.185762,50.7314275 119.051524,50.9748067 C118.91787,51.2176022 118.738691,51.4172082 118.516907,51.5724572 C118.294539,51.7277063 118.040654,51.8385985 117.755836,51.9057175 C117.470435,51.9728364 117.176862,52.0061041 116.874535,52.0061041 C116.421628,52.0061041 115.97981,51.917974 115.547331,51.7422974 C115.115435,51.5660372 114.756494,51.2975613 114.471677,50.9368699 L115.315041,50.2189888 C115.473792,50.4547807 115.693825,50.6514684 115.975141,50.8113866 C116.256457,50.9701375 116.564621,51.0500967 116.899632,51.0500967 C117.050796,51.0500967 117.195539,51.0355056 117.333862,51.0063234 C117.47277,50.9765576 117.598836,50.9281152 117.712063,50.8615799 C117.82529,50.794461 117.915171,50.7063309 117.98229,50.5971896 C118.048825,50.4880483 118.08326,50.3497249 118.08326,50.1816357 C118.08326,49.9049888 117.950773,49.6995465 117.686967,49.5653086 C117.422576,49.4310706 117.034454,49.3055874 116.522599,49.1876914 C116.321242,49.1374981 116.118134,49.0762156 115.912108,49.0050112 C115.706665,48.9343903 115.520483,48.835171 115.352394,48.7096877 C115.184305,48.5836208 115.048316,48.4266208 114.943844,48.2381041 C114.838204,48.0490037 114.78626,47.8167138 114.78626,47.5394833 C114.78626,47.2208141 114.851045,46.9459182 114.981197,46.7147955 C115.110766,46.4848401 115.28119,46.2957398 115.490717,46.1492454 C115.700245,46.0027509 115.939539,45.893026 116.208015,45.8218216 C116.476491,45.7512007 116.753138,45.7150149 117.038539,45.7150149 C117.466349,45.7150149 117.878985,45.7984758 118.278197,45.9665651 C118.676242,46.1346543 118.984405,46.3780335 119.202688,46.696119 L118.385004,47.3889033" id="Fill-27" fill="#FFFFFF"></path>
                    <path d="M123.657052,47.3889033 C123.52223,47.1706208 123.333714,46.992026 123.090335,46.8537026 C122.847539,46.7147955 122.574394,46.6459257 122.272651,46.6459257 C122.138413,46.6459257 122.004175,46.6611004 121.869937,46.6896989 C121.735699,46.7194647 121.616636,46.7655725 121.51158,46.8280223 C121.406524,46.8910558 121.323063,46.9710149 121.26003,47.067316 C121.196996,47.1642007 121.16548,47.2838476 121.16548,47.4262565 C121.16548,47.6778067 121.278706,47.8645725 121.50516,47.9865539 C121.731613,48.1079517 122.071294,48.2188439 122.524201,48.3198141 C122.809602,48.3869331 123.073993,48.4663086 123.316788,48.5585242 C123.560167,48.6513234 123.77203,48.7663011 123.952375,48.9046245 C124.132721,49.042948 124.273379,49.2087026 124.374349,49.4013048 C124.474736,49.5950743 124.524929,49.8209442 124.524929,50.0806654 C124.524929,50.4337695 124.45781,50.7314275 124.323572,50.9748067 C124.189335,51.2176022 124.01074,51.4172082 123.788955,51.5724572 C123.566587,51.7277063 123.312703,51.8385985 123.027301,51.9057175 C122.742483,51.9728364 122.448911,52.0061041 122.146584,52.0061041 C121.693677,52.0061041 121.251275,51.917974 120.819379,51.7422974 C120.387483,51.5660372 120.028543,51.2975613 119.743141,50.9368699 L120.587089,50.2189888 C120.74584,50.4547807 120.965874,50.6514684 121.24719,50.8113866 C121.528506,50.9701375 121.836669,51.0500967 122.17168,51.0500967 C122.322844,51.0500967 122.467587,51.0355056 122.605911,51.0063234 C122.744234,50.9765576 122.870301,50.9281152 122.983528,50.8615799 C123.096755,50.794461 123.187219,50.7063309 123.253755,50.5971896 C123.320874,50.4880483 123.354725,50.3497249 123.354725,50.1816357 C123.354725,49.9049888 123.222822,49.6995465 122.958431,49.5653086 C122.694041,49.4310706 122.306502,49.3055874 121.794647,49.1876914 C121.59329,49.1374981 121.390182,49.0762156 121.184156,49.0050112 C120.978714,48.9343903 120.791948,48.835171 120.624442,48.7096877 C120.456353,48.5836208 120.320364,48.4266208 120.215309,48.2381041 C120.110253,48.0490037 120.057725,47.8167138 120.057725,47.5394833 C120.057725,47.2208141 120.123093,46.9459182 120.253245,46.7147955 C120.382814,46.4848401 120.552654,46.2957398 120.762766,46.1492454 C120.972294,46.0027509 121.211587,45.893026 121.480063,45.8218216 C121.748539,45.7512007 122.025186,45.7150149 122.310587,45.7150149 C122.737814,45.7150149 123.151033,45.7984758 123.550245,45.9665651 C123.94829,46.1346543 124.256454,46.3780335 124.474736,46.696119 L123.657052,47.3889033" id="Fill-28" fill="#FFFFFF"></path>
                    <path d="M125.72023,51.842684 L126.903859,51.842684 L126.903859,45.8784349 L125.72023,45.8784349 L125.72023,51.842684 Z M127.092375,43.7265428 C127.092375,43.9448253 127.014751,44.1257546 126.861253,44.2681636 C126.707171,44.4105725 126.522156,44.4823606 126.305625,44.4823606 C126.089677,44.4823606 125.906413,44.4088216 125.757,44.2617435 C125.60642,44.1146654 125.531714,43.9366543 125.531714,43.7265428 C125.531714,43.5088439 125.60642,43.3267472 125.757,43.1796691 C125.906413,43.0331747 126.089677,42.959052 126.305625,42.959052 C126.522156,42.959052 126.707171,43.0331747 126.861253,43.1796691 C127.014751,43.3267472 127.092375,43.5088439 127.092375,43.7265428 L127.092375,43.7265428 Z" id="Fill-29" fill="#FFFFFF"></path>
                    <path d="M133.785595,48.8544312 C133.785595,48.578368 133.743572,48.3110595 133.660112,48.0513383 C133.576067,47.7922007 133.45,47.5622454 133.282494,47.3614721 C133.114405,47.1606989 132.906628,47.001948 132.659747,46.8846357 C132.411699,46.7679071 132.124546,46.7089591 131.797706,46.7089591 C131.495379,46.7089591 131.221067,46.7679071 130.973602,46.8846357 C130.726138,47.001948 130.514275,47.1606989 130.338015,47.3614721 C130.161755,47.5622454 130.025182,47.7922007 129.929465,48.0513383 C129.83258,48.3110595 129.784721,48.5824535 129.784721,48.8666877 C129.784721,49.1515056 129.83258,49.4228996 129.929465,49.6826208 C130.025182,49.9417584 130.161755,50.1693792 130.338015,50.3660669 C130.514275,50.5627546 130.726138,50.7197546 130.973602,50.8364833 C131.221067,50.9537955 131.495379,51.0121599 131.797706,51.0121599 C132.124546,51.0121599 132.411699,50.951461 132.659747,50.8300632 C132.906628,50.7092491 133.114405,50.5481636 133.282494,50.3473903 C133.45,50.1466171 133.576067,49.9166617 133.660112,49.6569405 C133.743572,49.397803 133.785595,49.1299108 133.785595,48.8544312 Z M129.822658,50.8989331 L129.822658,51.842684 L128.676967,51.842684 L128.676967,42.3304684 L129.860011,42.3304684 L129.860011,46.7714089 L129.897948,46.7714089 C130.098721,46.4784201 130.37887,46.2292045 130.738978,46.0231784 C131.097918,45.8177361 131.525145,45.7150149 132.018907,45.7150149 C132.462476,45.7150149 132.865773,45.794974 133.229967,45.9537249 C133.59416,46.1130595 133.907576,46.3360112 134.171383,46.620829 C134.43519,46.9062305 134.637714,47.2394907 134.780123,47.6211933 C134.922532,48.0028959 134.993152,48.4120297 134.993152,48.8480112 C134.993152,49.2839926 134.922532,49.695461 134.780123,50.0806654 C134.637714,50.4670372 134.436941,50.802632 134.177803,51.0880335 C133.918082,51.3728513 133.604665,51.5975539 133.236387,51.760974 C132.868108,51.9243941 132.453721,52.0061041 131.99381,52.0061041 C131.567167,52.0061041 131.160952,51.9121375 130.776331,51.7230372 C130.391126,51.5345204 130.081212,51.2596245 129.847755,50.8989331 L129.822658,50.8989331 L129.822658,50.8989331 Z" id="Fill-30" fill="#FFFFFF"></path>
                    <polygon id="Fill-31" fill="#FFFFFF" points="136.238647 51.842684 137.421108 51.842684 137.421108 42.3304684 136.238647 42.3304684"></polygon>
                    <path d="M143.410454,48.3320706 C143.402283,48.0974461 143.362595,47.876829 143.29139,47.6719703 C143.220186,47.4659442 143.11513,47.2873494 142.976807,47.1367695 C142.838483,46.9856059 142.666309,46.8659591 142.460866,46.777829 C142.25484,46.6896989 142.014379,46.6459257 141.737732,46.6459257 C141.486182,46.6459257 141.248639,46.6896989 141.026271,46.777829 C140.803903,46.8659591 140.610717,46.9856059 140.447297,47.1367695 C140.283877,47.2873494 140.149639,47.4659442 140.045167,47.6719703 C139.940112,47.876829 139.879413,48.0974461 139.862487,48.3320706 L143.410454,48.3320706 Z M144.619178,48.8100743 C144.619178,48.877777 144.619178,48.9443123 144.619178,49.0114312 C144.619178,49.0791338 144.614509,49.1456691 144.606338,49.2127881 L139.862487,49.2127881 C139.870658,49.463171 139.927271,49.6983792 140.032327,49.9189963 C140.137383,50.1396134 140.277457,50.331632 140.453717,50.4933011 C140.629978,50.6561375 140.833669,50.7833717 141.064208,50.8744201 C141.294747,50.966052 141.539877,51.0121599 141.800182,51.0121599 C142.202896,51.0121599 142.550747,50.9246134 142.84432,50.7483532 C143.138476,50.5720929 143.369015,50.3578959 143.53652,50.1063457 L144.367628,50.7734498 C144.048375,51.1954238 143.673093,51.5070892 143.240613,51.7066952 C142.808717,51.9063011 142.328963,52.0061041 141.800182,52.0061041 C141.347275,52.0061041 140.927636,51.9308141 140.541848,51.7796506 C140.156059,51.6290706 139.82455,51.4172082 139.547903,51.1446468 C139.271257,50.8715019 139.052974,50.5423271 138.893639,50.156539 C138.734305,49.7707509 138.654929,49.3429405 138.654929,48.8731078 C138.654929,48.4120297 138.73197,47.9865539 138.887803,47.5960967 C139.043052,47.206223 139.260167,46.8723792 139.536814,46.5957323 C139.814628,46.3190855 140.142636,46.1031375 140.520836,45.9478885 C140.899037,45.7926394 141.30642,45.7150149 141.744152,45.7150149 C142.180717,45.7150149 142.578178,45.7862193 142.935368,45.9286283 C143.292558,46.0716208 143.595468,46.2770632 143.843517,46.5449554 C144.090981,46.8140149 144.282416,47.1391041 144.417238,47.5208067 C144.551476,47.9019257 144.619178,48.3320706 144.619178,48.8100743 L144.619178,48.8100743 Z" id="Fill-32" fill="#FFFFFF"></path>
                    <path d="M147.405491,45.562684 L147.759762,45.562684 C148.058587,45.562684 148.333483,45.5475093 148.333483,45.2031599 C148.333483,44.9136729 148.083684,44.8687323 147.854312,44.8687323 L147.405491,44.8687323 L147.405491,45.562684 Z M147.06581,44.5944201 L147.909175,44.5944201 C148.428033,44.5944201 148.67258,44.7992788 148.67258,45.2177509 C148.67258,45.6122937 148.422781,45.776881 148.098859,45.8118996 L148.72219,46.7749108 L148.357996,46.7749108 L147.764431,45.8364126 L147.405491,45.8364126 L147.405491,46.7749108 L147.06581,46.7749108 L147.06581,44.5944201 Z M147.794781,47.2785948 C148.657405,47.2785948 149.32626,46.5904796 149.32626,45.6770781 C149.32626,44.7841041 148.657405,44.0954052 147.794781,44.0954052 C146.921067,44.0954052 146.252796,44.7841041 146.252796,45.6770781 C146.252796,46.5904796 146.921067,47.2785948 147.794781,47.2785948 Z M147.794781,43.8210929 C148.812071,43.8210929 149.665357,44.6241859 149.665357,45.6770781 C149.665357,46.7498141 148.812071,47.5534907 147.794781,47.5534907 C146.771654,47.5534907 145.913699,46.7498141 145.913699,45.6770781 C145.913699,44.6241859 146.771654,43.8210929 147.794781,43.8210929 L147.794781,43.8210929 Z" id="Fill-33" fill="#FFFFFF"></path>
                </g>
            </g>
        </g>
    </g>
</svg>