<?xml version="1.0" encoding="UTF-8"?>
<svg width="120px" height="120px" viewBox="0 0 120 120" version="1.1" xmlns="http://www.w3.org/2000/svg" xmlns:xlink="http://www.w3.org/1999/xlink">
    <!-- Generator: Sketch 50.2 (55047) - http://www.bohemiancoding.com/sketch -->
    <title>icon-counselor</title>
    <desc>Created with Sketch.</desc>
    <defs></defs>
    <g id="Landing" stroke="none" stroke-width="1" fill="none" fill-rule="evenodd">
        <g id="NHM-Landing-2018" transform="translate(-261.000000, -1444.000000)">
            <g id="Section-3---Illustration" transform="translate(0.000000, 947.000000)">
                <g id="Labels">
                    <g id="1" transform="translate(230.000000, 497.000000)">
                        <g id="icon-counselor" transform="translate(31.000000, 0.000000)">
                            <circle id="Oval" fill="#00A6E1" cx="60" cy="60" r="60"></circle>
                            <g id="person-chat-1" transform="translate(30.000000, 30.000000)" stroke="#FFFFFF" stroke-linejoin="round" stroke-width="2.3">
                                <g id="Outline_Icons_1_">
                                    <g id="New_icons_1_">
                                        <g id="Group">
                                            <g>
                                                <path d="M31,36.25 L31,29.24" id="Shape" stroke-linecap="round"></path>
                                                <path d="M18.75,29.24 L18.75,36.25 L6.2275,40.7225 C3.2425,41.79 1.25,44.6175 1.25,47.785 L1.25,53.75 L31.25,53.75" id="Shape" stroke-linecap="round"></path>
                                                <ellipse id="Oval" cx="25" cy="16.25" rx="12.5" ry="15"></ellipse>
                                                <path d="M37.3825,14.8825 C36.9625,14.935 36.6725,14.9175 36.25,15 C31.9925,15.82 29.2575,14.2775 26.915,10.175 C25.5075,12.87 21.11,15 17.5,15 C15.7225,15 14.1925,14.635 12.66,13.835" id="Shape"></path>
                                            </g>
                                            <g transform="translate(35.000000, 35.000000)" id="Shape" stroke-linecap="round">
                                                <polygon points="1.25 16.25 8.75 16.25 8.75 22.5 15 16.25 23.75 16.25 23.75 1.25 1.25 1.25"></polygon>
                                                <path d="M5,6 L20,6"></path>
                                                <path d="M5,11 L16.25,11"></path>
                                            </g>
                                        </g>
                                    </g>
                                </g>
                            </g>
                        </g>
                    </g>
                </g>
            </g>
        </g>
    </g>
</svg>