<?xml version="1.0" encoding="UTF-8"?>
<svg width="120px" height="120px" viewBox="0 0 120 120" version="1.1" xmlns="http://www.w3.org/2000/svg" xmlns:xlink="http://www.w3.org/1999/xlink">
    <!-- Generator: Sketch 50.2 (55047) - http://www.bohemiancoding.com/sketch -->
    <title>icon-lender</title>
    <desc>Created with Sketch.</desc>
    <defs></defs>
    <g id="Landing" stroke="none" stroke-width="1" fill="none" fill-rule="evenodd">
        <g id="NHM-Landing-2018" transform="translate(-662.000000, -1444.000000)">
            <g id="Section-3---Illustration" transform="translate(0.000000, 947.000000)">
                <g id="Labels">
                    <g id="3" transform="translate(630.000000, 497.000000)">
                        <g id="icon-lender" transform="translate(32.000000, 0.000000)">
                            <circle id="Oval" fill="#00A6E1" cx="60" cy="60" r="60"></circle>
                            <g id="bank-2" transform="translate(30.000000, 30.000000)" stroke="#FFFFFF" stroke-linecap="round" stroke-linejoin="round" stroke-width="2">
                                <g id="Outline_Icons">
                                    <g id="Group">
                                        <rect id="Rectangle-path" x="6.25" y="46.8" width="47.5" height="4.8"></rect>
                                        <rect id="Rectangle-path" x="8.75" y="20.4" width="42.5" height="26.4"></rect>
                                        <path d="M58.75,56 L1.25,56" id="Shape"></path>
                                        <path d="M58.75,51 L1.25,51" id="Shape"></path>
                                        <path d="M13,20.4 L13,46.8" id="Shape"></path>
                                        <path d="M26,20.4 L26,46.8" id="Shape"></path>
                                        <path d="M21,20.4 L21,46.8" id="Shape"></path>
                                        <path d="M33,20.4 L33,46.8" id="Shape"></path>
                                        <path d="M38,20.4 L38,46.8" id="Shape"></path>
                                        <path d="M46,20.4 L46,46.8" id="Shape"></path>
                                        <rect id="Rectangle-path" x="3.75" y="15.6" width="52.5" height="4.8"></rect>
                                        <polygon id="Shape" points="56.25 15.6 3.75 15.6 30 1.2"></polygon>
                                    </g>
                                </g>
                            </g>
                        </g>
                    </g>
                </g>
            </g>
        </g>
    </g>
</svg>